<?xml version="1.0" encoding="UTF-8" standalone="no"?>
<!DOCTYPE svg PUBLIC "-//W3C//DTD SVG 1.1//EN" "http://www.w3.org/Graphics/SVG/1.1/DTD/svg11.dtd">
<svg version="1.1" xmlns="http://www.w3.org/2000/svg" xmlns:xlink="http://www.w3.org/1999/xlink" preserveAspectRatio="xMidYMid meet" viewBox="-1 68.46992231651097 1952.1599999999999 1084" width="1948.16" height="1080"><defs><path d="M1948.16 69.47C1948.16 69.47 1948.16 69.47 1948.16 69.47C1948.16 717.47 1948.16 1077.47 1948.16 1149.47C1948.16 1149.47 1948.16 1149.47 1948.16 1149.47C779.26 1149.47 129.88 1149.47 0 1149.47C0 1149.47 0 1149.47 0 1149.47C0 501.47 0 141.47 0 69.47C0 69.47 0 69.47 0 69.47C1168.9 69.47 1818.28 69.47 1948.16 69.47Z" id="cqhKjWIZB"></path><path d="M1948.16 1149.47L1948.16 1149.47" id="dbhayqTCU"></path><path d="M1878.57 1149.47L34.78 1149.47" id="c58GgX5TX"></path><path d="M0 1149.47L0 1149.47" id="aeV6wYpy5"></path><path d="M0 1081.97L0 103.22" id="bUy87ict4"></path><path d="M0 69.47L0 69.47" id="f7z3K4Mlj"></path><path d="M69.59 69.47L1913.38 69.47" id="a1qvt3yQXz"></path><path d="M1948.16 69.47L1948.16 69.47" id="a14q8M2wFY"></path><path d="M1948.16 136.97L1948.16 1115.72" id="aDRKpI9Rd"></path><path d="M1014.16 286.76C834.84 286.76 689.47 424.91 689.47 595.33C689.47 765.75 834.84 903.9 1014.16 903.9C1193.48 903.9 1338.85 765.75 1338.85 595.33C1338.85 424.91 1193.48 286.76 1014.16 286.76Z" id="d1bgxRALxF"></path><path d="M1014.16 386.08C892.56 386.08 793.98 479.77 793.98 595.33C793.98 710.9 892.56 804.58 1014.16 804.58C1135.76 804.58 1234.34 710.9 1234.34 595.33C1234.34 479.77 1135.76 386.08 1014.16 386.08Z" id="a1wl7AFMx1"></path><path d="M1014.78 386.19L1015.11 386.16L1015.44 386.08L1015.56 386.08L1016.35 386.24L1016.99 386.65L1017.43 387.26L1017.59 388.01L1017.43 388.76L1016.99 389.38L1016.35 389.79L1015.56 389.94L1015.44 389.94L1015.12 389.86L1014.79 389.84L1014.46 389.86L1014.14 389.94L1014.04 389.94L1013.25 389.79L1012.6 389.38L1012.17 388.76L1012.01 388.01L1012.17 387.26L1012.6 386.65L1013.25 386.24L1014.04 386.08L1014.12 386.08L1014.45 386.16L1014.78 386.19Z" id="a1W7GOpGQR"></path><path d="M1013.14 561.26C993.53 561.26 977.63 576.37 977.63 595.01C977.63 613.65 993.53 628.76 1013.14 628.76C1032.76 628.76 1048.66 613.65 1048.66 595.01C1048.66 576.37 1032.76 561.26 1013.14 561.26Z" id="d2K0HzBxt"></path><path d="M984.73 347.3L992.61 324.04L1041.56 324.04L1033.68 347.3L1033.68 347.3L984.73 347.3Z" id="f15WFHVRYJ"></path><path d="M1039.97 327.28L1039.68 326.89L1039.49 326.45L1039.43 325.97L1039.59 325.22L1040.02 324.61L1040.66 324.19L1041.45 324.04L1041.56 324.04L1040.36 327.59L1039.97 327.28Z" id="j4GZ2pRNW5"></path><path d="M931.12 358.54L933.72 334.22L981.61 324.56L978.99 348.86L978.99 348.86L931.12 358.54Z" id="d2hO4otn3X"></path><path d="M980.78 328.02L980.41 327.7L980.14 327.31L979.97 326.86L979.95 326.1L980.24 325.41L980.77 324.87L981.51 324.56L981.52 324.56L981.54 324.55L981.58 324.54L981.63 324.52L981.22 328.25L980.78 328.02Z" id="aYLsGEi5P"></path><path d="M881.12 380.12L878.36 355.82L923.08 336.9L925.84 361.19L925.84 361.19L881.12 380.12Z" id="h1FlFFeKwi"></path><path d="M923.02 340.44L922.59 340.2L922.23 339.87L921.97 339.46L921.79 338.71L921.92 337.98L922.33 337.35L922.98 336.9L923.08 336.9L923.08 336.85L923.51 340.57L923.02 340.44Z" id="f3fbtC61Xq"></path><path d="M836.94 411.1L828.92 387.9L868.53 360.55L876.55 383.77L876.55 383.77L836.94 411.1Z" id="b18iBLEAtW"></path><path d="M869.75 364.04L869.27 363.99L868.83 363.83L868.43 363.58L868.1 363.24L867.77 362.55L867.74 361.81L868.01 361.11L868.55 360.55L868.66 360.49L869.87 364.04L869.75 364.04Z" id="pvk31YOfR"></path><path d="M800.51 450.15L787.58 429.03L820.34 394.45L833.26 415.57L833.26 415.57L800.51 450.15Z" id="jf5ExqNqj"></path><path d="M821.87 397.66L821.39 397.61L820.93 397.44L820.52 397.18L820.03 396.57L819.83 395.85L819.93 395.12L820.34 394.45L820.34 394.38L822.37 397.6L821.87 397.66Z" id="b1e13H09N"></path><path d="M773.42 495.53L756.15 477.42L780.62 437.13L797.89 455.24L797.89 455.24L773.42 495.53Z" id="a5b5F5Hdy3"></path><path d="M782.84 439.99L782.33 440.04L781.82 439.97L781.35 439.77L780.75 439.26L780.41 438.59L780.36 437.86L780.62 437.13L780.68 437.06L783.32 439.81L782.84 439.99Z" id="b4aYzGXlrg"></path><path d="M756.84 545.27L736 530.98L751.12 486.74L771.98 501.03L771.98 501.03L756.84 545.27Z" id="d9sYNSYOl"></path><path d="M754.34 488.91L753.91 489.18L753.43 489.33L752.92 489.36L752.41 489.27L751.71 488.89L751.24 488.3L751.02 487.59L751.12 486.83L751.12 486.74L751.16 486.74L754.34 488.91Z" id="b2NokaWw6F"></path><path d="M751.52 597.2L728 587.35L733.12 541.08L756.64 550.94L756.64 550.94L751.52 597.2Z" id="aWbZJnTLg"></path><path d="M736.41 542.78L736.03 543.01L735.6 543.15L735.15 543.2L734.92 543.2L734.92 543.2L734.15 542.97L733.56 542.5L733.19 541.85L733.12 541.08L733.14 540.97L736.73 542.47L736.41 542.78Z" id="bcjqS1bkq"></path><path d="M757.67 649.06L732.49 644.07L727.37 597.78L752.54 602.8L752.54 602.8L757.67 649.06Z" id="a74VZBiFR"></path><path d="M730.95 598.98L730.57 599.3L730.12 599.52L729.63 599.63L729.4 599.63L728.66 599.5L728.04 599.14L727.59 598.59L727.37 597.9L727.37 597.8L731.23 598.57L730.95 598.98Z" id="a1RX9pfkS"></path><path d="M775.02 698.57L749.31 698.65L734.19 654.41L759.9 654.33L759.9 654.33L775.02 698.57Z" id="isOoxcBum"></path><path d="M760.81 657.98L760.52 658.09L760.22 658.16L759.9 658.19L759.78 658.19L758.99 658.03L758.35 657.62L757.91 657.01L757.75 656.26L757.91 655.51L758.35 654.89L758.99 654.48L759.78 654.33L759.88 654.33L761.08 657.82L760.81 657.98Z" id="c6BAAVp3b"></path><path d="M802.82 743.56L777.7 748.71L753.23 708.42L778.35 703.28L778.35 703.28L802.82 743.56Z" id="a5yeXSIwM"></path><path d="M778.27 703.29L778.29 703.32L778.31 703.35L780.34 706.53L780.11 706.74L779.85 706.91L779.57 707.04L779.26 707.13L778.68 707.13L777.87 707.06L777.18 706.71L776.68 706.14L776.43 705.41L776.51 704.64L776.88 703.98L777.48 703.51L778.25 703.28L778.26 703.28L778.27 703.29Z" id="j61Hwy0A8"></path><path d="M839.88 782.08L816.42 792.09L783.67 757.51L807.13 747.5L807.13 747.5L839.88 782.08Z" id="b2uhfXnhZf"></path><path d="M807.06 747.5L807.09 747.51L807.13 747.52L809.7 750.26L809.52 750.49L809.31 750.7L809.06 750.87L808.79 751.01L808.69 751.01L808.63 751.03L808.58 751.06L808.52 751.08L808.46 751.11L807.67 751.23L806.91 751.06L806.27 750.63L805.85 749.98L805.71 749.23L805.89 748.51L806.34 747.91L807.03 747.5L807.04 747.5L807.06 747.5Z" id="dcDQeTR38"></path><path d="M884.55 812.43L863.79 826.86L824.19 799.51L844.93 785.09L844.93 785.09L884.55 812.43Z" id="cb5ovEC5r"></path><path d="M847.94 787.51L847.77 787.76L847.57 787.99L847.33 788.19L847.28 788.23L847.23 788.26L847.18 788.3L847.12 788.33L846.37 788.61L845.6 788.59L844.88 788.3L844.32 787.75L844.03 787.04L844.05 786.3L844.35 785.62L844.93 785.09L844.93 785.07L848.06 787.23L847.94 787.51Z" id="g6mNtxFKg"></path><path d="M934.87 833.3L917.73 851.51L873 832.59L890.15 814.38L890.15 814.38L934.87 833.3Z" id="jk0WJdVY9"></path><path d="M893.62 816.16L893.51 816.44L893.36 816.71L893.17 816.95L893.14 816.98L893.1 817.02L893.07 817.06L893.03 817.1L892.36 817.52L891.6 817.67L890.83 817.53L890.16 817.11L889.71 816.47L889.56 815.75L889.7 815.02L890.15 814.38L893.68 815.87L893.62 816.16Z" id="b2Qes05SF2"></path><path d="M988.67 843.75L975.87 864.97L927.99 855.29L940.78 834.09L940.78 834.09L988.67 843.75Z" id="by9UOgxrz"></path><path d="M944.58 835.16L944.54 835.46L944.45 835.75L944.31 836.02L943.78 836.6L943.08 836.92L942.3 836.98L941.53 836.73L940.92 836.23L940.58 835.56L940.52 834.82L940.78 834.09L940.8 834.09L944.57 834.86L944.58 835.16Z" id="e2CpBigxM5"></path><path d="M1043.56 843.37L1035.69 866.63L986.74 866.63L994.62 843.37L994.62 843.37L1043.56 843.37Z" id="e57OqreAIj"></path><path d="M1041.98 846.61L1041.69 846.22L1041.5 845.78L1041.44 845.3L1041.6 844.55L1042.03 843.94L1042.67 843.52L1043.46 843.37L1043.56 843.37L1042.37 846.92L1041.98 846.61Z" id="d4xBT5CtA"></path><path d="M1097.18 832.14L1094.58 856.44L1046.69 866.12L1049.31 841.8L1049.31 841.8L1097.18 832.14Z" id="e1aB1XZKHX"></path><path d="M1096.35 835.6L1095.98 835.29L1095.71 834.89L1095.54 834.44L1095.52 833.68L1095.81 832.99L1096.34 832.45L1097.08 832.14L1097.09 832.14L1097.11 832.13L1097.15 832.12L1097.2 832.1L1096.79 835.83L1096.35 835.6Z" id="c1e8FuEcAA"></path><path d="M1147.18 810.56L1149.94 834.84L1105.24 853.76L1102.46 829.48L1102.46 829.48L1147.18 810.56Z" id="kMIL0hb6I"></path><path d="M1147.12 814.09L1146.69 813.86L1146.33 813.52L1146.07 813.11L1145.89 812.37L1146.02 811.64L1146.43 811.01L1147.08 810.56L1147.18 810.56L1147.18 810.5L1147.61 814.23L1147.12 814.09Z" id="b2PkaVDsWu"></path><path d="M1191.36 779.57L1199.38 802.79L1159.76 830.12L1151.75 806.92L1151.75 806.92L1191.36 779.57Z" id="br6tsEX51"></path><path d="M1192.56 783.06L1192.08 783.01L1191.63 782.85L1191.23 782.6L1190.91 782.26L1190.57 781.57L1190.55 780.83L1190.81 780.13L1191.36 779.57L1191.46 779.51L1192.68 783.06L1192.56 783.06Z" id="d3OeU85kO"></path><path d="M1227.16 740.32L1240.55 761.17L1208.59 796.43L1195.2 775.58L1195.2 775.58L1227.16 740.32Z" id="b12DoinSCI"></path><path d="M1228.72 743.48L1228.26 743.43L1227.83 743.28L1227.43 743.04L1226.92 742.44L1226.7 741.73L1226.78 741L1227.16 740.32L1227.16 740.25L1229.19 743.43L1228.72 743.48Z" id="dmy9gjkPm"></path><path d="M1254.88 695.14L1272.15 713.25L1247.67 753.53L1230.41 735.42L1230.41 735.42L1254.88 695.14Z" id="fEPoqTJkg"></path><path d="M1257.09 697.99L1256.58 698.04L1256.08 697.97L1255.6 697.78L1255 697.27L1254.67 696.6L1254.62 695.86L1254.88 695.14L1254.94 695.06L1257.58 697.82L1257.09 697.99Z" id="b19iEOS5LM"></path><path d="M1271.46 645.4L1292.3 659.69L1277.18 703.93L1256.34 689.64L1256.34 689.64L1271.46 645.4Z" id="cyOLZQrX6"></path><path d="M1274.25 647.84L1273.77 647.99L1273.26 648.02L1272.76 647.93L1272.05 647.55L1271.58 646.97L1271.36 646.26L1271.46 645.5L1271.46 645.4L1271.5 645.4L1274.69 647.58L1274.25 647.84Z" id="bscHLvI7H"></path><path d="M1276.8 593.46L1300.32 603.32L1295.18 649.6L1271.66 639.73L1271.66 639.73L1276.8 593.46Z" id="aEZ0RXxZV"></path><path d="M1280.09 595.16L1279.7 595.39L1279.28 595.53L1278.82 595.58L1278.6 595.58L1278.6 595.58L1277.83 595.35L1277.24 594.88L1276.87 594.23L1276.8 593.46L1276.82 593.35L1280.41 594.85L1280.09 595.16Z" id="b1UA31tyfT"></path><path d="M1270.63 541.6L1295.81 546.62L1300.92 592.88L1275.76 587.87L1275.76 587.87L1270.63 541.6Z" id="b2zvrZATY"></path><path d="M1274.22 542.78L1273.84 543.1L1273.4 543.32L1272.9 543.44L1272.68 543.44L1271.93 543.31L1271.31 542.94L1270.86 542.39L1270.65 541.7L1270.65 541.6L1274.5 542.37L1274.22 542.78Z" id="aYA0RdAe"></path><path d="M1253.28 492.1L1278.99 492.02L1294.13 536.26L1268.41 536.36L1268.41 536.36L1253.28 492.1Z" id="a27GQyFeb"></path><path d="M1279.9 495.67L1279.61 495.78L1279.3 495.85L1278.99 495.88L1278.87 495.88L1278.08 495.73L1277.43 495.31L1277 494.7L1276.84 493.95L1277 493.2L1277.43 492.58L1278.08 492.17L1278.87 492.02L1278.97 492.02L1280.16 495.51L1279.9 495.67Z" id="b1uJTSCEqz"></path><path d="M1225.47 447.1L1250.6 441.95L1275.07 482.24L1249.95 487.39L1249.95 487.39L1225.47 447.1Z" id="di1xr6bkU"></path><path d="M1250.5 441.97L1250.5 442L1250.5 442.03L1252.52 445.21L1252.3 445.42L1252.04 445.59L1251.75 445.72L1251.45 445.81L1250.92 445.81L1250.12 445.74L1249.42 445.39L1248.92 444.82L1248.68 444.09L1248.76 443.32L1249.12 442.66L1249.72 442.18L1250.5 441.95L1250.5 441.96L1250.5 441.97Z" id="b3NT5E5oLh"></path><path d="M1188.42 408.59L1211.88 398.58L1244.63 433.16L1221.17 443.17L1221.17 443.17L1188.42 408.59Z" id="a1K2a4lqh0"></path><path d="M1214.28 401.55L1214.06 401.76L1213.82 401.95L1213.54 402.09L1213.44 402.09L1213.38 402.12L1213.33 402.14L1213.27 402.17L1213.21 402.19L1212.42 402.31L1211.66 402.14L1211.02 401.72L1210.6 401.07L1210.47 400.31L1210.64 399.59L1211.09 398.99L1211.78 398.58L1211.79 398.58L1211.81 398.58L1211.84 398.57L1211.88 398.56L1214.45 401.3L1214.28 401.55Z" id="e16YbiAfyo"></path><path d="M1143.75 378.23L1164.51 363.81L1204.13 391.16L1183.37 405.58L1183.37 405.58L1143.75 378.23Z" id="a33kj91gn"></path><path d="M1167.52 366.23L1167.35 366.49L1167.15 366.72L1166.91 366.91L1166.86 366.95L1166.81 366.99L1166.76 367.02L1166.7 367.06L1165.95 367.33L1165.17 367.32L1164.46 367.02L1163.9 366.47L1163.61 365.76L1163.63 365.02L1163.93 364.34L1164.51 363.81L1164.51 363.79L1167.64 365.95L1167.52 366.23Z" id="a4vCybVZC"></path><path d="M1093.43 357.37L1110.57 339.16L1155.3 358.08L1138.15 376.31L1138.15 376.31L1093.43 357.37Z" id="a1CwSHDa8Y"></path><path d="M1114.05 340.94L1113.94 341.22L1113.79 341.49L1113.6 341.73L1113.56 341.77L1113.53 341.8L1113.49 341.84L1113.45 341.88L1112.79 342.3L1112.02 342.45L1111.26 342.31L1110.59 341.89L1110.14 341.25L1109.98 340.53L1110.13 339.8L1110.57 339.16L1114.1 340.65L1114.05 340.94Z" id="c4ASXO3pOj"></path><path d="M1039.65 346.91L1052.43 325.72L1100.3 335.38L1087.52 356.58L1087.52 356.58L1039.65 346.91Z" id="c6VRQNrQJW"></path><path d="M1056.23 326.79L1056.19 327.09L1056.1 327.38L1055.96 327.65L1055.43 328.23L1054.73 328.55L1053.95 328.6L1053.18 328.36L1052.58 327.85L1052.23 327.19L1052.18 326.45L1052.43 325.72L1052.45 325.72L1056.23 326.49L1056.23 326.79Z" id="bKdcX8nyd"></path><path d="M1018.42 273.9C1018.42 273.9 1018.42 273.9 1018.42 273.9C1018.42 288.94 1018.42 297.3 1018.42 298.97C1018.42 298.97 1018.42 298.97 1018.42 298.97C1013.9 298.97 1011.39 298.97 1010.89 298.97C1010.89 298.97 1010.89 298.97 1010.89 298.97C1010.89 283.93 1010.89 275.57 1010.89 273.9C1010.89 273.9 1010.89 273.9 1010.89 273.9C1015.41 273.9 1017.92 273.9 1018.42 273.9Z" id="d1IlRlAHxc"></path><path d="M994.85 274.33C994.85 274.33 994.85 274.33 994.85 274.33C995.95 289.33 996.56 297.67 996.69 299.34C996.69 299.34 996.69 299.34 996.69 299.34C992.18 299.64 989.68 299.8 989.18 299.84C989.18 299.84 989.18 299.84 989.18 299.84C988.07 284.83 987.46 276.49 987.33 274.83C987.33 274.83 987.33 274.83 987.33 274.83C991.84 274.53 994.34 274.36 994.85 274.33Z" id="a5kjfihxcq"></path><path d="M971.35 276.33C971.35 276.33 971.35 276.33 971.35 276.33C973.56 291.22 974.78 299.5 975.03 301.16C975.03 301.16 975.03 301.16 975.03 301.16C970.55 301.75 968.07 302.08 967.57 302.15C967.57 302.15 967.57 302.15 967.57 302.15C965.37 287.25 964.14 278.98 963.9 277.32C963.9 277.32 963.9 277.32 963.9 277.32C968.37 276.73 970.86 276.39 971.35 276.33Z" id="a23Q4eioPb"></path><path d="M948.05 279.88C948.05 279.88 948.05 279.88 948.05 279.88C951.34 294.59 953.17 302.76 953.54 304.4C953.54 304.4 953.54 304.4 953.54 304.4C949.12 305.29 946.66 305.79 946.17 305.89C946.17 305.89 946.17 305.89 946.17 305.89C942.88 291.17 941.05 283 940.69 281.36C940.69 281.36 940.69 281.36 940.69 281.36C945.11 280.47 947.56 279.98 948.05 279.88Z" id="a2lBBiwzSd"></path><path d="M925.09 284.94C925.09 284.94 925.09 284.94 925.09 284.94C929.45 299.4 931.87 307.44 932.36 309.04C932.36 309.04 932.36 309.04 932.36 309.04C928.02 310.23 925.6 310.88 925.12 311.02C925.12 311.02 925.12 311.02 925.12 311.02C920.76 296.56 918.33 288.52 917.85 286.92C917.85 286.92 917.85 286.92 917.85 286.92C922.19 285.73 924.6 285.07 925.09 284.94Z" id="a3av3RQz0"></path><path d="M902.53 291.55C902.53 291.55 902.53 291.55 902.53 291.55C907.95 305.68 910.95 313.54 911.56 315.11C911.56 315.11 911.56 315.11 911.56 315.11C907.31 316.57 904.95 317.39 904.48 317.55C904.48 317.55 904.48 317.55 904.48 317.55C899.07 303.42 896.06 295.56 895.46 293.99C895.46 293.99 895.46 293.99 895.46 293.99C899.7 292.53 902.06 291.71 902.53 291.55Z" id="d4o92QybY"></path><path d="M880.55 299.63C880.55 299.63 880.55 299.63 880.55 299.63C886.99 313.37 890.57 321 891.28 322.53C891.28 322.53 891.28 322.53 891.28 322.53C887.15 324.28 884.86 325.25 884.4 325.44C884.4 325.44 884.4 325.44 884.4 325.44C877.97 311.7 874.39 304.06 873.67 302.54C873.67 302.54 873.67 302.54 873.67 302.54C877.8 300.79 880.09 299.82 880.55 299.63Z" id="b32lUaWw3q"></path><path d="M859.18 309.14C859.18 309.14 859.18 309.14 859.18 309.14C866.62 322.42 870.74 329.8 871.57 331.27C871.57 331.27 871.57 331.27 871.57 331.27C867.58 333.29 865.37 334.41 864.92 334.63C864.92 334.63 864.92 334.63 864.92 334.63C857.49 321.35 853.36 313.97 852.54 312.49C852.54 312.49 852.54 312.49 852.54 312.49C856.53 310.48 858.74 309.36 859.18 309.14Z" id="aj66NMo93"></path><path d="M838.57 320.03C838.57 320.03 838.57 320.03 838.57 320.03C846.96 332.79 851.62 339.87 852.55 341.29C852.55 341.29 852.55 341.29 852.55 341.29C848.72 343.57 846.59 344.83 846.17 345.08C846.17 345.08 846.17 345.08 846.17 345.08C837.78 332.33 833.12 325.24 832.19 323.82C832.19 323.82 832.19 323.82 832.19 323.82C836.02 321.55 838.15 320.28 838.57 320.03Z" id="f24beFhB7K"></path><path d="M818.82 332.29C818.82 332.29 818.82 332.29 818.82 332.29C828.13 344.46 833.29 351.22 834.33 352.57C834.33 352.57 834.33 352.57 834.33 352.57C830.67 355.1 828.64 356.5 828.24 356.78C828.24 356.78 828.24 356.78 828.24 356.78C818.93 344.61 813.77 337.85 812.73 336.5C812.73 336.5 812.73 336.5 812.73 336.5C816.39 333.97 818.42 332.57 818.82 332.29Z" id="d2wd2aBktR"></path><path d="M800 345.8C800 345.8 800 345.8 800 345.8C810.17 357.33 815.83 363.73 816.96 365.01C816.96 365.01 816.96 365.01 816.96 365.01C813.5 367.77 811.57 369.3 811.19 369.61C811.19 369.61 811.19 369.61 811.19 369.61C801.02 358.08 795.36 351.68 794.23 350.4C794.23 350.4 794.23 350.4 794.23 350.4C797.69 347.64 799.62 346.11 800 345.8Z" id="b1HhulCMY2"></path><path d="M782.24 360.53C782.24 360.53 782.24 360.53 782.24 360.53C793.23 371.35 799.34 377.36 800.56 378.57C800.56 378.57 800.56 378.57 800.56 378.57C797.31 381.55 795.51 383.2 795.15 383.54C795.15 383.54 795.15 383.54 795.15 383.54C784.15 372.71 778.04 366.7 776.82 365.5C776.82 365.5 776.82 365.5 776.82 365.5C780.07 362.52 781.88 360.86 782.24 360.53Z" id="fGprLhe8"></path><path d="M750.14 393.36C750.14 393.36 750.14 393.36 750.14 393.36C762.61 402.62 769.54 407.76 770.93 408.79C770.93 408.79 770.93 408.79 770.93 408.79C768.15 412.18 766.6 414.06 766.29 414.43C766.29 414.43 766.29 414.43 766.29 414.43C753.82 405.17 746.89 400.02 745.5 399C745.5 399 745.5 399 745.5 399C748.28 395.61 749.83 393.73 750.14 393.36Z" id="a1X5nou9We"></path><path d="M736.93 410.86C736.93 410.86 736.93 410.86 736.93 410.86C750.07 419.29 757.36 423.97 758.82 424.9C758.82 424.9 758.82 424.9 758.82 424.9C756.3 428.47 754.89 430.45 754.61 430.84C754.61 430.84 754.61 430.84 754.61 430.84C741.47 422.42 734.17 417.74 732.71 416.8C732.71 416.8 732.71 416.8 732.71 416.8C735.24 413.24 736.65 411.26 736.93 410.86Z" id="aNKLo1WhZ"></path><path d="M723.16 430.1C723.16 430.1 723.16 430.1 723.16 430.1C736.87 437.63 744.48 441.8 746.01 442.64C746.01 442.64 746.01 442.64 746.01 442.64C743.75 446.36 742.49 448.42 742.24 448.84C742.24 448.84 742.24 448.84 742.24 448.84C728.53 441.32 720.92 437.14 719.39 436.3C719.39 436.3 719.39 436.3 719.39 436.3C721.65 432.58 722.91 430.52 723.16 430.1Z" id="a1JjIw6Zz5"></path><path d="M711.78 449.74C711.78 449.74 711.78 449.74 711.78 449.74C726.01 456.34 733.91 460 735.49 460.73C735.49 460.73 735.49 460.73 735.49 460.73C733.51 464.59 732.41 466.74 732.19 467.17C732.19 467.17 732.19 467.17 732.19 467.17C717.96 460.57 710.06 456.91 708.48 456.17C708.48 456.17 708.48 456.17 708.48 456.17C710.46 452.32 711.56 450.17 711.78 449.74Z" id="dv0Iot4AU"></path><path d="M701.85 470.07C701.85 470.07 701.85 470.07 701.85 470.07C716.53 475.71 724.68 478.84 726.31 479.46C726.31 479.46 726.31 479.46 726.31 479.46C724.62 483.44 723.68 485.65 723.49 486.1C723.49 486.1 723.49 486.1 723.49 486.1C708.82 480.46 700.66 477.33 699.03 476.71C699.03 476.71 699.03 476.71 699.03 476.71C700.72 472.72 701.66 470.51 701.85 470.07Z" id="b2MfoSwLoF"></path><path d="M693.43 490.99C693.43 490.99 693.43 490.99 693.43 490.99C708.49 495.64 716.85 498.22 718.52 498.74C718.52 498.74 718.52 498.74 718.52 498.74C717.13 502.82 716.35 505.09 716.2 505.55C716.2 505.55 716.2 505.55 716.2 505.55C701.14 500.9 692.78 498.31 691.11 497.8C691.11 497.8 691.11 497.8 691.11 497.8C692.5 493.72 693.28 491.45 693.43 490.99Z" id="c2ZAdNutr1"></path><path d="M686.57 512.44C686.57 512.44 686.57 512.44 686.57 512.44C701.93 516.08 710.47 518.1 712.17 518.51C712.17 518.51 712.17 518.51 712.17 518.51C711.08 522.67 710.47 524.99 710.35 525.45C710.35 525.45 710.35 525.45 710.35 525.45C694.99 521.81 686.46 519.79 684.75 519.38C684.75 519.38 684.75 519.38 684.75 519.38C685.85 515.22 686.45 512.9 686.57 512.44Z" id="gwBN2MBrg"></path><path d="M681.32 534.31C681.32 534.31 681.32 534.31 681.32 534.31C696.91 536.92 705.57 538.37 707.31 538.67C707.31 538.67 707.31 538.67 707.31 538.67C706.52 542.89 706.08 545.24 706 545.71C706 545.71 706 545.71 706 545.71C690.41 543.1 681.75 541.65 680.02 541.36C680.02 541.36 680.02 541.36 680.02 541.36C680.8 537.13 681.24 534.78 681.32 534.31Z" id="mpMeAlGtf"></path><path d="M677.66 556.44C677.66 556.44 677.66 556.44 677.66 556.44C693.4 558.01 702.15 558.88 703.9 559.06C703.9 559.06 703.9 559.06 703.9 559.06C703.43 563.33 703.16 565.7 703.11 566.18C703.11 566.18 703.11 566.18 703.11 566.18C687.37 564.6 678.62 563.73 676.88 563.55C676.88 563.55 676.88 563.55 676.88 563.55C677.35 559.28 677.61 556.91 677.66 556.44Z" id="a4Xy4mn5KZ"></path><path d="M675.67 578.77C675.67 578.77 675.67 578.77 675.67 578.77C691.49 579.29 700.28 579.58 702.03 579.64C702.03 579.64 702.03 579.64 702.03 579.64C701.88 583.93 701.79 586.32 701.77 586.79C701.77 586.79 701.77 586.79 701.77 586.79C685.95 586.27 677.16 585.98 675.4 585.92C675.4 585.92 675.4 585.92 675.4 585.92C675.56 581.63 675.65 579.24 675.67 578.77Z" id="m5hnSBo6T"></path><path d="M676.55 623.58C676.55 623.58 676.55 623.58 676.55 623.58C692.3 622.01 701.04 621.14 702.79 620.96C702.79 620.96 702.79 620.96 702.79 620.96C703.26 625.23 703.52 627.6 703.58 628.08C703.58 628.08 703.58 628.08 703.58 628.08C687.84 629.65 679.09 630.52 677.34 630.7C677.34 630.7 677.34 630.7 677.34 630.7C676.87 626.43 676.61 624.06 676.55 623.58Z" id="d1edevwxez"></path><path d="M679.5 645.82C679.5 645.82 679.5 645.82 679.5 645.82C695.08 643.21 703.74 641.76 705.48 641.47C705.48 641.47 705.48 641.47 705.48 641.47C706.26 645.7 706.7 648.05 706.78 648.52C706.78 648.52 706.78 648.52 706.78 648.52C691.2 651.13 682.54 652.58 680.8 652.87C680.8 652.87 680.8 652.87 680.8 652.87C680.02 648.64 679.58 646.29 679.5 645.82Z" id="a2woL5Ax6H"></path><path d="M684.02 667.83C684.02 667.83 684.02 667.83 684.02 667.83C699.38 664.19 707.91 662.16 709.62 661.76C709.62 661.76 709.62 661.76 709.62 661.76C710.71 665.93 711.32 668.24 711.44 668.7C711.44 668.7 711.44 668.7 711.44 668.7C696.08 672.34 687.55 674.36 685.84 674.77C685.84 674.77 685.84 674.77 685.84 674.77C684.75 670.6 684.14 668.29 684.02 667.83Z" id="c1aNgkMKqa"></path><path d="M690.16 689.47C690.16 689.47 690.16 689.47 690.16 689.47C705.21 684.82 713.58 682.24 715.25 681.72C715.25 681.72 715.25 681.72 715.25 681.72C716.65 685.8 717.42 688.07 717.58 688.52C717.58 688.52 717.58 688.52 717.58 688.52C702.52 693.17 694.16 695.75 692.49 696.27C692.49 696.27 692.49 696.27 692.49 696.27C691.09 692.19 690.31 689.92 690.16 689.47Z" id="a124KOZjJ"></path><path d="M697.89 710.64C697.89 710.64 697.89 710.64 697.89 710.64C712.56 705 720.72 701.87 722.35 701.25C722.35 701.25 722.35 701.25 722.35 701.25C724.04 705.23 724.98 707.44 725.17 707.88C725.17 707.88 725.17 707.88 725.17 707.88C710.49 713.52 702.34 716.65 700.71 717.27C700.71 717.27 700.71 717.27 700.71 717.27C699.02 713.29 698.08 711.08 697.89 710.64Z" id="g4J6W6RP8E"></path><path d="M707.15 731.25C707.15 731.25 707.15 731.25 707.15 731.25C721.37 724.66 729.28 721 730.86 720.26C730.86 720.26 730.86 720.26 730.86 720.26C732.84 724.12 733.94 726.27 734.16 726.69C734.16 726.69 734.16 726.69 734.16 726.69C719.93 733.29 712.03 736.95 710.45 737.68C710.45 737.68 710.45 737.68 710.45 737.68C708.47 733.83 707.37 731.68 707.15 731.25Z" id="gcbsXt2iV"></path><path d="M717.88 751.21C717.88 751.21 717.88 751.21 717.88 751.21C731.59 743.69 739.2 739.51 740.73 738.68C740.73 738.68 740.73 738.68 740.73 738.68C742.99 742.39 744.24 744.46 744.49 744.87C744.49 744.87 744.49 744.87 744.49 744.87C730.78 752.39 723.17 756.57 721.64 757.41C721.64 757.41 721.64 757.41 721.64 757.41C719.39 753.69 718.13 751.62 717.88 751.21Z" id="a8WwmKCJrw"></path><path d="M730.07 770.39C730.07 770.39 730.07 770.39 730.07 770.39C743.19 761.98 750.48 757.31 751.94 756.37C751.94 756.37 751.94 756.37 751.94 756.37C754.47 759.93 755.87 761.91 756.15 762.3C756.15 762.3 756.15 762.3 756.15 762.3C743.03 770.72 735.74 775.39 734.28 776.32C734.28 776.32 734.28 776.32 734.28 776.32C731.75 772.77 730.35 770.79 730.07 770.39Z" id="f3ky3PNp7o"></path><path d="M743.63 788.74C743.63 788.74 743.63 788.74 743.63 788.74C756.11 779.48 763.04 774.34 764.42 773.31C764.42 773.31 764.42 773.31 764.42 773.31C767.2 776.69 768.75 778.57 769.06 778.95C769.06 778.95 769.06 778.95 769.06 778.95C756.59 788.21 749.66 793.35 748.27 794.38C748.27 794.38 748.27 794.38 748.27 794.38C745.49 791 743.94 789.12 743.63 788.74Z" id="a3LS4SBpae"></path><path d="M758.51 806.15C758.51 806.15 758.51 806.15 758.51 806.15C770.28 796.08 776.81 790.49 778.12 789.37C778.12 789.37 778.12 789.37 778.12 789.37C781.14 792.56 782.82 794.33 783.16 794.69C783.16 794.69 783.16 794.69 783.16 794.69C771.39 804.75 764.86 810.35 763.55 811.46C763.55 811.46 763.55 811.46 763.55 811.46C760.53 808.27 758.85 806.5 758.51 806.15Z" id="b2dzSaPZjI"></path><path d="M791.92 837.76C791.92 837.76 791.92 837.76 791.92 837.76C802.1 826.24 807.75 819.83 808.88 818.55C808.88 818.55 808.88 818.55 808.88 818.55C812.34 821.31 814.27 822.85 814.65 823.15C814.65 823.15 814.65 823.15 814.65 823.15C804.48 834.68 798.82 841.08 797.69 842.36C797.69 842.36 797.69 842.36 797.69 842.36C794.23 839.6 792.31 838.07 791.92 837.76Z" id="b2oZf3IGKo"></path><path d="M810.27 851.84C810.27 851.84 810.27 851.84 810.27 851.84C819.58 839.67 824.75 832.91 825.78 831.56C825.78 831.56 825.78 831.56 825.78 831.56C829.43 834.08 831.46 835.48 831.87 835.76C831.87 835.76 831.87 835.76 831.87 835.76C822.57 847.93 817.4 854.69 816.36 856.04C816.36 856.04 816.36 856.04 816.36 856.04C812.71 853.52 810.68 852.12 810.27 851.84Z" id="ady80ebjd"></path><path d="M829.62 864.66C829.62 864.66 829.62 864.66 829.62 864.66C838.01 851.9 842.67 844.81 843.6 843.4C843.6 843.4 843.6 843.4 843.6 843.4C847.43 845.67 849.56 846.94 849.99 847.19C849.99 847.19 849.99 847.19 849.99 847.19C841.6 859.95 836.94 867.03 836.01 868.45C836.01 868.45 836.01 868.45 836.01 868.45C832.18 866.18 830.05 864.91 829.62 864.66Z" id="bl0A3bml"></path><path d="M849.85 876.17C849.85 876.17 849.85 876.17 849.85 876.17C857.28 862.89 861.41 855.51 862.24 854.04C862.24 854.04 862.24 854.04 862.24 854.04C866.22 856.05 868.44 857.17 868.88 857.4C868.88 857.4 868.88 857.4 868.88 857.4C861.45 870.68 857.32 878.06 856.5 879.53C856.5 879.53 856.5 879.53 856.5 879.53C852.51 877.52 850.29 876.4 849.85 876.17Z" id="fdetk9t2d"></path><path d="M870.88 886.31C870.88 886.31 870.88 886.31 870.88 886.31C877.32 872.57 880.89 864.94 881.61 863.41C881.61 863.41 881.61 863.41 881.61 863.41C885.74 865.16 888.03 866.13 888.49 866.32C888.49 866.32 888.49 866.32 888.49 866.32C882.05 880.06 878.47 887.7 877.76 889.22C877.76 889.22 877.76 889.22 877.76 889.22C873.63 887.48 871.34 886.51 870.88 886.31Z" id="b1nC7Z45HA"></path><path d="M892.62 895.04C892.62 895.04 892.62 895.04 892.62 895.04C898.03 880.91 901.04 873.05 901.64 871.48C901.64 871.48 901.64 871.48 901.64 871.48C905.89 872.95 908.25 873.77 908.72 873.93C908.72 873.93 908.72 873.93 908.72 873.93C903.3 888.07 900.3 895.92 899.69 897.49C899.69 897.49 899.69 897.49 899.69 897.49C895.45 896.02 893.09 895.21 892.62 895.04Z" id="a46BKnThuh"></path><path d="M914.93 902.28C914.93 902.28 914.93 902.28 914.93 902.28C919.29 887.82 921.72 879.79 922.2 878.18C922.2 878.18 922.2 878.18 922.2 878.18C926.54 879.36 928.96 880.02 929.44 880.15C929.44 880.15 929.44 880.15 929.44 880.15C925.08 894.61 922.65 902.64 922.17 904.25C922.17 904.25 922.17 904.25 922.17 904.25C917.83 903.07 915.41 902.41 914.93 902.28Z" id="d4pruosSgE"></path><path d="M937.73 908.06C937.73 908.06 937.73 908.06 937.73 908.06C941.02 893.34 942.85 885.17 943.22 883.54C943.22 883.54 943.22 883.54 943.22 883.54C947.64 884.43 950.09 884.92 950.58 885.02C950.58 885.02 950.58 885.02 950.58 885.02C947.29 899.74 945.46 907.91 945.1 909.55C945.1 909.55 945.1 909.55 945.1 909.55C940.68 908.65 938.22 908.16 937.73 908.06Z" id="b1wjzPQJKt"></path><path d="M960.89 912.28C960.89 912.28 960.89 912.28 960.89 912.28C963.09 897.38 964.32 889.11 964.56 887.45C964.56 887.45 964.56 887.45 964.56 887.45C969.03 888.05 971.52 888.38 972.02 888.45C972.02 888.45 972.02 888.45 972.02 888.45C969.81 903.34 968.59 911.62 968.34 913.28C968.34 913.28 968.34 913.28 968.34 913.28C963.87 912.68 961.39 912.35 960.89 912.28Z" id="cWyffdCjD"></path><path d="M984.32 914.98C984.32 914.98 984.32 914.98 984.32 914.98C985.43 899.97 986.04 891.64 986.16 889.97C986.16 889.97 986.16 889.97 986.16 889.97C990.67 890.27 993.17 890.44 993.67 890.47C993.67 890.47 993.67 890.47 993.67 890.47C992.57 905.47 991.96 913.81 991.83 915.48C991.83 915.48 991.83 915.48 991.83 915.48C987.33 915.18 984.82 915.01 984.32 914.98Z" id="gEqr76fsY"></path><path d="M1031.44 915.69C1031.44 915.69 1031.44 915.69 1031.44 915.69C1030.33 900.68 1029.72 892.34 1029.6 890.68C1029.6 890.68 1029.6 890.68 1029.6 890.68C1034.1 890.38 1036.61 890.21 1037.11 890.18C1037.11 890.18 1037.11 890.18 1037.11 890.18C1038.21 905.18 1038.82 913.52 1038.95 915.19C1038.95 915.19 1038.95 915.19 1038.95 915.19C1034.44 915.49 1031.94 915.65 1031.44 915.69Z" id="aDMW8MnC"></path><path d="M1054.93 913.68C1054.93 913.68 1054.93 913.68 1054.93 913.68C1052.73 898.78 1051.5 890.51 1051.26 888.85C1051.26 888.85 1051.26 888.85 1051.26 888.85C1055.73 888.25 1058.22 887.92 1058.71 887.86C1058.71 887.86 1058.71 887.86 1058.71 887.86C1060.92 902.75 1062.14 911.03 1062.38 912.68C1062.38 912.68 1062.38 912.68 1062.38 912.68C1057.91 913.28 1055.43 913.61 1054.93 913.68Z" id="a3DudQ31Kk"></path><path d="M1078.22 910.15C1078.22 910.15 1078.22 910.15 1078.22 910.15C1074.92 895.43 1073.1 887.26 1072.73 885.62C1072.73 885.62 1072.73 885.62 1072.73 885.62C1077.15 884.73 1079.6 884.23 1080.1 884.13C1080.1 884.13 1080.1 884.13 1080.1 884.13C1083.39 898.85 1085.21 907.02 1085.58 908.66C1085.58 908.66 1085.58 908.66 1085.58 908.66C1081.16 909.55 1078.71 910.05 1078.22 910.15Z" id="aFF1RMbfd"></path><path d="M1101.2 905.06C1101.2 905.06 1101.2 905.06 1101.2 905.06C1096.84 890.6 1094.41 882.57 1093.93 880.96C1093.93 880.96 1093.93 880.96 1093.93 880.96C1098.27 879.78 1100.68 879.12 1101.17 878.99C1101.17 878.99 1101.17 878.99 1101.17 878.99C1105.53 893.45 1107.95 901.48 1108.44 903.09C1108.44 903.09 1108.44 903.09 1108.44 903.09C1104.1 904.27 1101.68 904.93 1101.2 905.06Z" id="e2Vkt1Te8R"></path><path d="M1123.74 898.46C1123.74 898.46 1123.74 898.46 1123.74 898.46C1118.33 884.32 1115.32 876.47 1114.72 874.9C1114.72 874.9 1114.72 874.9 1114.72 874.9C1118.96 873.43 1121.32 872.62 1121.79 872.45C1121.79 872.45 1121.79 872.45 1121.79 872.45C1127.21 886.59 1130.21 894.44 1130.82 896.01C1130.82 896.01 1130.82 896.01 1130.82 896.01C1126.57 897.48 1124.21 898.3 1123.74 898.46Z" id="a40EhJl0C"></path><path d="M1145.75 890.4C1145.75 890.4 1145.75 890.4 1145.75 890.4C1139.31 876.66 1135.73 869.03 1135.02 867.5C1135.02 867.5 1135.02 867.5 1135.02 867.5C1139.14 865.75 1141.44 864.78 1141.9 864.59C1141.9 864.59 1141.9 864.59 1141.9 864.59C1148.33 878.33 1151.91 885.97 1152.63 887.49C1152.63 887.49 1152.63 887.49 1152.63 887.49C1148.5 889.24 1146.21 890.21 1145.75 890.4Z" id="e5fAjyEa8b"></path><path d="M1167.1 880.9C1167.1 880.9 1167.1 880.9 1167.1 880.9C1159.67 867.62 1155.54 860.24 1154.71 858.76C1154.71 858.76 1154.71 858.76 1154.71 858.76C1158.7 856.75 1160.92 855.63 1161.36 855.41C1161.36 855.41 1161.36 855.41 1161.36 855.41C1168.79 868.69 1172.92 876.07 1173.75 877.54C1173.75 877.54 1173.75 877.54 1173.75 877.54C1169.76 879.56 1167.54 880.68 1167.1 880.9Z" id="a150QaoWS"></path><path d="M1187.72 869.97C1187.72 869.97 1187.72 869.97 1187.72 869.97C1179.33 857.21 1174.67 850.12 1173.74 848.71C1173.74 848.71 1173.74 848.71 1173.74 848.71C1177.57 846.43 1179.7 845.17 1180.12 844.92C1180.12 844.92 1180.12 844.92 1180.12 844.92C1188.51 857.67 1193.17 864.76 1194.1 866.18C1194.1 866.18 1194.1 866.18 1194.1 866.18C1190.27 868.45 1188.14 869.72 1187.72 869.97Z" id="d1mWNyvsF"></path><path d="M1207.48 857.73C1207.48 857.73 1207.48 857.73 1207.48 857.73C1198.18 845.56 1193.01 838.8 1191.98 837.45C1191.98 837.45 1191.98 837.45 1191.98 837.45C1195.63 834.92 1197.66 833.52 1198.07 833.24C1198.07 833.24 1198.07 833.24 1198.07 833.24C1207.37 845.41 1212.54 852.17 1213.57 853.53C1213.57 853.53 1213.57 853.53 1213.57 853.53C1209.92 856.05 1207.89 857.45 1207.48 857.73Z" id="cRrcITUrd"></path><path d="M1226.3 844.21C1226.3 844.21 1226.3 844.21 1226.3 844.21C1216.12 832.69 1210.47 826.29 1209.34 825.01C1209.34 825.01 1209.34 825.01 1209.34 825.01C1212.8 822.25 1214.72 820.72 1215.11 820.41C1215.11 820.41 1215.11 820.41 1215.11 820.41C1225.28 831.93 1230.93 838.33 1232.06 839.61C1232.06 839.61 1232.06 839.61 1232.06 839.61C1228.6 842.37 1226.68 843.91 1226.3 844.21Z" id="e2sRWBvSm5"></path><path d="M1260.7 813.59C1260.7 813.59 1260.7 813.59 1260.7 813.59C1248.94 803.52 1242.4 797.93 1241.1 796.81C1241.1 796.81 1241.1 796.81 1241.1 796.81C1244.12 793.62 1245.8 791.85 1246.14 791.49C1246.14 791.49 1246.14 791.49 1246.14 791.49C1257.9 801.56 1264.43 807.15 1265.74 808.27C1265.74 808.27 1265.74 808.27 1265.74 808.27C1262.72 811.46 1261.04 813.23 1260.7 813.59Z" id="aNxfI8ggj"></path><path d="M1276.15 796.65C1276.15 796.65 1276.15 796.65 1276.15 796.65C1263.67 787.38 1256.74 782.24 1255.36 781.21C1255.36 781.21 1255.36 781.21 1255.36 781.21C1258.14 777.83 1259.68 775.95 1259.99 775.57C1259.99 775.57 1259.99 775.57 1259.99 775.57C1272.47 784.83 1279.4 789.98 1280.78 791.01C1280.78 791.01 1280.78 791.01 1280.78 791.01C1278 794.39 1276.46 796.27 1276.15 796.65Z" id="a8l2ITryiG"></path><path d="M1290.32 778.72C1290.32 778.72 1290.32 778.72 1290.32 778.72C1277.2 770.31 1269.91 765.64 1268.45 764.7C1268.45 764.7 1268.45 764.7 1268.45 764.7C1270.97 761.15 1272.38 759.17 1272.66 758.77C1272.66 758.77 1272.66 758.77 1272.66 758.77C1285.78 767.18 1293.07 771.86 1294.53 772.79C1294.53 772.79 1294.53 772.79 1294.53 772.79C1292 776.35 1290.6 778.33 1290.32 778.72Z" id="a4p6hqC3CT"></path><path d="M1303.13 759.91C1303.13 759.91 1303.13 759.91 1303.13 759.91C1289.42 752.39 1281.81 748.21 1280.28 747.38C1280.28 747.38 1280.28 747.38 1280.28 747.38C1282.54 743.66 1283.8 741.59 1284.05 741.18C1284.05 741.18 1284.05 741.18 1284.05 741.18C1297.76 748.7 1305.37 752.88 1306.9 753.71C1306.9 753.71 1306.9 753.71 1306.9 753.71C1304.64 757.43 1303.38 759.5 1303.13 759.91Z" id="dYmjGwoQu"></path><path d="M1314.52 740.28C1314.52 740.28 1314.52 740.28 1314.52 740.28C1300.3 733.68 1292.39 730.02 1290.81 729.29C1290.81 729.29 1290.81 729.29 1290.81 729.29C1292.79 725.43 1293.89 723.29 1294.11 722.86C1294.11 722.86 1294.11 722.86 1294.11 722.86C1308.34 729.45 1316.24 733.12 1317.83 733.85C1317.83 733.85 1317.83 733.85 1317.83 733.85C1315.84 737.71 1314.74 739.85 1314.52 740.28Z" id="c1TnmJQ5g7"></path><path d="M1324.45 719.94C1324.45 719.94 1324.45 719.94 1324.45 719.94C1309.77 714.31 1301.62 711.18 1299.99 710.55C1299.99 710.55 1299.99 710.55 1299.99 710.55C1301.68 706.57 1302.62 704.36 1302.81 703.92C1302.81 703.92 1302.81 703.92 1302.81 703.92C1317.48 709.55 1325.64 712.68 1327.27 713.31C1327.27 713.31 1327.27 713.31 1327.27 713.31C1325.57 717.29 1324.63 719.5 1324.45 719.94Z" id="d2kcogCFOm"></path><path d="M1332.85 699.01C1332.85 699.01 1332.85 699.01 1332.85 699.01C1317.8 694.36 1309.44 691.78 1307.76 691.26C1307.76 691.26 1307.76 691.26 1307.76 691.26C1309.16 687.18 1309.93 684.91 1310.09 684.46C1310.09 684.46 1310.09 684.46 1310.09 684.46C1325.14 689.11 1333.51 691.69 1335.18 692.21C1335.18 692.21 1335.18 692.21 1335.18 692.21C1333.78 696.29 1333.01 698.56 1332.85 699.01Z" id="a4oCShoQen"></path><path d="M1339.71 677.56C1339.71 677.56 1339.71 677.56 1339.71 677.56C1324.35 673.92 1315.82 671.9 1314.11 671.5C1314.11 671.5 1314.11 671.5 1314.11 671.5C1315.2 667.33 1315.81 665.02 1315.93 664.55C1315.93 664.55 1315.93 664.55 1315.93 664.55C1331.29 668.19 1339.82 670.21 1341.53 670.62C1341.53 670.62 1341.53 670.62 1341.53 670.62C1340.44 674.78 1339.83 677.1 1339.71 677.56Z" id="a2q5KQEGlm"></path><path d="M1344.98 655.7C1344.98 655.7 1344.98 655.7 1344.98 655.7C1329.39 653.09 1320.73 651.64 1319 651.35C1319 651.35 1319 651.35 1319 651.35C1319.79 647.12 1320.22 644.77 1320.31 644.3C1320.31 644.3 1320.31 644.3 1320.31 644.3C1335.9 646.91 1344.56 648.37 1346.29 648.66C1346.29 648.66 1346.29 648.66 1346.29 648.66C1345.5 652.88 1345.07 655.23 1344.98 655.7Z" id="a1ep0Oy57"></path><path d="M1348.63 633.56C1348.63 633.56 1348.63 633.56 1348.63 633.56C1332.89 631.99 1324.14 631.12 1322.39 630.94C1322.39 630.94 1322.39 630.94 1322.39 630.94C1322.87 626.67 1323.13 624.3 1323.18 623.83C1323.18 623.83 1323.18 623.83 1323.18 623.83C1338.92 625.4 1347.67 626.27 1349.42 626.45C1349.42 626.45 1349.42 626.45 1349.42 626.45C1348.95 630.72 1348.68 633.09 1348.63 633.56Z" id="j994Bnmmc"></path><path d="M1351.01 588.82C1351.01 588.82 1351.01 588.82 1351.01 588.82C1335.19 589.34 1326.4 589.64 1324.64 589.69C1324.64 589.69 1324.64 589.69 1324.64 589.69C1324.48 585.4 1324.4 583.02 1324.38 582.54C1324.38 582.54 1324.38 582.54 1324.38 582.54C1340.2 582.02 1348.99 581.73 1350.74 581.67C1350.74 581.67 1350.74 581.67 1350.74 581.67C1350.9 585.96 1350.99 588.34 1351.01 588.82Z" id="arSKl7jVN"></path><path d="M1349.73 566.42C1349.73 566.42 1349.73 566.42 1349.73 566.42C1333.99 567.99 1325.24 568.86 1323.49 569.04C1323.49 569.04 1323.49 569.04 1323.49 569.04C1323.02 564.77 1322.76 562.4 1322.71 561.92C1322.71 561.92 1322.71 561.92 1322.71 561.92C1338.45 560.35 1347.19 559.48 1348.94 559.3C1348.94 559.3 1348.94 559.3 1348.94 559.3C1349.41 563.57 1349.68 565.94 1349.73 566.42Z" id="bzIIfTA2H"></path><path d="M1344.28 536.39C1344.28 536.39 1344.28 536.39 1344.28 536.39C1328.77 538.94 1320.15 540.37 1318.43 540.65C1318.43 540.65 1318.43 540.65 1318.43 540.65C1317.66 536.44 1317.23 534.11 1317.15 533.64C1317.15 533.64 1317.15 533.64 1317.15 533.64C1332.66 531.08 1341.28 529.66 1343 529.38C1343 529.38 1343 529.38 1343 529.38C1343.77 533.58 1344.2 535.92 1344.28 536.39Z" id="e42swolGT8"></path><path d="M1342.27 522.19C1342.27 522.19 1342.27 522.19 1342.27 522.19C1326.91 525.82 1318.38 527.85 1316.67 528.25C1316.67 528.25 1316.67 528.25 1316.67 528.25C1315.58 524.09 1314.97 521.77 1314.85 521.31C1314.85 521.31 1314.85 521.31 1314.85 521.31C1330.21 517.67 1338.74 515.65 1340.44 515.24C1340.44 515.24 1340.44 515.24 1340.44 515.24C1341.54 519.41 1342.14 521.72 1342.27 522.19Z" id="cHY7WLZM6"></path><path d="M1336.13 500.54C1336.13 500.54 1336.13 500.54 1336.13 500.54C1321.07 505.18 1312.71 507.77 1311.04 508.28C1311.04 508.28 1311.04 508.28 1311.04 508.28C1309.64 504.2 1308.86 501.93 1308.71 501.48C1308.71 501.48 1308.71 501.48 1308.71 501.48C1323.76 496.83 1332.13 494.25 1333.8 493.73C1333.8 493.73 1333.8 493.73 1333.8 493.73C1335.2 497.81 1335.97 500.08 1336.13 500.54Z" id="a4Qsv2Zv2h"></path><path d="M1328.4 479.37C1328.4 479.37 1328.4 479.37 1328.4 479.37C1313.72 485.01 1305.57 488.14 1303.94 488.77C1303.94 488.77 1303.94 488.77 1303.94 488.77C1302.25 484.79 1301.31 482.57 1301.12 482.13C1301.12 482.13 1301.12 482.13 1301.12 482.13C1315.79 476.5 1323.95 473.37 1325.58 472.74C1325.58 472.74 1325.58 472.74 1325.58 472.74C1327.27 476.72 1328.21 478.93 1328.4 479.37Z" id="a17xyVp5HD"></path><path d="M1319.16 458.75C1319.16 458.75 1319.16 458.75 1319.16 458.75C1304.93 465.35 1297.03 469.01 1295.45 469.74C1295.45 469.74 1295.45 469.74 1295.45 469.74C1293.47 465.89 1292.37 463.74 1292.15 463.31C1292.15 463.31 1292.15 463.31 1292.15 463.31C1306.37 456.72 1314.28 453.06 1315.86 452.32C1315.86 452.32 1315.86 452.32 1315.86 452.32C1317.84 456.18 1318.94 458.33 1319.16 458.75Z" id="c2K1EKntwb"></path><path d="M1308.41 438.8C1308.41 438.8 1308.41 438.8 1308.41 438.8C1294.7 446.32 1287.08 450.5 1285.56 451.34C1285.56 451.34 1285.56 451.34 1285.56 451.34C1283.3 447.62 1282.04 445.56 1281.79 445.14C1281.79 445.14 1281.79 445.14 1281.79 445.14C1295.5 437.62 1303.12 433.44 1304.64 432.61C1304.64 432.61 1304.64 432.61 1304.64 432.61C1306.9 436.32 1308.15 438.39 1308.41 438.8Z" id="a4On4JCPSj"></path><path d="M1296.22 419.61C1296.22 419.61 1296.22 419.61 1296.22 419.61C1283.09 428.02 1275.8 432.69 1274.34 433.63C1274.34 433.63 1274.34 433.63 1274.34 433.63C1271.82 430.07 1270.41 428.09 1270.13 427.69C1270.13 427.69 1270.13 427.69 1270.13 427.69C1283.26 419.28 1290.55 414.61 1292.01 413.67C1292.01 413.67 1292.01 413.67 1292.01 413.67C1294.53 417.23 1295.93 419.21 1296.22 419.61Z" id="a2M9xde9pK"></path><path d="M1287.49 405.1C1287.49 405.1 1287.49 405.1 1287.49 405.1C1274.99 414.42 1268.04 419.61 1266.65 420.64C1266.65 420.64 1266.65 420.64 1266.65 420.64C1263.85 417.25 1262.3 415.37 1261.98 414.99C1261.98 414.99 1261.98 414.99 1261.98 414.99C1274.49 405.66 1281.44 400.48 1282.83 399.45C1282.83 399.45 1282.83 399.45 1282.83 399.45C1285.63 402.84 1287.18 404.72 1287.49 405.1Z" id="albaL9NEl"></path><path d="M1267.77 383.88C1267.77 383.88 1267.77 383.88 1267.77 383.88C1256 393.94 1249.47 399.53 1248.16 400.65C1248.16 400.65 1248.16 400.65 1248.16 400.65C1245.14 397.46 1243.46 395.69 1243.12 395.33C1243.12 395.33 1243.12 395.33 1243.12 395.33C1254.89 385.27 1261.42 379.68 1262.73 378.56C1262.73 378.56 1262.73 378.56 1262.73 378.56C1265.75 381.75 1267.43 383.52 1267.77 383.88Z" id="d2BMeIuttt"></path><path d="M1251.66 367.51C1251.66 367.51 1251.66 367.51 1251.66 367.51C1240.66 378.33 1234.55 384.34 1233.33 385.54C1233.33 385.54 1233.33 385.54 1233.33 385.54C1230.08 382.56 1228.28 380.91 1227.91 380.57C1227.91 380.57 1227.91 380.57 1227.91 380.57C1238.91 369.75 1245.02 363.74 1246.24 362.54C1246.24 362.54 1246.24 362.54 1246.24 362.54C1249.49 365.52 1251.3 367.18 1251.66 367.51Z" id="g17p59q8oh"></path><path d="M1234.37 352.24C1234.37 352.24 1234.37 352.24 1234.37 352.24C1224.2 363.76 1218.55 370.16 1217.42 371.44C1217.42 371.44 1217.42 371.44 1217.42 371.44C1213.96 368.68 1212.03 367.15 1211.65 366.84C1211.65 366.84 1211.65 366.84 1211.65 366.84C1221.82 355.32 1227.48 348.92 1228.61 347.64C1228.61 347.64 1228.61 347.64 1228.61 347.64C1232.07 350.4 1233.99 351.93 1234.37 352.24Z" id="az2q6QkuE"></path><path d="M1216.02 338.19C1216.02 338.19 1216.02 338.19 1216.02 338.19C1206.72 350.36 1201.55 357.12 1200.52 358.47C1200.52 358.47 1200.52 358.47 1200.52 358.47C1196.86 355.95 1194.83 354.54 1194.43 354.26C1194.43 354.26 1194.43 354.26 1194.43 354.26C1203.73 342.09 1208.9 335.33 1209.93 333.98C1209.93 333.98 1209.93 333.98 1209.93 333.98C1213.59 336.5 1215.62 337.91 1216.02 338.19Z" id="aXpK9bN0O"></path><path d="M1196.68 325.36C1196.68 325.36 1196.68 325.36 1196.68 325.36C1188.29 338.11 1183.63 345.2 1182.7 346.62C1182.7 346.62 1182.7 346.62 1182.7 346.62C1178.87 344.34 1176.74 343.08 1176.31 342.83C1176.31 342.83 1176.31 342.83 1176.31 342.83C1184.7 330.07 1189.36 322.98 1190.29 321.56C1190.29 321.56 1190.29 321.56 1190.29 321.56C1194.12 323.84 1196.25 325.1 1196.68 325.36Z" id="alOxBAxc"></path><path d="M1176.43 313.84C1176.43 313.84 1176.43 313.84 1176.43 313.84C1169 327.12 1164.87 334.5 1164.05 335.97C1164.05 335.97 1164.05 335.97 1164.05 335.97C1160.06 333.96 1157.84 332.84 1157.4 332.61C1157.4 332.61 1157.4 332.61 1157.4 332.61C1164.83 319.33 1168.96 311.95 1169.78 310.48C1169.78 310.48 1169.78 310.48 1169.78 310.48C1173.77 312.49 1175.99 313.61 1176.43 313.84Z" id="a3aivoWnz"></path><path d="M1155.41 303.71C1155.41 303.71 1155.41 303.71 1155.41 303.71C1148.98 317.46 1145.4 325.09 1144.68 326.62C1144.68 326.62 1144.68 326.62 1144.68 326.62C1140.56 324.87 1138.26 323.9 1137.81 323.71C1137.81 323.71 1137.81 323.71 1137.81 323.71C1144.24 309.97 1147.82 302.33 1148.54 300.8C1148.54 300.8 1148.54 300.8 1148.54 300.8C1152.66 302.55 1154.95 303.52 1155.41 303.71Z" id="e26levdzqQ"></path><path d="M1133.67 294.99C1133.67 294.99 1133.67 294.99 1133.67 294.99C1128.26 309.12 1125.25 316.97 1124.65 318.55C1124.65 318.55 1124.65 318.55 1124.65 318.55C1120.41 317.08 1118.05 316.26 1117.58 316.1C1117.58 316.1 1117.58 316.1 1117.58 316.1C1122.99 301.96 1126 294.11 1126.6 292.54C1126.6 292.54 1126.6 292.54 1126.6 292.54C1130.84 294.01 1133.2 294.82 1133.67 294.99Z" id="c86NGh1Fj"></path><path d="M1111.36 287.72C1111.36 287.72 1111.36 287.72 1111.36 287.72C1107 302.18 1104.58 310.21 1104.09 311.82C1104.09 311.82 1104.09 311.82 1104.09 311.82C1099.75 310.63 1097.34 309.98 1096.86 309.84C1096.86 309.84 1096.86 309.84 1096.86 309.84C1101.22 295.38 1103.64 287.35 1104.13 285.74C1104.13 285.74 1104.13 285.74 1104.13 285.74C1108.47 286.93 1110.88 287.58 1111.36 287.72Z" id="a1K0vrN4Yq"></path><path d="M1088.55 281.95C1088.55 281.95 1088.55 281.95 1088.55 281.95C1085.26 296.67 1083.43 304.84 1083.07 306.48C1083.07 306.48 1083.07 306.48 1083.07 306.48C1078.65 305.59 1076.19 305.09 1075.7 304.99C1075.7 304.99 1075.7 304.99 1075.7 304.99C1078.99 290.28 1080.82 282.1 1081.19 280.47C1081.19 280.47 1081.19 280.47 1081.19 280.47C1085.61 281.36 1088.06 281.86 1088.55 281.95Z" id="a2stvqR32I"></path><path d="M1065.39 277.73C1065.39 277.73 1065.39 277.73 1065.39 277.73C1063.19 292.62 1061.97 300.9 1061.72 302.55C1061.72 302.55 1061.72 302.55 1061.72 302.55C1057.25 301.96 1054.76 301.62 1054.26 301.56C1054.26 301.56 1054.26 301.56 1054.26 301.56C1056.47 286.66 1057.69 278.38 1057.94 276.73C1057.94 276.73 1057.94 276.73 1057.94 276.73C1062.41 277.33 1064.89 277.66 1065.39 277.73Z" id="ctRwGKC20"></path><path d="M1041.97 275.03C1041.97 275.03 1041.97 275.03 1041.97 275.03C1040.87 290.04 1040.25 298.37 1040.13 300.04C1040.13 300.04 1040.13 300.04 1040.13 300.04C1035.63 299.74 1033.12 299.57 1032.62 299.54C1032.62 299.54 1032.62 299.54 1032.62 299.54C1033.73 284.53 1034.34 276.2 1034.46 274.53C1034.46 274.53 1034.46 274.53 1034.46 274.53C1038.97 274.83 1041.47 275 1041.97 275.03Z" id="a1lwZyYhtL"></path><path d="M993.84 260.93C993.84 260.93 993.84 260.93 993.84 260.93C995.54 284.02 996.48 296.84 996.67 299.41C996.67 299.41 996.67 299.41 996.67 299.41C992.17 299.71 989.66 299.88 989.16 299.91C989.16 299.91 989.16 299.91 989.16 299.91C987.46 276.82 986.52 264 986.33 261.43C986.33 261.43 986.33 261.43 986.33 261.43C990.84 261.13 993.34 260.97 993.84 260.93Z" id="c5dCH7vE1s"></path><path d="M755.1 368.19C755.1 368.19 755.1 368.19 755.1 368.19C773.2 383.67 783.26 392.28 785.27 394C785.27 394 785.27 394 785.27 394C782.24 397.19 780.56 398.96 780.23 399.32C780.23 399.32 780.23 399.32 780.23 399.32C762.13 383.83 752.08 375.23 750.07 373.51C750.07 373.51 750.07 373.51 750.07 373.51C753.09 370.32 754.77 368.54 755.1 368.19Z" id="c46yC1jEuf"></path><path d="M661.79 602.97C661.79 602.97 661.79 602.97 661.79 602.97C686.12 602.16 699.64 601.71 702.35 601.62C702.35 601.62 702.35 601.62 702.35 601.62C702.51 605.91 702.59 608.3 702.61 608.77C702.61 608.77 702.61 608.77 702.61 608.77C678.27 609.58 664.75 610.03 662.05 610.12C662.05 610.12 662.05 610.12 662.05 610.12C661.89 605.83 661.8 603.44 661.79 602.97Z" id="a2SUliLcmJ"></path><path d="M766.25 833.44C766.25 833.44 766.25 833.44 766.25 833.44C783.17 816.79 792.57 807.54 794.44 805.69C794.44 805.69 794.44 805.69 794.44 805.69C797.69 808.68 799.5 810.33 799.86 810.66C799.86 810.66 799.86 810.66 799.86 810.66C782.94 827.31 773.55 836.56 771.67 838.41C771.67 838.41 771.67 838.41 771.67 838.41C768.42 835.43 766.61 833.77 766.25 833.44Z" id="kowVS3kwW"></path><path d="M1009.88 930.27C1009.88 930.27 1009.88 930.27 1009.88 930.27C1009.88 907.13 1009.88 894.27 1009.88 891.7C1009.88 891.7 1009.88 891.7 1009.88 891.7C1014.39 891.7 1016.9 891.7 1017.41 891.7C1017.41 891.7 1017.41 891.7 1017.41 891.7C1017.41 914.84 1017.41 927.7 1017.41 930.27C1017.41 930.27 1017.41 930.27 1017.41 930.27C1012.89 930.27 1010.38 930.27 1009.88 930.27Z" id="c2H1TbYceK"></path><path d="M1255.9 839.1C1255.9 839.1 1255.9 839.1 1255.9 839.1C1238.98 822.45 1229.59 813.2 1227.71 811.35C1227.71 811.35 1227.71 811.35 1227.71 811.35C1230.96 808.37 1232.76 806.71 1233.12 806.38C1233.12 806.38 1233.12 806.38 1233.12 806.38C1250.04 823.03 1259.44 832.28 1261.32 834.12C1261.32 834.12 1261.32 834.12 1261.32 834.12C1258.07 837.11 1256.26 838.76 1255.9 839.1Z" id="b5RV1e0pAr"></path><path d="M1366.21 611.09C1366.21 611.09 1366.21 611.09 1366.21 611.09C1341.87 610.28 1328.35 609.83 1325.65 609.74C1325.65 609.74 1325.65 609.74 1325.65 609.74C1325.8 605.45 1325.89 603.07 1325.91 602.59C1325.91 602.59 1325.91 602.59 1325.91 602.59C1350.25 603.4 1363.77 603.85 1366.47 603.94C1366.47 603.94 1366.47 603.94 1366.47 603.94C1366.31 608.23 1366.23 610.61 1366.21 611.09Z" id="a6xGvejv18"></path><path d="M1278.93 374.24C1278.93 374.24 1278.93 374.24 1278.93 374.24C1260.83 389.73 1250.78 398.33 1248.77 400.05C1248.77 400.05 1248.77 400.05 1248.77 400.05C1245.75 396.86 1244.07 395.09 1243.73 394.74C1243.73 394.74 1243.73 394.74 1243.73 394.74C1261.83 379.25 1271.88 370.65 1273.89 368.93C1273.89 368.93 1273.89 368.93 1273.89 368.93C1276.92 372.12 1278.6 373.89 1278.93 374.24Z" id="a3Oyyyl9ND"></path><path d="M992.34 144.68L986.91 106.11L1061.34 106.11L1053.22 144.68L1053.22 144.68L992.34 144.68Z" id="aJCd5jfFL"></path><path d="M894.29 158.63L880.53 121.98L953.32 107.27L953.83 146.61L953.83 146.61L894.29 158.63Z" id="afklE5Lqw"></path><path d="M801.4 191.66L779.93 158.51L847.94 129.76L857.03 168.12L857.03 168.12L801.4 191.66Z" id="e2T2M2TpPq"></path><path d="M717.8 242.31L689.55 214.13L749.76 172.55L767.05 208.31L767.05 208.31L717.8 242.31Z" id="arSJF1JO2"></path><path d="M647.09 308.38L613.28 286.4L663.08 233.84L687.82 265.37L687.82 265.37L647.09 308.38Z" id="a1ArOrMobC"></path><path d="M592.38 386.97L554.52 372.14L591.73 310.89L622.82 336.87L622.82 336.87L592.38 386.97Z" id="a1XUZbHiIO"></path><path d="M556.06 474.64L515.78 467.64L538.79 400.37L574.87 419.62L574.87 419.62L556.06 474.64Z" id="b3vf45YaZz"></path><path d="M539.72 567.6L498.79 568.7L506.56 498.35L546.07 510.05L546.07 510.05L539.72 567.6Z" id="d3AHjTNMC"></path><path d="M544.06 661.73L504.27 670.89L496.5 600.56L537.69 604.2L537.69 604.2L544.06 661.73Z" id="b1gdWBYny4"></path><path d="M568.92 752.96L531.99 769.79L509 702.52L550.09 697.93L550.09 697.93L568.92 752.96Z" id="aaaXsNgbv"></path><path d="M613.18 837.29L580.75 861.03L543.54 799.78L582.74 787.19L582.74 787.19L613.18 837.29Z" id="b28IDuL2s0"></path><path d="M674.92 911.02L648.39 940.66L598.59 888.11L634.19 868.01L634.19 868.01L674.92 911.02Z" id="a7Kft91d5"></path><path d="M751.46 970.94L731.98 1005.17L671.77 963.61L702.19 936.94L702.19 936.94L751.46 970.94Z" id="b4vzo8gmm"></path><path d="M839.41 1014.43L827.87 1051.77L759.88 1022.99L783.79 990.9L783.79 990.9L839.41 1014.43Z" id="b1IYwtD746"></path><path d="M934.97 1039.6L931.85 1078.4L859.04 1063.69L875.41 1027.56L875.41 1027.56L934.97 1039.6Z" id="c3A7kjq5jl"></path><path d="M1033.95 1045.33L1039.38 1083.9L964.95 1083.9L973.07 1045.33L973.07 1045.33L1033.95 1045.33Z" id="c1w8RWtWQA"></path><path d="M1132 1031.38L1145.76 1068.03L1072.97 1082.74L1072.46 1043.4L1072.46 1043.4L1132 1031.38Z" id="b17DzsgtpU"></path><path d="M1224.89 998.35L1246.36 1031.5L1178.35 1060.25L1169.26 1021.89L1169.26 1021.89L1224.89 998.35Z" id="a42xxd10uF"></path><path d="M1308.49 947.7L1336.74 975.88L1276.53 1017.46L1259.24 981.7L1259.24 981.7L1308.49 947.7Z" id="c2NhmLXh8"></path><path d="M1379.2 881.65L1413 903.62L1363.2 956.17L1338.47 924.64L1338.47 924.64L1379.2 881.65Z" id="h7HP4Mz8V"></path><path d="M1433.91 803.04L1471.77 817.87L1434.56 879.12L1403.47 853.14L1403.47 853.14L1433.91 803.04Z" id="b25EG8Pf0W"></path><path d="M1470.23 715.37L1510.51 722.37L1487.5 789.64L1451.42 770.39L1451.42 770.39L1470.23 715.37Z" id="aUlReVmje"></path><path d="M1486.57 622.41L1527.5 621.31L1519.73 691.67L1480.22 679.96L1480.22 679.96L1486.57 622.41Z" id="a2pXIL4Srj"></path><path d="M1482.23 528.28L1522.02 519.12L1529.79 589.45L1488.58 585.81L1488.58 585.81L1482.23 528.28Z" id="azB8o2sbP"></path><path d="M1457.37 437.06L1494.3 420.22L1517.29 487.49L1476.18 492.08L1476.18 492.08L1457.37 437.06Z" id="hhSXsXLxT"></path><path d="M1413.11 352.72L1445.53 328.98L1482.75 390.23L1443.55 402.82L1443.55 402.82L1413.11 352.72Z" id="cciHo7JKI"></path><path d="M1351.37 278.99L1377.9 249.35L1427.7 301.92L1392.1 322L1392.1 322L1351.37 278.99Z" id="c371U5EwlD"></path><path d="M1274.85 219.07L1294.31 184.84L1354.52 226.4L1324.1 253.07L1324.1 253.07L1274.85 219.07Z" id="a19gRUfyKL"></path><path d="M1186.88 175.58L1198.42 138.24L1266.41 167.02L1242.5 199.11L1242.5 199.11L1186.88 175.58Z" id="aDqdApiNB"></path><path d="M1091.31 150.41L1094.44 111.61L1167.25 126.32L1150.88 162.45L1150.88 162.45L1091.31 150.41Z" id="bxXvkF7E0"></path><path d="M1141.93 925.76C995.16 975.55 827.05 932.89 725.69 820.59C676.13 765.6 645.08 697.75 636.56 625.8C627.9 551.61 651.42 474.18 693.28 411.58C776.87 286.59 936.54 221.83 1089.37 250.99C1239.4 279.63 1359.73 395.63 1387.68 538.63C1391.63 558.17 1393.74 578 1393.97 597.9C1393.97 599.15 1394.11 604.61 1394.09 604.63C1395.17 601.52 1394.09 595.97 1394.09 592.77C1393.81 517.71 1373.05 445.17 1328.36 382.77C1283.99 320.95 1220.62 273.64 1146.92 247.3C993.7 192.96 816.58 240.46 715.48 362.38C666.41 421.81 638.12 494.33 634.57 569.8C631.12 644.01 644.27 716.81 682.99 782.08C763.03 917.02 929.43 989.4 1089.37 958.97C1247.23 928.84 1371.02 802.33 1391.09 650.47C1393.23 633.02 1394.25 615.47 1394.15 597.9C1394.45 593.95 1394.45 589.99 1394.15 586.04C1394.15 586.46 1393.99 591.28 1393.99 592.77C1393.4 740.61 1287.29 876.5 1141.93 925.76Z" id="a26kyqLLbs"></path></defs><g><g><use xlink:href="#cqhKjWIZB" opacity="1" fill="#000000" fill-opacity="1"></use><g><use xlink:href="#cqhKjWIZB" opacity="1" fill-opacity="0" stroke="#000000" stroke-width="1" stroke-opacity="0"></use></g></g><g><use xlink:href="#dbhayqTCU" opacity="1" fill="#000000" fill-opacity="0"></use><g><use xlink:href="#dbhayqTCU" opacity="1" fill-opacity="0" stroke="#ffffff" stroke-width="1" stroke-opacity="1"></use></g></g><g><use xlink:href="#c58GgX5TX" opacity="1" fill="#000000" fill-opacity="0"></use><g><use xlink:href="#c58GgX5TX" opacity="1" fill-opacity="0" stroke="#ffffff" stroke-width="1" stroke-opacity="1"></use></g></g><g><use xlink:href="#aeV6wYpy5" opacity="1" fill="#000000" fill-opacity="0"></use><g><use xlink:href="#aeV6wYpy5" opacity="1" fill-opacity="0" stroke="#ffffff" stroke-width="1" stroke-opacity="1"></use></g></g><g><use xlink:href="#bUy87ict4" opacity="1" fill="#000000" fill-opacity="0"></use><g><use xlink:href="#bUy87ict4" opacity="1" fill-opacity="0" stroke="#ffffff" stroke-width="1" stroke-opacity="1"></use></g></g><g><use xlink:href="#f7z3K4Mlj" opacity="1" fill="#000000" fill-opacity="0"></use><g><use xlink:href="#f7z3K4Mlj" opacity="1" fill-opacity="0" stroke="#ffffff" stroke-width="1" stroke-opacity="1"></use></g></g><g><use xlink:href="#a1qvt3yQXz" opacity="1" fill="#000000" fill-opacity="0"></use><g><use xlink:href="#a1qvt3yQXz" opacity="1" fill-opacity="0" stroke="#ffffff" stroke-width="1" stroke-opacity="1"></use></g></g><g><use xlink:href="#a14q8M2wFY" opacity="1" fill="#000000" fill-opacity="0"></use><g><use xlink:href="#a14q8M2wFY" opacity="1" fill-opacity="0" stroke="#ffffff" stroke-width="1" stroke-opacity="1"></use></g></g><g><use xlink:href="#aDRKpI9Rd" opacity="1" fill="#000000" fill-opacity="0"></use><g><use xlink:href="#aDRKpI9Rd" opacity="1" fill-opacity="0" stroke="#ffffff" stroke-width="1" stroke-opacity="1"></use></g></g><g><use xlink:href="#d1bgxRALxF" opacity="1" fill="#000000" fill-opacity="1"></use><g><use xlink:href="#d1bgxRALxF" opacity="1" fill-opacity="0" stroke="#000000" stroke-width="1" stroke-opacity="0"></use></g></g><g><use xlink:href="#a1wl7AFMx1" opacity="1" fill="#000000" fill-opacity="1"></use><g><use xlink:href="#a1wl7AFMx1" opacity="1" fill-opacity="0" stroke="#000000" stroke-width="1" stroke-opacity="0"></use></g></g><g><use xlink:href="#a1W7GOpGQR" opacity="1" fill="#f9f9f9" fill-opacity="1"></use><g><use xlink:href="#a1W7GOpGQR" opacity="1" fill-opacity="0" stroke="#000000" stroke-width="1" stroke-opacity="0"></use></g></g><path></path><g><use xlink:href="#d2K0HzBxt" opacity="1" fill="#000000" fill-opacity="0"></use><g><use xlink:href="#d2K0HzBxt" opacity="1" fill-opacity="0" stroke="#000000" stroke-width="6" stroke-opacity="1"></use></g></g><g><use xlink:href="#f15WFHVRYJ" opacity="1" fill="#ffffff" fill-opacity="1"></use><g><use xlink:href="#f15WFHVRYJ" opacity="1" fill-opacity="0" stroke="#000000" stroke-width="1" stroke-opacity="0"></use></g></g><g><use xlink:href="#j4GZ2pRNW5" opacity="1" fill="#f9f9f9" fill-opacity="1"></use><g><use xlink:href="#j4GZ2pRNW5" opacity="1" fill-opacity="0" stroke="#000000" stroke-width="1" stroke-opacity="0"></use></g></g><g><use xlink:href="#d2hO4otn3X" opacity="1" fill="#ffffff" fill-opacity="1"></use><g><use xlink:href="#d2hO4otn3X" opacity="1" fill-opacity="0" stroke="#000000" stroke-width="1" stroke-opacity="0"></use></g></g><g><use xlink:href="#aYLsGEi5P" opacity="1" fill="#f9f9f9" fill-opacity="1"></use><g><use xlink:href="#aYLsGEi5P" opacity="1" fill-opacity="0" stroke="#000000" stroke-width="1" stroke-opacity="0"></use></g></g><g><use xlink:href="#h1FlFFeKwi" opacity="1" fill="#ffffff" fill-opacity="1"></use><g><use xlink:href="#h1FlFFeKwi" opacity="1" fill-opacity="0" stroke="#000000" stroke-width="1" stroke-opacity="0"></use></g></g><g><use xlink:href="#f3fbtC61Xq" opacity="1" fill="#f9f9f9" fill-opacity="1"></use><g><use xlink:href="#f3fbtC61Xq" opacity="1" fill-opacity="0" stroke="#000000" stroke-width="1" stroke-opacity="0"></use></g></g><g><use xlink:href="#b18iBLEAtW" opacity="1" fill="#ffffff" fill-opacity="1"></use><g><use xlink:href="#b18iBLEAtW" opacity="1" fill-opacity="0" stroke="#000000" stroke-width="1" stroke-opacity="0"></use></g></g><g><use xlink:href="#pvk31YOfR" opacity="1" fill="#f9f9f9" fill-opacity="1"></use><g><use xlink:href="#pvk31YOfR" opacity="1" fill-opacity="0" stroke="#000000" stroke-width="1" stroke-opacity="0"></use></g></g><g><use xlink:href="#jf5ExqNqj" opacity="1" fill="#ffffff" fill-opacity="1"></use><g><use xlink:href="#jf5ExqNqj" opacity="1" fill-opacity="0" stroke="#000000" stroke-width="1" stroke-opacity="0"></use></g></g><g><use xlink:href="#b1e13H09N" opacity="1" fill="#f9f9f9" fill-opacity="1"></use><g><use xlink:href="#b1e13H09N" opacity="1" fill-opacity="0" stroke="#000000" stroke-width="1" stroke-opacity="0"></use></g></g><g><use xlink:href="#a5b5F5Hdy3" opacity="1" fill="#ffffff" fill-opacity="1"></use><g><use xlink:href="#a5b5F5Hdy3" opacity="1" fill-opacity="0" stroke="#000000" stroke-width="1" stroke-opacity="0"></use></g></g><g><use xlink:href="#b4aYzGXlrg" opacity="1" fill="#f9f9f9" fill-opacity="1"></use><g><use xlink:href="#b4aYzGXlrg" opacity="1" fill-opacity="0" stroke="#000000" stroke-width="1" stroke-opacity="0"></use></g></g><g><use xlink:href="#d9sYNSYOl" opacity="1" fill="#ffffff" fill-opacity="1"></use><g><use xlink:href="#d9sYNSYOl" opacity="1" fill-opacity="0" stroke="#000000" stroke-width="1" stroke-opacity="0"></use></g></g><g><use xlink:href="#b2NokaWw6F" opacity="1" fill="#f9f9f9" fill-opacity="1"></use><g><use xlink:href="#b2NokaWw6F" opacity="1" fill-opacity="0" stroke="#000000" stroke-width="1" stroke-opacity="0"></use></g></g><g><use xlink:href="#aWbZJnTLg" opacity="1" fill="#ffffff" fill-opacity="1"></use><g><use xlink:href="#aWbZJnTLg" opacity="1" fill-opacity="0" stroke="#000000" stroke-width="1" stroke-opacity="0"></use></g></g><g><use xlink:href="#bcjqS1bkq" opacity="1" fill="#f9f9f9" fill-opacity="1"></use><g><use xlink:href="#bcjqS1bkq" opacity="1" fill-opacity="0" stroke="#000000" stroke-width="1" stroke-opacity="0"></use></g></g><g><use xlink:href="#a74VZBiFR" opacity="1" fill="#ffffff" fill-opacity="1"></use><g><use xlink:href="#a74VZBiFR" opacity="1" fill-opacity="0" stroke="#000000" stroke-width="1" stroke-opacity="0"></use></g></g><g><use xlink:href="#a1RX9pfkS" opacity="1" fill="#f9f9f9" fill-opacity="1"></use><g><use xlink:href="#a1RX9pfkS" opacity="1" fill-opacity="0" stroke="#000000" stroke-width="1" stroke-opacity="0"></use></g></g><g><use xlink:href="#isOoxcBum" opacity="1" fill="#ffffff" fill-opacity="1"></use><g><use xlink:href="#isOoxcBum" opacity="1" fill-opacity="0" stroke="#000000" stroke-width="1" stroke-opacity="0"></use></g></g><g><use xlink:href="#c6BAAVp3b" opacity="1" fill="#f9f9f9" fill-opacity="1"></use><g><use xlink:href="#c6BAAVp3b" opacity="1" fill-opacity="0" stroke="#000000" stroke-width="1" stroke-opacity="0"></use></g></g><g><use xlink:href="#a5yeXSIwM" opacity="1" fill="#ffffff" fill-opacity="1"></use><g><use xlink:href="#a5yeXSIwM" opacity="1" fill-opacity="0" stroke="#000000" stroke-width="1" stroke-opacity="0"></use></g></g><g><use xlink:href="#j61Hwy0A8" opacity="1" fill="#f9f9f9" fill-opacity="1"></use><g><use xlink:href="#j61Hwy0A8" opacity="1" fill-opacity="0" stroke="#000000" stroke-width="1" stroke-opacity="0"></use></g></g><g><use xlink:href="#b2uhfXnhZf" opacity="1" fill="#ffffff" fill-opacity="1"></use><g><use xlink:href="#b2uhfXnhZf" opacity="1" fill-opacity="0" stroke="#000000" stroke-width="1" stroke-opacity="0"></use></g></g><g><use xlink:href="#dcDQeTR38" opacity="1" fill="#f9f9f9" fill-opacity="1"></use><g><use xlink:href="#dcDQeTR38" opacity="1" fill-opacity="0" stroke="#000000" stroke-width="1" stroke-opacity="0"></use></g></g><g><use xlink:href="#cb5ovEC5r" opacity="1" fill="#ffffff" fill-opacity="1"></use><g><use xlink:href="#cb5ovEC5r" opacity="1" fill-opacity="0" stroke="#000000" stroke-width="1" stroke-opacity="0"></use></g></g><g><use xlink:href="#g6mNtxFKg" opacity="1" fill="#f9f9f9" fill-opacity="1"></use><g><use xlink:href="#g6mNtxFKg" opacity="1" fill-opacity="0" stroke="#000000" stroke-width="1" stroke-opacity="0"></use></g></g><g><use xlink:href="#jk0WJdVY9" opacity="1" fill="#ffffff" fill-opacity="1"></use><g><use xlink:href="#jk0WJdVY9" opacity="1" fill-opacity="0" stroke="#000000" stroke-width="1" stroke-opacity="0"></use></g></g><g><use xlink:href="#b2Qes05SF2" opacity="1" fill="#f9f9f9" fill-opacity="1"></use><g><use xlink:href="#b2Qes05SF2" opacity="1" fill-opacity="0" stroke="#000000" stroke-width="1" stroke-opacity="0"></use></g></g><g><use xlink:href="#by9UOgxrz" opacity="1" fill="#ffffff" fill-opacity="1"></use><g><use xlink:href="#by9UOgxrz" opacity="1" fill-opacity="0" stroke="#000000" stroke-width="1" stroke-opacity="0"></use></g></g><g><use xlink:href="#e2CpBigxM5" opacity="1" fill="#f9f9f9" fill-opacity="1"></use><g><use xlink:href="#e2CpBigxM5" opacity="1" fill-opacity="0" stroke="#000000" stroke-width="1" stroke-opacity="0"></use></g></g><g><use xlink:href="#e57OqreAIj" opacity="1" fill="#ffffff" fill-opacity="1"></use><g><use xlink:href="#e57OqreAIj" opacity="1" fill-opacity="0" stroke="#000000" stroke-width="1" stroke-opacity="0"></use></g></g><g><use xlink:href="#d4xBT5CtA" opacity="1" fill="#f9f9f9" fill-opacity="1"></use><g><use xlink:href="#d4xBT5CtA" opacity="1" fill-opacity="0" stroke="#000000" stroke-width="1" stroke-opacity="0"></use></g></g><g><use xlink:href="#e1aB1XZKHX" opacity="1" fill="#ffffff" fill-opacity="1"></use><g><use xlink:href="#e1aB1XZKHX" opacity="1" fill-opacity="0" stroke="#000000" stroke-width="1" stroke-opacity="0"></use></g></g><g><use xlink:href="#c1e8FuEcAA" opacity="1" fill="#f9f9f9" fill-opacity="1"></use><g><use xlink:href="#c1e8FuEcAA" opacity="1" fill-opacity="0" stroke="#000000" stroke-width="1" stroke-opacity="0"></use></g></g><g><use xlink:href="#kMIL0hb6I" opacity="1" fill="#ffffff" fill-opacity="1"></use><g><use xlink:href="#kMIL0hb6I" opacity="1" fill-opacity="0" stroke="#000000" stroke-width="1" stroke-opacity="0"></use></g></g><g><use xlink:href="#b2PkaVDsWu" opacity="1" fill="#f9f9f9" fill-opacity="1"></use><g><use xlink:href="#b2PkaVDsWu" opacity="1" fill-opacity="0" stroke="#000000" stroke-width="1" stroke-opacity="0"></use></g></g><g><use xlink:href="#br6tsEX51" opacity="1" fill="#ffffff" fill-opacity="1"></use><g><use xlink:href="#br6tsEX51" opacity="1" fill-opacity="0" stroke="#000000" stroke-width="1" stroke-opacity="0"></use></g></g><g><use xlink:href="#d3OeU85kO" opacity="1" fill="#f9f9f9" fill-opacity="1"></use><g><use xlink:href="#d3OeU85kO" opacity="1" fill-opacity="0" stroke="#000000" stroke-width="1" stroke-opacity="0"></use></g></g><g><use xlink:href="#b12DoinSCI" opacity="1" fill="#ffffff" fill-opacity="1"></use><g><use xlink:href="#b12DoinSCI" opacity="1" fill-opacity="0" stroke="#000000" stroke-width="1" stroke-opacity="0"></use></g></g><g><use xlink:href="#dmy9gjkPm" opacity="1" fill="#f9f9f9" fill-opacity="1"></use><g><use xlink:href="#dmy9gjkPm" opacity="1" fill-opacity="0" stroke="#000000" stroke-width="1" stroke-opacity="0"></use></g></g><g><use xlink:href="#fEPoqTJkg" opacity="1" fill="#ffffff" fill-opacity="1"></use><g><use xlink:href="#fEPoqTJkg" opacity="1" fill-opacity="0" stroke="#000000" stroke-width="1" stroke-opacity="0"></use></g></g><g><use xlink:href="#b19iEOS5LM" opacity="1" fill="#f9f9f9" fill-opacity="1"></use><g><use xlink:href="#b19iEOS5LM" opacity="1" fill-opacity="0" stroke="#000000" stroke-width="1" stroke-opacity="0"></use></g></g><g><use xlink:href="#cyOLZQrX6" opacity="1" fill="#ffffff" fill-opacity="1"></use><g><use xlink:href="#cyOLZQrX6" opacity="1" fill-opacity="0" stroke="#000000" stroke-width="1" stroke-opacity="0"></use></g></g><g><use xlink:href="#bscHLvI7H" opacity="1" fill="#f9f9f9" fill-opacity="1"></use><g><use xlink:href="#bscHLvI7H" opacity="1" fill-opacity="0" stroke="#000000" stroke-width="1" stroke-opacity="0"></use></g></g><g><use xlink:href="#aEZ0RXxZV" opacity="1" fill="#ffffff" fill-opacity="1"></use><g><use xlink:href="#aEZ0RXxZV" opacity="1" fill-opacity="0" stroke="#000000" stroke-width="1" stroke-opacity="0"></use></g></g><g><use xlink:href="#b1UA31tyfT" opacity="1" fill="#f9f9f9" fill-opacity="1"></use><g><use xlink:href="#b1UA31tyfT" opacity="1" fill-opacity="0" stroke="#000000" stroke-width="1" stroke-opacity="0"></use></g></g><g><use xlink:href="#b2zvrZATY" opacity="1" fill="#ffffff" fill-opacity="1"></use><g><use xlink:href="#b2zvrZATY" opacity="1" fill-opacity="0" stroke="#000000" stroke-width="1" stroke-opacity="0"></use></g></g><g><use xlink:href="#aYA0RdAe" opacity="1" fill="#f9f9f9" fill-opacity="1"></use><g><use xlink:href="#aYA0RdAe" opacity="1" fill-opacity="0" stroke="#000000" stroke-width="1" stroke-opacity="0"></use></g></g><g><use xlink:href="#a27GQyFeb" opacity="1" fill="#ffffff" fill-opacity="1"></use><g><use xlink:href="#a27GQyFeb" opacity="1" fill-opacity="0" stroke="#000000" stroke-width="1" stroke-opacity="0"></use></g></g><g><use xlink:href="#b1uJTSCEqz" opacity="1" fill="#f9f9f9" fill-opacity="1"></use><g><use xlink:href="#b1uJTSCEqz" opacity="1" fill-opacity="0" stroke="#000000" stroke-width="1" stroke-opacity="0"></use></g></g><g><use xlink:href="#di1xr6bkU" opacity="1" fill="#ffffff" fill-opacity="1"></use><g><use xlink:href="#di1xr6bkU" opacity="1" fill-opacity="0" stroke="#000000" stroke-width="1" stroke-opacity="0"></use></g></g><g><use xlink:href="#b3NT5E5oLh" opacity="1" fill="#f9f9f9" fill-opacity="1"></use><g><use xlink:href="#b3NT5E5oLh" opacity="1" fill-opacity="0" stroke="#000000" stroke-width="1" stroke-opacity="0"></use></g></g><g><use xlink:href="#a1K2a4lqh0" opacity="1" fill="#ffffff" fill-opacity="1"></use><g><use xlink:href="#a1K2a4lqh0" opacity="1" fill-opacity="0" stroke="#000000" stroke-width="1" stroke-opacity="0"></use></g></g><g><use xlink:href="#e16YbiAfyo" opacity="1" fill="#f9f9f9" fill-opacity="1"></use><g><use xlink:href="#e16YbiAfyo" opacity="1" fill-opacity="0" stroke="#000000" stroke-width="1" stroke-opacity="0"></use></g></g><g><use xlink:href="#a33kj91gn" opacity="1" fill="#ffffff" fill-opacity="1"></use><g><use xlink:href="#a33kj91gn" opacity="1" fill-opacity="0" stroke="#000000" stroke-width="1" stroke-opacity="0"></use></g></g><g><use xlink:href="#a4vCybVZC" opacity="1" fill="#f9f9f9" fill-opacity="1"></use><g><use xlink:href="#a4vCybVZC" opacity="1" fill-opacity="0" stroke="#000000" stroke-width="1" stroke-opacity="0"></use></g></g><g><use xlink:href="#a1CwSHDa8Y" opacity="1" fill="#ffffff" fill-opacity="1"></use><g><use xlink:href="#a1CwSHDa8Y" opacity="1" fill-opacity="0" stroke="#000000" stroke-width="1" stroke-opacity="0"></use></g></g><g><use xlink:href="#c4ASXO3pOj" opacity="1" fill="#f9f9f9" fill-opacity="1"></use><g><use xlink:href="#c4ASXO3pOj" opacity="1" fill-opacity="0" stroke="#000000" stroke-width="1" stroke-opacity="0"></use></g></g><g><use xlink:href="#c6VRQNrQJW" opacity="1" fill="#ffffff" fill-opacity="1"></use><g><use xlink:href="#c6VRQNrQJW" opacity="1" fill-opacity="0" stroke="#000000" stroke-width="1" stroke-opacity="0"></use></g></g><g><use xlink:href="#bKdcX8nyd" opacity="1" fill="#f9f9f9" fill-opacity="1"></use><g><use xlink:href="#bKdcX8nyd" opacity="1" fill-opacity="0" stroke="#000000" stroke-width="1" stroke-opacity="0"></use></g></g><g><use xlink:href="#d1IlRlAHxc" opacity="1" fill="#ffffff" fill-opacity="1"></use><g><use xlink:href="#d1IlRlAHxc" opacity="1" fill-opacity="0" stroke="#000000" stroke-width="1" stroke-opacity="0"></use></g></g><g><use xlink:href="#a5kjfihxcq" opacity="1" fill="#ffffff" fill-opacity="1"></use><g><use xlink:href="#a5kjfihxcq" opacity="1" fill-opacity="0" stroke="#000000" stroke-width="1" stroke-opacity="0"></use></g></g><g><use xlink:href="#a23Q4eioPb" opacity="1" fill="#ffffff" fill-opacity="1"></use><g><use xlink:href="#a23Q4eioPb" opacity="1" fill-opacity="0" stroke="#000000" stroke-width="1" stroke-opacity="0"></use></g></g><g><use xlink:href="#a2lBBiwzSd" opacity="1" fill="#ffffff" fill-opacity="1"></use><g><use xlink:href="#a2lBBiwzSd" opacity="1" fill-opacity="0" stroke="#000000" stroke-width="1" stroke-opacity="0"></use></g></g><g><use xlink:href="#a3av3RQz0" opacity="1" fill="#ffffff" fill-opacity="1"></use><g><use xlink:href="#a3av3RQz0" opacity="1" fill-opacity="0" stroke="#000000" stroke-width="1" stroke-opacity="0"></use></g></g><g><use xlink:href="#d4o92QybY" opacity="1" fill="#ffffff" fill-opacity="1"></use><g><use xlink:href="#d4o92QybY" opacity="1" fill-opacity="0" stroke="#000000" stroke-width="1" stroke-opacity="0"></use></g></g><g><use xlink:href="#b32lUaWw3q" opacity="1" fill="#ffffff" fill-opacity="1"></use><g><use xlink:href="#b32lUaWw3q" opacity="1" fill-opacity="0" stroke="#000000" stroke-width="1" stroke-opacity="0"></use></g></g><g><use xlink:href="#aj66NMo93" opacity="1" fill="#ffffff" fill-opacity="1"></use><g><use xlink:href="#aj66NMo93" opacity="1" fill-opacity="0" stroke="#000000" stroke-width="1" stroke-opacity="0"></use></g></g><g><use xlink:href="#f24beFhB7K" opacity="1" fill="#ffffff" fill-opacity="1"></use><g><use xlink:href="#f24beFhB7K" opacity="1" fill-opacity="0" stroke="#000000" stroke-width="1" stroke-opacity="0"></use></g></g><g><use xlink:href="#d2wd2aBktR" opacity="1" fill="#ffffff" fill-opacity="1"></use><g><use xlink:href="#d2wd2aBktR" opacity="1" fill-opacity="0" stroke="#000000" stroke-width="1" stroke-opacity="0"></use></g></g><g><use xlink:href="#b1HhulCMY2" opacity="1" fill="#ffffff" fill-opacity="1"></use><g><use xlink:href="#b1HhulCMY2" opacity="1" fill-opacity="0" stroke="#000000" stroke-width="1" stroke-opacity="0"></use></g></g><g><use xlink:href="#fGprLhe8" opacity="1" fill="#ffffff" fill-opacity="1"></use><g><use xlink:href="#fGprLhe8" opacity="1" fill-opacity="0" stroke="#000000" stroke-width="1" stroke-opacity="0"></use></g></g><g><use xlink:href="#a1X5nou9We" opacity="1" fill="#ffffff" fill-opacity="1"></use><g><use xlink:href="#a1X5nou9We" opacity="1" fill-opacity="0" stroke="#000000" stroke-width="1" stroke-opacity="0"></use></g></g><g><use xlink:href="#aNKLo1WhZ" opacity="1" fill="#ffffff" fill-opacity="1"></use><g><use xlink:href="#aNKLo1WhZ" opacity="1" fill-opacity="0" stroke="#000000" stroke-width="1" stroke-opacity="0"></use></g></g><g><use xlink:href="#a1JjIw6Zz5" opacity="1" fill="#ffffff" fill-opacity="1"></use><g><use xlink:href="#a1JjIw6Zz5" opacity="1" fill-opacity="0" stroke="#000000" stroke-width="1" stroke-opacity="0"></use></g></g><g><use xlink:href="#dv0Iot4AU" opacity="1" fill="#ffffff" fill-opacity="1"></use><g><use xlink:href="#dv0Iot4AU" opacity="1" fill-opacity="0" stroke="#000000" stroke-width="1" stroke-opacity="0"></use></g></g><g><use xlink:href="#b2MfoSwLoF" opacity="1" fill="#ffffff" fill-opacity="1"></use><g><use xlink:href="#b2MfoSwLoF" opacity="1" fill-opacity="0" stroke="#000000" stroke-width="1" stroke-opacity="0"></use></g></g><g><use xlink:href="#c2ZAdNutr1" opacity="1" fill="#ffffff" fill-opacity="1"></use><g><use xlink:href="#c2ZAdNutr1" opacity="1" fill-opacity="0" stroke="#000000" stroke-width="1" stroke-opacity="0"></use></g></g><g><use xlink:href="#gwBN2MBrg" opacity="1" fill="#ffffff" fill-opacity="1"></use><g><use xlink:href="#gwBN2MBrg" opacity="1" fill-opacity="0" stroke="#000000" stroke-width="1" stroke-opacity="0"></use></g></g><g><use xlink:href="#mpMeAlGtf" opacity="1" fill="#ffffff" fill-opacity="1"></use><g><use xlink:href="#mpMeAlGtf" opacity="1" fill-opacity="0" stroke="#000000" stroke-width="1" stroke-opacity="0"></use></g></g><g><use xlink:href="#a4Xy4mn5KZ" opacity="1" fill="#ffffff" fill-opacity="1"></use><g><use xlink:href="#a4Xy4mn5KZ" opacity="1" fill-opacity="0" stroke="#000000" stroke-width="1" stroke-opacity="0"></use></g></g><g><use xlink:href="#m5hnSBo6T" opacity="1" fill="#ffffff" fill-opacity="1"></use><g><use xlink:href="#m5hnSBo6T" opacity="1" fill-opacity="0" stroke="#000000" stroke-width="1" stroke-opacity="0"></use></g></g><g><use xlink:href="#d1edevwxez" opacity="1" fill="#ffffff" fill-opacity="1"></use><g><use xlink:href="#d1edevwxez" opacity="1" fill-opacity="0" stroke="#000000" stroke-width="1" stroke-opacity="0"></use></g></g><g><use xlink:href="#a2woL5Ax6H" opacity="1" fill="#ffffff" fill-opacity="1"></use><g><use xlink:href="#a2woL5Ax6H" opacity="1" fill-opacity="0" stroke="#000000" stroke-width="1" stroke-opacity="0"></use></g></g><g><use xlink:href="#c1aNgkMKqa" opacity="1" fill="#ffffff" fill-opacity="1"></use><g><use xlink:href="#c1aNgkMKqa" opacity="1" fill-opacity="0" stroke="#000000" stroke-width="1" stroke-opacity="0"></use></g></g><g><use xlink:href="#a124KOZjJ" opacity="1" fill="#ffffff" fill-opacity="1"></use><g><use xlink:href="#a124KOZjJ" opacity="1" fill-opacity="0" stroke="#000000" stroke-width="1" stroke-opacity="0"></use></g></g><g><use xlink:href="#g4J6W6RP8E" opacity="1" fill="#ffffff" fill-opacity="1"></use><g><use xlink:href="#g4J6W6RP8E" opacity="1" fill-opacity="0" stroke="#000000" stroke-width="1" stroke-opacity="0"></use></g></g><g><use xlink:href="#gcbsXt2iV" opacity="1" fill="#ffffff" fill-opacity="1"></use><g><use xlink:href="#gcbsXt2iV" opacity="1" fill-opacity="0" stroke="#000000" stroke-width="1" stroke-opacity="0"></use></g></g><g><use xlink:href="#a8WwmKCJrw" opacity="1" fill="#ffffff" fill-opacity="1"></use><g><use xlink:href="#a8WwmKCJrw" opacity="1" fill-opacity="0" stroke="#000000" stroke-width="1" stroke-opacity="0"></use></g></g><g><use xlink:href="#f3ky3PNp7o" opacity="1" fill="#ffffff" fill-opacity="1"></use><g><use xlink:href="#f3ky3PNp7o" opacity="1" fill-opacity="0" stroke="#000000" stroke-width="1" stroke-opacity="0"></use></g></g><g><use xlink:href="#a3LS4SBpae" opacity="1" fill="#ffffff" fill-opacity="1"></use><g><use xlink:href="#a3LS4SBpae" opacity="1" fill-opacity="0" stroke="#000000" stroke-width="1" stroke-opacity="0"></use></g></g><g><use xlink:href="#b2dzSaPZjI" opacity="1" fill="#ffffff" fill-opacity="1"></use><g><use xlink:href="#b2dzSaPZjI" opacity="1" fill-opacity="0" stroke="#000000" stroke-width="1" stroke-opacity="0"></use></g></g><g><use xlink:href="#b2oZf3IGKo" opacity="1" fill="#ffffff" fill-opacity="1"></use><g><use xlink:href="#b2oZf3IGKo" opacity="1" fill-opacity="0" stroke="#000000" stroke-width="1" stroke-opacity="0"></use></g></g><g><use xlink:href="#ady80ebjd" opacity="1" fill="#ffffff" fill-opacity="1"></use><g><use xlink:href="#ady80ebjd" opacity="1" fill-opacity="0" stroke="#000000" stroke-width="1" stroke-opacity="0"></use></g></g><g><use xlink:href="#bl0A3bml" opacity="1" fill="#ffffff" fill-opacity="1"></use><g><use xlink:href="#bl0A3bml" opacity="1" fill-opacity="0" stroke="#000000" stroke-width="1" stroke-opacity="0"></use></g></g><g><use xlink:href="#fdetk9t2d" opacity="1" fill="#ffffff" fill-opacity="1"></use><g><use xlink:href="#fdetk9t2d" opacity="1" fill-opacity="0" stroke="#000000" stroke-width="1" stroke-opacity="0"></use></g></g><g><use xlink:href="#b1nC7Z45HA" opacity="1" fill="#ffffff" fill-opacity="1"></use><g><use xlink:href="#b1nC7Z45HA" opacity="1" fill-opacity="0" stroke="#000000" stroke-width="1" stroke-opacity="0"></use></g></g><g><use xlink:href="#a46BKnThuh" opacity="1" fill="#ffffff" fill-opacity="1"></use><g><use xlink:href="#a46BKnThuh" opacity="1" fill-opacity="0" stroke="#000000" stroke-width="1" stroke-opacity="0"></use></g></g><g><use xlink:href="#d4pruosSgE" opacity="1" fill="#ffffff" fill-opacity="1"></use><g><use xlink:href="#d4pruosSgE" opacity="1" fill-opacity="0" stroke="#000000" stroke-width="1" stroke-opacity="0"></use></g></g><g><use xlink:href="#b1wjzPQJKt" opacity="1" fill="#ffffff" fill-opacity="1"></use><g><use xlink:href="#b1wjzPQJKt" opacity="1" fill-opacity="0" stroke="#000000" stroke-width="1" stroke-opacity="0"></use></g></g><g><use xlink:href="#cWyffdCjD" opacity="1" fill="#ffffff" fill-opacity="1"></use><g><use xlink:href="#cWyffdCjD" opacity="1" fill-opacity="0" stroke="#000000" stroke-width="1" stroke-opacity="0"></use></g></g><g><use xlink:href="#gEqr76fsY" opacity="1" fill="#ffffff" fill-opacity="1"></use><g><use xlink:href="#gEqr76fsY" opacity="1" fill-opacity="0" stroke="#000000" stroke-width="1" stroke-opacity="0"></use></g></g><g><use xlink:href="#aDMW8MnC" opacity="1" fill="#ffffff" fill-opacity="1"></use><g><use xlink:href="#aDMW8MnC" opacity="1" fill-opacity="0" stroke="#000000" stroke-width="1" stroke-opacity="0"></use></g></g><g><use xlink:href="#a3DudQ31Kk" opacity="1" fill="#ffffff" fill-opacity="1"></use><g><use xlink:href="#a3DudQ31Kk" opacity="1" fill-opacity="0" stroke="#000000" stroke-width="1" stroke-opacity="0"></use></g></g><g><use xlink:href="#aFF1RMbfd" opacity="1" fill="#ffffff" fill-opacity="1"></use><g><use xlink:href="#aFF1RMbfd" opacity="1" fill-opacity="0" stroke="#000000" stroke-width="1" stroke-opacity="0"></use></g></g><g><use xlink:href="#e2Vkt1Te8R" opacity="1" fill="#ffffff" fill-opacity="1"></use><g><use xlink:href="#e2Vkt1Te8R" opacity="1" fill-opacity="0" stroke="#000000" stroke-width="1" stroke-opacity="0"></use></g></g><g><use xlink:href="#a40EhJl0C" opacity="1" fill="#ffffff" fill-opacity="1"></use><g><use xlink:href="#a40EhJl0C" opacity="1" fill-opacity="0" stroke="#000000" stroke-width="1" stroke-opacity="0"></use></g></g><g><use xlink:href="#e5fAjyEa8b" opacity="1" fill="#ffffff" fill-opacity="1"></use><g><use xlink:href="#e5fAjyEa8b" opacity="1" fill-opacity="0" stroke="#000000" stroke-width="1" stroke-opacity="0"></use></g></g><g><use xlink:href="#a150QaoWS" opacity="1" fill="#ffffff" fill-opacity="1"></use><g><use xlink:href="#a150QaoWS" opacity="1" fill-opacity="0" stroke="#000000" stroke-width="1" stroke-opacity="0"></use></g></g><g><use xlink:href="#d1mWNyvsF" opacity="1" fill="#ffffff" fill-opacity="1"></use><g><use xlink:href="#d1mWNyvsF" opacity="1" fill-opacity="0" stroke="#000000" stroke-width="1" stroke-opacity="0"></use></g></g><g><use xlink:href="#cRrcITUrd" opacity="1" fill="#ffffff" fill-opacity="1"></use><g><use xlink:href="#cRrcITUrd" opacity="1" fill-opacity="0" stroke="#000000" stroke-width="1" stroke-opacity="0"></use></g></g><g><use xlink:href="#e2sRWBvSm5" opacity="1" fill="#ffffff" fill-opacity="1"></use><g><use xlink:href="#e2sRWBvSm5" opacity="1" fill-opacity="0" stroke="#000000" stroke-width="1" stroke-opacity="0"></use></g></g><g><use xlink:href="#aNxfI8ggj" opacity="1" fill="#ffffff" fill-opacity="1"></use><g><use xlink:href="#aNxfI8ggj" opacity="1" fill-opacity="0" stroke="#000000" stroke-width="1" stroke-opacity="0"></use></g></g><g><use xlink:href="#a8l2ITryiG" opacity="1" fill="#ffffff" fill-opacity="1"></use><g><use xlink:href="#a8l2ITryiG" opacity="1" fill-opacity="0" stroke="#000000" stroke-width="1" stroke-opacity="0"></use></g></g><g><use xlink:href="#a4p6hqC3CT" opacity="1" fill="#ffffff" fill-opacity="1"></use><g><use xlink:href="#a4p6hqC3CT" opacity="1" fill-opacity="0" stroke="#000000" stroke-width="1" stroke-opacity="0"></use></g></g><g><use xlink:href="#dYmjGwoQu" opacity="1" fill="#ffffff" fill-opacity="1"></use><g><use xlink:href="#dYmjGwoQu" opacity="1" fill-opacity="0" stroke="#000000" stroke-width="1" stroke-opacity="0"></use></g></g><g><use xlink:href="#c1TnmJQ5g7" opacity="1" fill="#ffffff" fill-opacity="1"></use><g><use xlink:href="#c1TnmJQ5g7" opacity="1" fill-opacity="0" stroke="#000000" stroke-width="1" stroke-opacity="0"></use></g></g><g><use xlink:href="#d2kcogCFOm" opacity="1" fill="#ffffff" fill-opacity="1"></use><g><use xlink:href="#d2kcogCFOm" opacity="1" fill-opacity="0" stroke="#000000" stroke-width="1" stroke-opacity="0"></use></g></g><g><use xlink:href="#a4oCShoQen" opacity="1" fill="#ffffff" fill-opacity="1"></use><g><use xlink:href="#a4oCShoQen" opacity="1" fill-opacity="0" stroke="#000000" stroke-width="1" stroke-opacity="0"></use></g></g><g><use xlink:href="#a2q5KQEGlm" opacity="1" fill="#ffffff" fill-opacity="1"></use><g><use xlink:href="#a2q5KQEGlm" opacity="1" fill-opacity="0" stroke="#000000" stroke-width="1" stroke-opacity="0"></use></g></g><g><use xlink:href="#a1ep0Oy57" opacity="1" fill="#ffffff" fill-opacity="1"></use><g><use xlink:href="#a1ep0Oy57" opacity="1" fill-opacity="0" stroke="#000000" stroke-width="1" stroke-opacity="0"></use></g></g><g><use xlink:href="#j994Bnmmc" opacity="1" fill="#ffffff" fill-opacity="1"></use><g><use xlink:href="#j994Bnmmc" opacity="1" fill-opacity="0" stroke="#000000" stroke-width="1" stroke-opacity="0"></use></g></g><g><use xlink:href="#arSKl7jVN" opacity="1" fill="#ffffff" fill-opacity="1"></use><g><use xlink:href="#arSKl7jVN" opacity="1" fill-opacity="0" stroke="#000000" stroke-width="1" stroke-opacity="0"></use></g></g><g><use xlink:href="#bzIIfTA2H" opacity="1" fill="#ffffff" fill-opacity="1"></use><g><use xlink:href="#bzIIfTA2H" opacity="1" fill-opacity="0" stroke="#000000" stroke-width="1" stroke-opacity="0"></use></g></g><g><use xlink:href="#e42swolGT8" opacity="1" fill="#ffffff" fill-opacity="1"></use><g><use xlink:href="#e42swolGT8" opacity="1" fill-opacity="0" stroke="#000000" stroke-width="1" stroke-opacity="0"></use></g></g><g><use xlink:href="#cHY7WLZM6" opacity="1" fill="#ffffff" fill-opacity="1"></use><g><use xlink:href="#cHY7WLZM6" opacity="1" fill-opacity="0" stroke="#000000" stroke-width="1" stroke-opacity="0"></use></g></g><g><use xlink:href="#a4Qsv2Zv2h" opacity="1" fill="#ffffff" fill-opacity="1"></use><g><use xlink:href="#a4Qsv2Zv2h" opacity="1" fill-opacity="0" stroke="#000000" stroke-width="1" stroke-opacity="0"></use></g></g><g><use xlink:href="#a17xyVp5HD" opacity="1" fill="#ffffff" fill-opacity="1"></use><g><use xlink:href="#a17xyVp5HD" opacity="1" fill-opacity="0" stroke="#000000" stroke-width="1" stroke-opacity="0"></use></g></g><g><use xlink:href="#c2K1EKntwb" opacity="1" fill="#ffffff" fill-opacity="1"></use><g><use xlink:href="#c2K1EKntwb" opacity="1" fill-opacity="0" stroke="#000000" stroke-width="1" stroke-opacity="0"></use></g></g><g><use xlink:href="#a4On4JCPSj" opacity="1" fill="#ffffff" fill-opacity="1"></use><g><use xlink:href="#a4On4JCPSj" opacity="1" fill-opacity="0" stroke="#000000" stroke-width="1" stroke-opacity="0"></use></g></g><g><use xlink:href="#a2M9xde9pK" opacity="1" fill="#ffffff" fill-opacity="1"></use><g><use xlink:href="#a2M9xde9pK" opacity="1" fill-opacity="0" stroke="#000000" stroke-width="1" stroke-opacity="0"></use></g></g><g><use xlink:href="#albaL9NEl" opacity="1" fill="#ffffff" fill-opacity="1"></use><g><use xlink:href="#albaL9NEl" opacity="1" fill-opacity="0" stroke="#000000" stroke-width="1" stroke-opacity="0"></use></g></g><g><use xlink:href="#d2BMeIuttt" opacity="1" fill="#ffffff" fill-opacity="1"></use><g><use xlink:href="#d2BMeIuttt" opacity="1" fill-opacity="0" stroke="#000000" stroke-width="1" stroke-opacity="0"></use></g></g><g><use xlink:href="#g17p59q8oh" opacity="1" fill="#ffffff" fill-opacity="1"></use><g><use xlink:href="#g17p59q8oh" opacity="1" fill-opacity="0" stroke="#000000" stroke-width="1" stroke-opacity="0"></use></g></g><g><use xlink:href="#az2q6QkuE" opacity="1" fill="#ffffff" fill-opacity="1"></use><g><use xlink:href="#az2q6QkuE" opacity="1" fill-opacity="0" stroke="#000000" stroke-width="1" stroke-opacity="0"></use></g></g><g><use xlink:href="#aXpK9bN0O" opacity="1" fill="#ffffff" fill-opacity="1"></use><g><use xlink:href="#aXpK9bN0O" opacity="1" fill-opacity="0" stroke="#000000" stroke-width="1" stroke-opacity="0"></use></g></g><g><use xlink:href="#alOxBAxc" opacity="1" fill="#ffffff" fill-opacity="1"></use><g><use xlink:href="#alOxBAxc" opacity="1" fill-opacity="0" stroke="#000000" stroke-width="1" stroke-opacity="0"></use></g></g><g><use xlink:href="#a3aivoWnz" opacity="1" fill="#ffffff" fill-opacity="1"></use><g><use xlink:href="#a3aivoWnz" opacity="1" fill-opacity="0" stroke="#000000" stroke-width="1" stroke-opacity="0"></use></g></g><g><use xlink:href="#e26levdzqQ" opacity="1" fill="#ffffff" fill-opacity="1"></use><g><use xlink:href="#e26levdzqQ" opacity="1" fill-opacity="0" stroke="#000000" stroke-width="1" stroke-opacity="0"></use></g></g><g><use xlink:href="#c86NGh1Fj" opacity="1" fill="#ffffff" fill-opacity="1"></use><g><use xlink:href="#c86NGh1Fj" opacity="1" fill-opacity="0" stroke="#000000" stroke-width="1" stroke-opacity="0"></use></g></g><g><use xlink:href="#a1K0vrN4Yq" opacity="1" fill="#ffffff" fill-opacity="1"></use><g><use xlink:href="#a1K0vrN4Yq" opacity="1" fill-opacity="0" stroke="#000000" stroke-width="1" stroke-opacity="0"></use></g></g><g><use xlink:href="#a2stvqR32I" opacity="1" fill="#ffffff" fill-opacity="1"></use><g><use xlink:href="#a2stvqR32I" opacity="1" fill-opacity="0" stroke="#000000" stroke-width="1" stroke-opacity="0"></use></g></g><g><use xlink:href="#ctRwGKC20" opacity="1" fill="#ffffff" fill-opacity="1"></use><g><use xlink:href="#ctRwGKC20" opacity="1" fill-opacity="0" stroke="#000000" stroke-width="1" stroke-opacity="0"></use></g></g><g><use xlink:href="#a1lwZyYhtL" opacity="1" fill="#ffffff" fill-opacity="1"></use><g><use xlink:href="#a1lwZyYhtL" opacity="1" fill-opacity="0" stroke="#000000" stroke-width="1" stroke-opacity="0"></use></g></g><g><use xlink:href="#c5dCH7vE1s" opacity="1" fill="#e80f4c" fill-opacity="1"></use><g><use xlink:href="#c5dCH7vE1s" opacity="1" fill-opacity="0" stroke="#000000" stroke-width="1" stroke-opacity="0"></use></g></g><g><use xlink:href="#c46yC1jEuf" opacity="1" fill="#e80f4c" fill-opacity="1"></use><g><use xlink:href="#c46yC1jEuf" opacity="1" fill-opacity="0" stroke="#000000" stroke-width="1" stroke-opacity="0"></use></g></g><g><use xlink:href="#a2SUliLcmJ" opacity="1" fill="#e80f4c" fill-opacity="1"></use><g><use xlink:href="#a2SUliLcmJ" opacity="1" fill-opacity="0" stroke="#000000" stroke-width="1" stroke-opacity="0"></use></g></g><g><use xlink:href="#kowVS3kwW" opacity="1" fill="#e80f4c" fill-opacity="1"></use><g><use xlink:href="#kowVS3kwW" opacity="1" fill-opacity="0" stroke="#000000" stroke-width="1" stroke-opacity="0"></use></g></g><g><use xlink:href="#c2H1TbYceK" opacity="1" fill="#e80f4c" fill-opacity="1"></use><g><use xlink:href="#c2H1TbYceK" opacity="1" fill-opacity="0" stroke="#000000" stroke-width="1" stroke-opacity="0"></use></g></g><g><use xlink:href="#b5RV1e0pAr" opacity="1" fill="#e80f4c" fill-opacity="1"></use><g><use xlink:href="#b5RV1e0pAr" opacity="1" fill-opacity="0" stroke="#000000" stroke-width="1" stroke-opacity="0"></use></g></g><g><use xlink:href="#a6xGvejv18" opacity="1" fill="#e80f4c" fill-opacity="1"></use><g><use xlink:href="#a6xGvejv18" opacity="1" fill-opacity="0" stroke="#000000" stroke-width="1" stroke-opacity="0"></use></g></g><g><use xlink:href="#a3Oyyyl9ND" opacity="1" fill="#e80f4c" fill-opacity="1"></use><g><use xlink:href="#a3Oyyyl9ND" opacity="1" fill-opacity="0" stroke="#000000" stroke-width="1" stroke-opacity="0"></use></g></g><g><use xlink:href="#aJCd5jfFL" opacity="1" fill="#000000" fill-opacity="1"></use><g><use xlink:href="#aJCd5jfFL" opacity="1" fill-opacity="0" stroke="#ceced6" stroke-width="4" stroke-opacity="1"></use></g></g><g><use xlink:href="#afklE5Lqw" opacity="1" fill="#000000" fill-opacity="1"></use><g><use xlink:href="#afklE5Lqw" opacity="1" fill-opacity="0" stroke="#ceced6" stroke-width="4" stroke-opacity="1"></use></g></g><g><use xlink:href="#e2T2M2TpPq" opacity="1" fill="#000000" fill-opacity="1"></use><g><use xlink:href="#e2T2M2TpPq" opacity="1" fill-opacity="0" stroke="#ceced6" stroke-width="4" stroke-opacity="1"></use></g></g><g><use xlink:href="#arSJF1JO2" opacity="1" fill="#000000" fill-opacity="1"></use><g><use xlink:href="#arSJF1JO2" opacity="1" fill-opacity="0" stroke="#ceced6" stroke-width="4" stroke-opacity="1"></use></g></g><g><use xlink:href="#a1ArOrMobC" opacity="1" fill="#000000" fill-opacity="1"></use><g><use xlink:href="#a1ArOrMobC" opacity="1" fill-opacity="0" stroke="#ceced6" stroke-width="4" stroke-opacity="1"></use></g></g><g><use xlink:href="#a1XUZbHiIO" opacity="1" fill="#000000" fill-opacity="1"></use><g><use xlink:href="#a1XUZbHiIO" opacity="1" fill-opacity="0" stroke="#ceced6" stroke-width="4" stroke-opacity="1"></use></g></g><g><use xlink:href="#b3vf45YaZz" opacity="1" fill="#000000" fill-opacity="1"></use><g><use xlink:href="#b3vf45YaZz" opacity="1" fill-opacity="0" stroke="#ceced6" stroke-width="4" stroke-opacity="1"></use></g></g><g><use xlink:href="#d3AHjTNMC" opacity="1" fill="#000000" fill-opacity="1"></use><g><use xlink:href="#d3AHjTNMC" opacity="1" fill-opacity="0" stroke="#ceced6" stroke-width="4" stroke-opacity="1"></use></g></g><g><use xlink:href="#b1gdWBYny4" opacity="1" fill="#000000" fill-opacity="1"></use><g><use xlink:href="#b1gdWBYny4" opacity="1" fill-opacity="0" stroke="#ceced6" stroke-width="4" stroke-opacity="1"></use></g></g><g><use xlink:href="#aaaXsNgbv" opacity="1" fill="#000000" fill-opacity="1"></use><g><use xlink:href="#aaaXsNgbv" opacity="1" fill-opacity="0" stroke="#ceced6" stroke-width="4" stroke-opacity="1"></use></g></g><g><use xlink:href="#b28IDuL2s0" opacity="1" fill="#000000" fill-opacity="1"></use><g><use xlink:href="#b28IDuL2s0" opacity="1" fill-opacity="0" stroke="#ceced6" stroke-width="4" stroke-opacity="1"></use></g></g><g><use xlink:href="#a7Kft91d5" opacity="1" fill="#000000" fill-opacity="1"></use><g><use xlink:href="#a7Kft91d5" opacity="1" fill-opacity="0" stroke="#ceced6" stroke-width="4" stroke-opacity="1"></use></g></g><g><use xlink:href="#b4vzo8gmm" opacity="1" fill="#000000" fill-opacity="1"></use><g><use xlink:href="#b4vzo8gmm" opacity="1" fill-opacity="0" stroke="#ceced6" stroke-width="4" stroke-opacity="1"></use></g></g><g><use xlink:href="#b1IYwtD746" opacity="1" fill="#000000" fill-opacity="1"></use><g><use xlink:href="#b1IYwtD746" opacity="1" fill-opacity="0" stroke="#ceced6" stroke-width="4" stroke-opacity="1"></use></g></g><g><use xlink:href="#c3A7kjq5jl" opacity="1" fill="#000000" fill-opacity="1"></use><g><use xlink:href="#c3A7kjq5jl" opacity="1" fill-opacity="0" stroke="#ceced6" stroke-width="4" stroke-opacity="1"></use></g></g><g><use xlink:href="#c1w8RWtWQA" opacity="1" fill="#000000" fill-opacity="1"></use><g><use xlink:href="#c1w8RWtWQA" opacity="1" fill-opacity="0" stroke="#ceced6" stroke-width="4" stroke-opacity="1"></use></g></g><g><use xlink:href="#b17DzsgtpU" opacity="1" fill="#000000" fill-opacity="1"></use><g><use xlink:href="#b17DzsgtpU" opacity="1" fill-opacity="0" stroke="#ceced6" stroke-width="4" stroke-opacity="1"></use></g></g><g><use xlink:href="#a42xxd10uF" opacity="1" fill="#000000" fill-opacity="1"></use><g><use xlink:href="#a42xxd10uF" opacity="1" fill-opacity="0" stroke="#ceced6" stroke-width="4" stroke-opacity="1"></use></g></g><g><use xlink:href="#c2NhmLXh8" opacity="1" fill="#000000" fill-opacity="1"></use><g><use xlink:href="#c2NhmLXh8" opacity="1" fill-opacity="0" stroke="#ceced6" stroke-width="4" stroke-opacity="1"></use></g></g><g><use xlink:href="#h7HP4Mz8V" opacity="1" fill="#000000" fill-opacity="1"></use><g><use xlink:href="#h7HP4Mz8V" opacity="1" fill-opacity="0" stroke="#ceced6" stroke-width="4" stroke-opacity="1"></use></g></g><g><use xlink:href="#b25EG8Pf0W" opacity="1" fill="#000000" fill-opacity="1"></use><g><use xlink:href="#b25EG8Pf0W" opacity="1" fill-opacity="0" stroke="#ceced6" stroke-width="4" stroke-opacity="1"></use></g></g><g><use xlink:href="#aUlReVmje" opacity="1" fill="#000000" fill-opacity="1"></use><g><use xlink:href="#aUlReVmje" opacity="1" fill-opacity="0" stroke="#ceced6" stroke-width="4" stroke-opacity="1"></use></g></g><g><use xlink:href="#a2pXIL4Srj" opacity="1" fill="#000000" fill-opacity="1"></use><g><use xlink:href="#a2pXIL4Srj" opacity="1" fill-opacity="0" stroke="#ceced6" stroke-width="4" stroke-opacity="1"></use></g></g><g><use xlink:href="#azB8o2sbP" opacity="1" fill="#000000" fill-opacity="1"></use><g><use xlink:href="#azB8o2sbP" opacity="1" fill-opacity="0" stroke="#ceced6" stroke-width="4" stroke-opacity="1"></use></g></g><g><use xlink:href="#hhSXsXLxT" opacity="1" fill="#000000" fill-opacity="1"></use><g><use xlink:href="#hhSXsXLxT" opacity="1" fill-opacity="0" stroke="#ceced6" stroke-width="4" stroke-opacity="1"></use></g></g><g><use xlink:href="#cciHo7JKI" opacity="1" fill="#000000" fill-opacity="1"></use><g><use xlink:href="#cciHo7JKI" opacity="1" fill-opacity="0" stroke="#ceced6" stroke-width="4" stroke-opacity="1"></use></g></g><g><use xlink:href="#c371U5EwlD" opacity="1" fill="#000000" fill-opacity="1"></use><g><use xlink:href="#c371U5EwlD" opacity="1" fill-opacity="0" stroke="#ceced6" stroke-width="4" stroke-opacity="1"></use></g></g><g><use xlink:href="#a19gRUfyKL" opacity="1" fill="#000000" fill-opacity="1"></use><g><use xlink:href="#a19gRUfyKL" opacity="1" fill-opacity="0" stroke="#ceced6" stroke-width="4" stroke-opacity="1"></use></g></g><g><use xlink:href="#aDqdApiNB" opacity="1" fill="#000000" fill-opacity="1"></use><g><use xlink:href="#aDqdApiNB" opacity="1" fill-opacity="0" stroke="#ceced6" stroke-width="4" stroke-opacity="1"></use></g></g><g><use xlink:href="#bxXvkF7E0" opacity="1" fill="#000000" fill-opacity="1"></use><g><use xlink:href="#bxXvkF7E0" opacity="1" fill-opacity="0" stroke="#ceced6" stroke-width="4" stroke-opacity="1"></use></g></g><g><use xlink:href="#a26kyqLLbs" opacity="1" fill="#e20e55" fill-opacity="1"></use><g><use xlink:href="#a26kyqLLbs" opacity="1" fill-opacity="0" stroke="#000000" stroke-width="1" stroke-opacity="0"></use></g></g></g></svg>