<svg id="Layer_1" data-name="Layer 1" xmlns="http://www.w3.org/2000/svg" xmlns:xlink="http://www.w3.org/1999/xlink" viewBox="0 0 2005 570"><defs><style>.cls-1,.cls-11,.cls-2,.cls-3,.cls-6{fill:none;}.cls-1,.cls-2,.cls-3{stroke:#fff;stroke-linecap:round;stroke-linejoin:round;}.cls-2{stroke-dasharray:0 34.29;}.cls-3{stroke-dasharray:0 35;}.cls-4{fill:#f9f9f9;}.cls-5{fill:#d81966;}.cls-11,.cls-6,.cls-9{stroke-miterlimit:10;}.cls-11,.cls-6{stroke-width:6px;}.cls-6{stroke:url(#Orchid);}.cls-7{fill:#fff;}.cls-8{fill:#e80f4c;}.cls-9{stroke:#ceced6;stroke-width:4px;}.cls-10{fill:#e20e55;}.cls-11{stroke:url(#Orchid-2);}</style><linearGradient id="Orchid" x1="479.25" y1="282" x2="520.25" y2="282" gradientUnits="userSpaceOnUse"><stop offset="0" stop-color="#ff7bac"/><stop offset="0.22" stop-color="#ff7bac" stop-opacity="0.76"/><stop offset="0.6" stop-color="#ff7bac" stop-opacity="0.36"/><stop offset="0.87" stop-color="#ff7bac" stop-opacity="0.1"/><stop offset="1" stop-color="#ff7bac" stop-opacity="0"/></linearGradient><linearGradient id="Orchid-2" x1="1523.25" y1="273" x2="1564.25" y2="273" xlink:href="#Orchid"/></defs><title>v3</title><rect x="0.5" y="9.5" width="960" height="560"/><line class="cls-1" x1="960.5" y1="569.5" x2="960.5" y2="569.5"/><line class="cls-2" x1="926.21" y1="569.5" x2="17.64" y2="569.5"/><line class="cls-1" x1="0.5" y1="569.5" x2="0.5" y2="569.5"/><line class="cls-3" x1="0.5" y1="534.5" x2="0.5" y2="27"/><line class="cls-1" x1="0.5" y1="9.5" x2="0.5" y2="9.5"/><line class="cls-2" x1="34.79" y1="9.5" x2="943.36" y2="9.5"/><line class="cls-1" x1="960.5" y1="9.5" x2="960.5" y2="9.5"/><line class="cls-3" x1="960.5" y1="44.5" x2="960.5" y2="552"/><circle cx="500.25" cy="282.17" r="160"/><circle cx="500.25" cy="282.17" r="108.5"/><path class="cls-4" d="M499.75,164.17h-.06a1,1,0,0,0,0,2h.05a1,1,0,0,1,.64,0h.06a1,1,0,0,0,0-2h-.06a1,1,0,0,1-.65,0Zm-33.2,5.22a1,1,0,0,0-.31,0h-.06a1,1,0,0,0,.62,1.9l.05,0a1,1,0,0,0-.31-2Zm-29.94,15.26a1,1,0,0,0-.58.19l0,0h0a1,1,0,0,0,1.18,1.62l0,0a1,1,0,0,0-.59-1.81ZM412.83,208.4a1,1,0,0,0-.81.41h0l0,0a1,1,0,0,0,1.62,1.17l0,0a1,1,0,0,0-.81-1.59Zm-15.31,29.91a1,1,0,0,0-1,.69l0,.06a1,1,0,0,0,1.9.61l0-.05a1,1,0,0,0-1-1.31Zm-5.28,33.19a1,1,0,0,0-1,1v0h0a1,1,0,0,0,1,1h0a1,1,0,0,0,1-1v-.05a1,1,0,0,0-1-1Zm5.17,33.2a1,1,0,0,0-1,1.31l0,.05h0a1,1,0,0,0,1.9-.62l0-.05a1,1,0,0,0-1-.69Zm15.21,30a1,1,0,0,0-.81,1.58v0l0,0a1,1,0,0,0,1.62-1.17l0,0a1,1,0,0,0-.81-.41Zm23.71,23.82a1,1,0,0,0-.59,1.8l0,0h0a1,1,0,0,0,1.18-1.62l0,0a1,1,0,0,0-.59-.19Zm29.89,15.36a1,1,0,0,0-.32,1.95l.06,0a1,1,0,0,0,.62-1.9l-.05,0a1,1,0,0,0-.31-.05Zm33.18,5.33a1,1,0,0,0,0,2h.06a1,1,0,0,0,0-2h-.06ZM532.66,374a1,1,0,0,0-.31,0l-.05,0a1,1,0,1,0,.61,1.9l.06,0a1,1,0,0,0-.31-2Zm30-15.18a1,1,0,0,0-.58.19l0,0a1,1,0,1,0,1.17,1.62l0,0a1,1,0,0,0-.59-1.81Zm23.85-23.68a1,1,0,0,0-.81.41l0,0a1,1,0,1,0,1.61,1.18l0,0,0,0a1,1,0,0,0-.81-1.59Zm15.39-29.87a1,1,0,0,0-.95.69l0,.05a1,1,0,1,0,1.9.63v-.06a1,1,0,0,0-1-1.31Zm5.37-33.17a1,1,0,0,0-1,1v.05a1,1,0,0,0,1,1h0a1,1,0,0,0,1-1v-.06a1,1,0,0,0-1-1Zm-5.08-33.22a1,1,0,0,0-1,1.3l0,.05a1,1,0,0,0,1.91-.6v-.06a1,1,0,0,0-1-.69Zm-15.13-30a1,1,0,0,0-.81,1.58l0,0a1,1,0,1,0,1.62-1.17v0h0a1,1,0,0,0-.81-.42ZM563.4,185a1,1,0,0,0-.59,1.81l0,0a1,1,0,0,0,1.19-1.61h0l0,0a1,1,0,0,0-.59-.19Zm-29.85-15.44a1,1,0,0,0-.31,1.95l.05,0a1,1,0,1,0,.63-1.9h-.06a1,1,0,0,0-.31,0Z" transform="translate(0.5 9.5)"/><path class="cls-5" d="M500,139a134,134,0,1,1-94.75,39.25A133.12,133.12,0,0,1,500,139m0-6A140,140,0,1,0,640,273,140,140,0,0,0,500,133Z" transform="translate(0.5 9.5)"/><circle class="cls-6" cx="499.75" cy="282" r="17.5"/><polygon class="cls-7" points="509.87 153.56 485.75 153.56 489.63 141.5 513.75 141.5 509.87 153.56"/><path class="cls-4" d="M513.25,132h-.05a1,1,0,0,0-.54,1.84l.59-1.84ZM487,140.76a1,1,0,0,0-1,.69l0,.06a1,1,0,0,0,1.9.61l0-.05a1,1,0,0,0-1-1.31Zm23.6-4.91a1,1,0,0,0-1,.69l0,.05a1,1,0,1,0,1.9.61l0-.05a1,1,0,0,0-1-1.31Z" transform="translate(0.5 9.5)"/><polygon class="cls-7" points="482.92 154.37 459.33 159.39 460.61 146.78 484.21 141.77 482.92 154.37"/><path class="cls-4" d="M483.71,132.27h-.05a1,1,0,0,0-.14,1.91l.2-1.93Zm-23.61,14a1,1,0,0,0-1,.9v.06a1,1,0,0,0,.89,1.09h.1a1,1,0,0,0,1-.9v-.05a1,1,0,0,0-.89-1.1Zm22.06-9.71a1,1,0,0,0-1,.9v.05a1,1,0,0,0,.89,1.1h.1a1,1,0,0,0,1-.9v0h0a1,1,0,0,0-.89-1.1Z" transform="translate(0.5 9.5)"/><polygon class="cls-7" points="456.73 160.76 434.69 170.58 433.33 157.98 455.37 148.17 456.73 160.76"/><path class="cls-4" d="M454.87,138.67h0l-.05,0a1,1,0,0,0,.26,1.9l-.21-1.93Zm-20,18.58h-.11a1,1,0,0,0-.89,1.1v.05a1,1,0,0,0,1,.89H435a1,1,0,0,0,.89-1.1v-.05a1,1,0,0,0-1-.89Zm19.56-14.08h-.11a1,1,0,0,0-.89,1.1v.05a1,1,0,0,0,1,.89h.11a1,1,0,0,0,.89-1.1v-.05a1,1,0,0,0-1-.89Z" transform="translate(0.5 9.5)"/><polygon class="cls-7" points="432.44 172.47 412.92 186.64 408.97 174.61 428.49 160.43 432.44 172.47"/><path class="cls-4" d="M428,150.93h0l0,0a1,1,0,0,0,.59,1.81h.06l-.6-1.84Zm-15.47,22.3a1,1,0,0,0-1,1.31v.06a1,1,0,0,0,1.9-.62l0-.05a1,1,0,0,0-.95-.69Zm16.21-17.84a1,1,0,0,0-1,1.31l0,.05a1,1,0,0,0,1.9-.62l0-.05a1,1,0,0,0-.95-.69Z" transform="translate(0.5 9.5)"/><polygon class="cls-7" points="411.11 188.96 394.97 206.89 388.6 195.94 404.74 178.01 411.11 188.96"/><path class="cls-4" d="M404.24,168.51h0l0,0a1,1,0,0,0,1,1.63l-1-1.67Zm-10.28,25a1,1,0,0,0-.86,1.5l0,.05a1,1,0,0,0,1.73-1l0,0a1,1,0,0,0-.87-.5ZM406.1,172.7a1,1,0,0,0-.86,1.5l0,0a1,1,0,0,0,1.73-1v-.05a1,1,0,0,0-.87-.5Z" transform="translate(0.5 9.5)"/><polygon class="cls-7" points="393.68 209.53 381.62 230.42 373.11 221.03 385.17 200.14 393.68 209.53"/><path class="cls-4" d="M384.67,190.64h0l0,0a1,1,0,0,0,1.33,1.39l-1.3-1.43ZM380,217.22a1,1,0,0,0-.74,1.67h0l0,0a1,1,0,0,0,1.48-1.34l0,0a1,1,0,0,0-.74-.33Zm7.55-22.89a1,1,0,0,0-.74,1.67l0,0a1,1,0,1,0,1.48-1.34v0l0,0a1,1,0,0,0-.74-.33Z" transform="translate(0.5 9.5)"/><polygon class="cls-7" points="380.91 233.27 373.45 256.21 363.18 248.8 370.63 225.86 380.91 233.27"/><path class="cls-4" d="M370.13,216.36h0l0,.05a1,1,0,0,0,1.59,1.08l-1.57-1.13Zm1.19,26.94a1,1,0,0,0-.59,1.81l0,0a1,1,0,0,0,1.17-1.62l0,0a1,1,0,0,0-.58-.19Zm2.63-24a1,1,0,0,0-.59,1.81l0,0a1,1,0,0,0,1.17-1.62l0,0a1,1,0,0,0-.58-.19Z" transform="translate(0.5 9.5)"/><polygon class="cls-7" points="373.35 259.15 370.83 283.14 359.24 278.03 361.76 254.04 373.35 259.15"/><path class="cls-4" d="M361.26,244.54h0v0a1,1,0,0,0,.89,1.1h.11a1,1,0,0,0,.78-.38l-1.77-.78Zm7,26.09a1,1,0,0,0-.4,1.92l.05,0a1,1,0,0,0,.81-1.83l-.05,0a1,1,0,0,0-.4-.09Zm-2.41-24a1,1,0,0,0-.4,1.92l.05,0a1,1,0,0,0,.81-1.83h0l0,0a1,1,0,0,0-.4-.09Z" transform="translate(0.5 9.5)"/><polygon class="cls-7" points="371.33 286.04 373.86 310.03 361.45 307.44 358.93 283.44 371.33 286.04"/><path class="cls-4" d="M358.43,273.94V274a1,1,0,0,0,1,.9h.11a1,1,0,0,0,.79-.55l-1.9-.4Zm12.45,24a1,1,0,0,0-.2,2h.06l.2,0a1,1,0,0,0,.2-2h-.05l-.21,0Zm-7.35-23a1,1,0,0,0-.2,2h.05l.21,0a1,1,0,0,0,.21-2h-.06l-.21,0Z" transform="translate(0.5 9.5)"/><polygon class="cls-7" points="374.96 312.76 382.41 335.7 369.74 335.74 362.29 312.8 374.96 312.76"/><path class="cls-4" d="M374.46,303.26h-.06a1,1,0,0,0,0,2h.06a1,1,0,0,0,.58-.19l-.59-1.81Zm-5.11,19.07a1,1,0,0,0-1,1.31l0,.06a1,1,0,0,0,1.9-.62l0-.05a1,1,0,0,0-1-.69Zm5.83-14.61a1,1,0,0,0-1,1.31l0,.05a1,1,0,1,0,1.9-.62v0h0a1,1,0,0,0-1-.69Z" transform="translate(0.5 9.5)"/><polygon class="cls-7" points="384.05 338.14 396.11 359.03 383.73 361.7 371.67 340.81 384.05 338.14"/><path class="cls-4" d="M383.55,328.64h-.05a1,1,0,0,0,.21,2l.21,0H384a1,1,0,0,0,.53-.31l-1-1.65Zm-.83,19.69a1,1,0,0,0-.87,1.5l0,.05a1,1,0,0,0,1.73-1l0,0a1,1,0,0,0-.87-.5Zm2.67-15.5a1,1,0,0,0-.87,1.5l0,0a1,1,0,0,0,1.73-1l0-.05a1,1,0,0,0-.87-.5Z" transform="translate(0.5 9.5)"/><polygon class="cls-7" points="398.23 361.07 414.37 379 402.81 384.19 386.67 366.26 398.23 361.07"/><path class="cls-4" d="M397.73,351.57l-.05,0a1,1,0,1,0,.82,1.82l.05,0A1,1,0,0,0,399,353l-1.27-1.42ZM401.22,371a1,1,0,0,0-.74,1.67h0l0,0a1,1,0,0,0,1.48-1.34l0,0a1,1,0,0,0-.74-.33Zm-.61-15.72a1,1,0,0,0-.74,1.67l0,0a1,1,0,1,0,1.49-1.34l0,0h0a1,1,0,0,0-.74-.33Z" transform="translate(0.5 9.5)"/><polygon class="cls-7" points="416.86 380.56 436.38 394.74 426.15 402.22 406.64 388.04 416.86 380.56"/><path class="cls-4" d="M416.36,371.06l0,0a1,1,0,1,0,1.18,1.61l0,0a1,1,0,0,0,.36-.5l-1.54-1.12ZM424,389.3a1,1,0,0,0-.59,1.81l0,0h0a1,1,0,0,0,1.18-1.62l0,0a1,1,0,0,0-.59-.19Zm-3.87-15.25a1,1,0,0,0-.59,1.81l0,0a1,1,0,0,0,1.18-1.62h0l0,0a1,1,0,0,0-.59-.19Z" transform="translate(0.5 9.5)"/><polygon class="cls-7" points="439.14 395.75 461.18 405.56 452.73 415 430.69 405.19 439.14 395.75"/><path class="cls-4" d="M438.64,386.25l0,0a1,1,0,1,0,1.49,1.33l0,0a1,1,0,0,0,.25-.56l-1.74-.77Zm11.5,16.23a1,1,0,0,0-.41,1.91l.06,0a1,1,0,0,0,.81-1.83l-.05,0a1,1,0,0,0-.41-.09Zm-7-14.11a1,1,0,0,0-.41,1.91l.05,0a1,1,0,0,0,.81-1.83h-.05a1,1,0,0,0-.41-.09Z" transform="translate(0.5 9.5)"/><polygon class="cls-7" points="464.09 405.97 487.69 410.98 481.38 421.98 457.79 416.96 464.09 405.97"/><path class="cls-4" d="M463.59,396.47l0,0a1,1,0,1,0,1.74,1l0,0a1,1,0,0,0,.13-.6l-1.86-.4Zm14.83,13.46a1,1,0,0,0-.21,2h.06l.21,0a1,1,0,0,0,.21-2h-.05l-.21,0Zm-9.73-12.36a1,1,0,0,0-.21,2h.05l.21,0a1,1,0,0,0,.21-2h-.06l-.21,0Z" transform="translate(0.5 9.5)"/><polygon class="cls-7" points="490.62 410.78 514.74 410.78 510.86 422.84 486.74 422.84 490.62 410.78"/><path class="cls-4" d="M514.24,401.28h-.05a1,1,0,0,0-.54,1.84l.59-1.84ZM488,410a1,1,0,0,0-1,.69l0,.05a1,1,0,1,0,1.9.61l0-.05a1,1,0,0,0-1-1.31Zm23.6-4.91a1,1,0,0,0-1,.69l0,.05a1,1,0,1,0,1.9.61l0-.05a1,1,0,0,0-1-1.31Z" transform="translate(0.5 9.5)"/><polygon class="cls-7" points="517.57 409.97 541.16 404.96 539.88 417.56 516.28 422.58 517.57 409.97"/><path class="cls-4" d="M540.66,395.46h-.05a1,1,0,0,0-.14,1.91l.2-1.93Zm-23.61,14a1,1,0,0,0-1,.9v.05h0a1,1,0,0,0,.89,1.1h.1a1,1,0,0,0,1-.9v-.05a1,1,0,0,0-.89-1.1Zm22.06-9.71a1,1,0,0,0-1,.9v.05a1,1,0,0,0,.89,1.1h.1a1,1,0,0,0,1-.9v-.06a1,1,0,0,0-.89-1.1Z" transform="translate(0.5 9.5)"/><polygon class="cls-7" points="543.76 403.58 565.8 393.77 567.16 406.36 545.13 416.17 543.76 403.58"/><path class="cls-4" d="M565.3,384.27h0l-.05,0a1,1,0,0,0,.26,1.9l-.21-1.93Zm-20,18.58h-.11a1,1,0,0,0-.89,1.1v0h0v0a1,1,0,0,0,1,.89h.11a1,1,0,0,0,.89-1.1v-.05a1,1,0,0,0-1-.89Zm19.56-14.08h-.11a1,1,0,0,0-.89,1.1v.05a1,1,0,0,0,1,.89H565a1,1,0,0,0,.89-1.1v-.05a1,1,0,0,0-1-.89Z" transform="translate(0.5 9.5)"/><polygon class="cls-7" points="568.05 391.88 587.57 377.7 591.52 389.74 572 403.91 568.05 391.88"/><path class="cls-4" d="M587.07,368.2h0l0,0a1,1,0,0,0,.59,1.81h.06l-.6-1.84ZM571.6,390.5a1,1,0,0,0-1,1.31l0,.05a1,1,0,0,0,1.9-.62l0-.05a1,1,0,0,0-.95-.69Zm16.21-17.84a1,1,0,0,0-1,1.31l0,.05a1,1,0,1,0,1.9-.62l0-.05a1,1,0,0,0-.95-.69Z" transform="translate(0.5 9.5)"/><polygon class="cls-7" points="589.46 375.63 605.21 357.35 611.81 368.16 596.06 386.44 589.46 375.63"/><path class="cls-4" d="M604.71,347.85h0l0,0a1,1,0,0,0,1,1.61l-1-1.65ZM595,373.08a1,1,0,0,0-.85,1.52l0,0h0a1,1,0,0,0,1.71-1l0,0a1,1,0,0,0-.85-.48ZM606.68,352a1,1,0,0,0-.85,1.52l0,0a1,1,0,0,0,1.71-1h0l0,0a1,1,0,0,0-.85-.48Z" transform="translate(0.5 9.5)"/><polygon class="cls-7" points="606.81 354.81 618.87 333.92 627.38 343.31 615.32 364.2 606.81 354.81"/><path class="cls-4" d="M618.37,324.42h0l0,0a1,1,0,0,0,1.33,1.39l-1.3-1.43ZM613.72,351a1,1,0,0,0-.74,1.67h0l0,0a1,1,0,0,0,1.48-1.34l0,0a1,1,0,0,0-.74-.33Zm7.55-22.89a1,1,0,0,0-.74,1.67l0,0a1,1,0,1,0,1.48-1.34l0,0h0a1,1,0,0,0-.74-.33Z" transform="translate(0.5 9.5)"/><polygon class="cls-7" points="619.59 331.07 627.04 308.13 637.31 315.54 629.86 338.48 619.59 331.07"/><path class="cls-4" d="M626.54,298.63h0l0,.05a1,1,0,0,0,1.59,1.08l-1.57-1.13Zm1.19,26.94a1,1,0,0,0-.59,1.81l0,0a1,1,0,0,0,1.17-1.62l0,0a1,1,0,0,0-.58-.19Zm2.63-24a1,1,0,0,0-.59,1.81l0,0a1,1,0,0,0,1.17-1.62l0,0a1,1,0,0,0-.58-.19Z" transform="translate(0.5 9.5)"/><polygon class="cls-7" points="627.14 305.19 629.67 281.2 641.26 286.31 638.73 310.31 627.14 305.19"/><path class="cls-4" d="M629.17,271.7h0v0a1,1,0,0,0,.89,1.1h.11a1,1,0,0,0,.78-.38l-1.77-.78Zm7,26.09a1,1,0,0,0-.4,1.92l.05,0a1,1,0,1,0,.81-1.83l-.05,0a1,1,0,0,0-.4-.09Zm-2.41-24a1,1,0,0,0-.4,1.92l.05,0a1,1,0,1,0,.81-1.83h-.05a1,1,0,0,0-.4-.08Z" transform="translate(0.5 9.5)"/><polygon class="cls-7" points="629.16 278.3 626.63 254.31 639.04 256.91 641.56 280.9 629.16 278.3"/><path class="cls-4" d="M626.14,244.81v.05a1,1,0,0,0,1,.9h.11a1,1,0,0,0,.79-.55l-1.9-.4Zm12.45,24a1,1,0,0,0-.2,2h.06l.2,0a1,1,0,0,0,.2-2h-.05l-.21,0Zm-7.35-23a1,1,0,0,0-.2,2h.05l.21,0a1,1,0,0,0,.21-2h-.06l-.21,0Z" transform="translate(0.5 9.5)"/><polygon class="cls-7" points="625.54 251.59 618.08 228.64 630.75 228.6 638.21 251.54 625.54 251.59"/><path class="cls-4" d="M630.25,219.1h-.06a1,1,0,0,0,0,2h.06a1,1,0,0,0,.58-.19l-.59-1.81Zm-5.11,19.07a1,1,0,0,0-1,1.31l0,.06a1,1,0,0,0,1.9-.62l0-.05a1,1,0,0,0-1-.69ZM631,223.57a1,1,0,0,0-1,1.31l0,.05a1,1,0,0,0,1.9-.62v-.05a1,1,0,0,0-1-.69Z" transform="translate(0.5 9.5)"/><polygon class="cls-7" points="616.44 226.2 604.38 205.31 616.76 202.64 628.82 223.53 616.44 226.2"/><path class="cls-4" d="M616.26,193.14h-.05a1,1,0,0,0,.21,2l.21,0h.05a1,1,0,0,0,.53-.31l-1-1.65Zm-.83,19.69a1,1,0,0,0-.87,1.5l0,.05a1,1,0,0,0,1.73-1l0,0a1,1,0,0,0-.87-.5Zm2.67-15.5a1,1,0,0,0-.87,1.5l0,0a1,1,0,0,0,1.73-1h0l0,0a1,1,0,0,0-.87-.5Z" transform="translate(0.5 9.5)"/><polygon class="cls-7" points="602.26 203.27 586.12 185.34 597.68 180.15 613.82 198.08 602.26 203.27"/><path class="cls-4" d="M597.18,170.65l-.05,0a1,1,0,1,0,.82,1.82l.05,0a1,1,0,0,0,.45-.41l-1.27-1.42Zm3.5,19.41a1,1,0,0,0-.74,1.67l0,0,0,0a1,1,0,0,0,1.48-1.34l0,0a1,1,0,0,0-.74-.33Zm-.61-15.72a1,1,0,0,0-.74,1.67l0,0a1,1,0,0,0,1.49-1.34l0,0a1,1,0,0,0-.74-.33Z" transform="translate(0.5 9.5)"/><polygon class="cls-7" points="583.63 183.78 564.11 169.6 574.34 162.12 593.86 176.3 583.63 183.78"/><path class="cls-4" d="M573.84,152.62l0,0a1,1,0,1,0,1.18,1.61l0,0a1,1,0,0,0,.36-.5l-1.54-1.12Zm7.66,18.24a1,1,0,0,0-.59,1.81h0l0,0a1,1,0,0,0,1.17-1.62l0,0a1,1,0,0,0-.59-.19Zm-3.87-15.25a1,1,0,0,0-.59,1.81l0,0a1,1,0,0,0,1.18-1.62l0,0a1,1,0,0,0-.59-.19Z" transform="translate(0.5 9.5)"/><polygon class="cls-7" points="561.35 168.6 539.31 158.78 547.76 149.34 569.8 159.15 561.35 168.6"/><path class="cls-4" d="M547.26,139.84l0,0a1,1,0,1,0,1.49,1.33l0,0a1,1,0,0,0,.25-.56l-1.74-.77Zm11.5,16.23a1,1,0,0,0-.41,1.91l.05,0a1,1,0,0,0,.81-1.83l-.05,0a1,1,0,0,0-.41-.09Zm-7-14.11a1,1,0,0,0-.41,1.91l.05,0a1,1,0,1,0,.81-1.83h-.05a1,1,0,0,0-.4-.09Z" transform="translate(0.5 9.5)"/><polygon class="cls-7" points="536.4 158.37 512.81 153.36 519.11 142.37 542.7 147.38 536.4 158.37"/><path class="cls-4" d="M518.61,132.87l0,0a1,1,0,1,0,1.74,1l0,0a1,1,0,0,0,.13-.6l-1.86-.4Zm14.83,13.46a1,1,0,0,0-.21,2h.06l.21,0a1,1,0,0,0,.21-2h-.05l-.21,0ZM523.7,134a1,1,0,0,0-.21,2h.05l.21,0a1,1,0,0,0,.21-2h-.06l-.21,0Z" transform="translate(0.5 9.5)"/><rect class="cls-7" x="498.64" y="115.5" width="3.71" height="13"/><rect class="cls-7" x="486.98" y="106.34" width="3.71" height="13" transform="translate(-6.18 43.87) rotate(-4)"/><rect class="cls-7" x="475.87" y="107.45" width="3.71" height="13" transform="translate(-10.71 77.1) rotate(-8)"/><rect class="cls-7" x="464.86" y="109.34" width="3.71" height="13" transform="translate(-13.39 109.07) rotate(-12)"/><rect class="cls-7" x="454.01" y="111.99" width="3.71" height="13" transform="translate(-14.5 139.74) rotate(-16)"/><rect class="cls-7" x="443.37" y="115.39" width="3.71" height="13" transform="translate(-14.34 169.13) rotate(-20)"/><rect class="cls-7" x="433" y="119.53" width="3.71" height="13" transform="translate(-13.16 197.27) rotate(-24)"/><rect class="cls-7" x="422.94" y="124.38" width="3.71" height="13" transform="translate(-11.22 224.25) rotate(-28)"/><rect class="cls-7" x="413.24" y="129.91" width="3.71" height="13" transform="translate(-8.71 250.2) rotate(-32)"/><rect class="cls-7" x="403.95" y="136.12" width="3.71" height="13" transform="translate(-5.82 275.27) rotate(-36)"/><rect class="cls-7" x="395.12" y="142.95" width="3.71" height="13" transform="translate(-2.69 299.64) rotate(-40)"/><rect class="cls-7" x="386.79" y="150.38" width="3.71" height="13" transform="translate(0.6 323.51) rotate(-44)"/><rect class="cls-7" x="371.77" y="166.9" width="3.71" height="13" transform="translate(7.46 370.57) rotate(-52)"/><rect class="cls-7" x="365.17" y="175.91" width="3.71" height="13" transform="matrix(0.56, -0.83, 0.83, 0.56, 11.06, 394.18)"/><rect class="cls-7" x="359.2" y="185.35" width="3.71" height="13" transform="translate(14.88 418.11) rotate(-60)"/><rect class="cls-7" x="353.91" y="195.19" width="3.71" height="13" transform="translate(19.04 442.54) rotate(-64)"/><rect class="cls-7" x="349.32" y="205.37" width="3.71" height="13" transform="translate(23.69 467.61) rotate(-68)"/><rect class="cls-7" x="345.46" y="215.84" width="3.71" height="13" transform="translate(29.03 493.45) rotate(-72)"/><rect class="cls-7" x="342.33" y="226.56" width="3.71" height="13" transform="translate(35.28 520.14) rotate(-76)"/><rect class="cls-7" x="339.95" y="237.48" width="3.71" height="13" transform="translate(42.69 547.73) rotate(-80)"/><rect class="cls-7" x="338.35" y="248.53" width="3.71" height="13" transform="translate(51.51 576.21) rotate(-84)"/><rect class="cls-7" x="337.52" y="259.67" width="3.71" height="13" transform="translate(62.03 605.54) rotate(-88)"/><rect class="cls-7" x="338.19" y="281.98" width="3.71" height="13" transform="translate(89.19 666.32) rotate(-96)"/><rect class="cls-7" x="339.69" y="293.05" width="3.71" height="13" transform="translate(106.37 697.42) rotate(-100)"/><rect class="cls-7" x="341.96" y="303.98" width="3.71" height="13" transform="translate(126.24 728.7) rotate(-104)"/><rect class="cls-7" x="344.99" y="314.73" width="3.71" height="13" transform="translate(149.02 759.87) rotate(-108)"/><rect class="cls-7" x="348.76" y="325.24" width="3.71" height="13" transform="translate(174.88 790.6) rotate(-112)"/><rect class="cls-7" x="353.26" y="335.47" width="3.71" height="13" transform="translate(203.93 820.55) rotate(-116)"/><rect class="cls-7" x="358.45" y="345.35" width="3.71" height="13" transform="translate(236.25 849.31) rotate(-120)"/><rect class="cls-7" x="364.33" y="354.85" width="3.71" height="13" transform="translate(271.88 876.49) rotate(-124)"/><rect class="cls-7" x="370.85" y="363.91" width="3.71" height="13" transform="translate(310.78 901.66) rotate(-128)"/><rect class="cls-7" x="377.99" y="372.5" width="3.71" height="13" transform="translate(352.86 924.39) rotate(-132)"/><rect class="cls-7" x="393.97" y="388.09" width="3.71" height="13" transform="translate(445.92 960.79) rotate(-140)"/><rect class="cls-7" x="402.74" y="395" width="3.71" height="13" transform="translate(496.43 973.64) rotate(-144)"/><rect class="cls-7" x="411.97" y="401.29" width="3.71" height="13" transform="translate(549.18 982.41) rotate(-148)"/><rect class="cls-7" x="421.62" y="406.92" width="3.71" height="13" transform="translate(603.79 986.76) rotate(-152)"/><rect class="cls-7" x="431.63" y="411.86" width="3.71" height="13" transform="translate(659.83 986.37) rotate(-156)"/><rect class="cls-7" x="441.96" y="416.09" width="3.71" height="13" transform="translate(716.84 981) rotate(-160)"/><rect class="cls-7" x="452.57" y="419.6" width="3.71" height="13" transform="translate(774.3 970.44) rotate(-164)"/><rect class="cls-7" x="463.39" y="422.35" width="3.71" height="13" transform="translate(831.67 954.56) rotate(-168)"/><rect class="cls-7" x="474.38" y="424.34" width="3.71" height="13" transform="translate(888.38 933.26) rotate(-172)"/><rect class="cls-7" x="485.48" y="425.56" width="3.71" height="13" transform="translate(943.86 906.56) rotate(-176)"/><rect class="cls-7" x="507.81" y="425.66" width="3.71" height="13" transform="translate(1048.73 837.22) rotate(176)"/><rect class="cls-7" x="518.92" y="424.55" width="3.71" height="13" transform="translate(1096.97 794.92) rotate(172)"/><rect class="cls-7" x="529.93" y="422.66" width="3.71" height="13" transform="translate(1141.67 747.88) rotate(168)"/><rect class="cls-7" x="540.77" y="420.01" width="3.71" height="13" transform="translate(1182.3 696.43) rotate(164)"/><rect class="cls-7" x="551.41" y="416.61" width="3.71" height="13" transform="translate(1218.38 640.97) rotate(160)"/><rect class="cls-7" x="561.79" y="412.47" width="3.71" height="13" transform="translate(1249.47 581.97) rotate(156)"/><rect class="cls-7" x="571.85" y="407.62" width="3.71" height="13" transform="translate(1275.17 519.94) rotate(152)"/><rect class="cls-7" x="581.54" y="402.09" width="3.71" height="13" transform="translate(1295.17 455.43) rotate(148)"/><rect class="cls-7" x="590.83" y="395.88" width="3.71" height="13" transform="translate(1309.2 389.04) rotate(144)"/><rect class="cls-7" x="599.66" y="389.05" width="3.71" height="13" transform="translate(1317.07 321.41) rotate(140)"/><rect class="cls-7" x="615.79" y="373.62" width="3.71" height="13" transform="translate(1313.92 184.96) rotate(132)"/><rect class="cls-7" x="623.01" y="365.1" width="3.71" height="13" transform="translate(1302.9 117.47) rotate(128)"/><rect class="cls-7" x="629.62" y="356.09" width="3.71" height="13" transform="translate(1285.7 51.33) rotate(124)"/><rect class="cls-7" x="635.58" y="346.65" width="3.71" height="13" transform="translate(1262.5 -12.81) rotate(120)"/><rect class="cls-7" x="640.87" y="336.81" width="3.71" height="13" transform="translate(1233.55 -74.37) rotate(116)"/><rect class="cls-7" x="645.46" y="326.63" width="3.71" height="13" transform="translate(1199.18 -132.76) rotate(112)"/><rect class="cls-7" x="649.33" y="316.16" width="3.71" height="13" transform="translate(1159.78 -187.45) rotate(108)"/><rect class="cls-7" x="652.46" y="305.44" width="3.71" height="13" transform="translate(1115.78 -237.98) rotate(104)"/><rect class="cls-7" x="654.83" y="294.52" width="3.71" height="13" transform="translate(1067.67 -283.92) rotate(100)"/><rect class="cls-7" x="656.44" y="283.47" width="3.71" height="13" transform="translate(1015.99 -324.91) rotate(96)"/><rect class="cls-7" x="657.32" y="261.17" width="3.71" height="13" transform="translate(904.18 -390.95) rotate(88)"/><rect class="cls-7" x="656.59" y="250.02" width="3.71" height="13" transform="translate(845.24 -415.64) rotate(84)"/><rect class="cls-7" x="655.09" y="238.95" width="3.71" height="13" transform="matrix(0.17, 0.98, -0.98, 0.17, 785.1, -434.64)"/><rect class="cls-7" x="652.82" y="228.02" width="3.71" height="13" transform="translate(724.35 -447.95) rotate(76)"/><rect class="cls-7" x="649.79" y="217.27" width="3.71" height="13" transform="translate(663.6 -455.64) rotate(72)"/><rect class="cls-7" x="646.02" y="206.76" width="3.71" height="13" transform="translate(603.41 -457.83) rotate(68)"/><rect class="cls-7" x="641.53" y="196.53" width="3.71" height="13" transform="translate(544.33 -454.74) rotate(64)"/><rect class="cls-7" x="636.33" y="186.65" width="3.71" height="13" transform="translate(486.87 -446.61) rotate(60)"/><rect class="cls-7" x="630.46" y="177.15" width="3.71" height="13" transform="translate(431.48 -433.76) rotate(56)"/><rect class="cls-7" x="623.94" y="168.09" width="3.71" height="13" transform="matrix(0.62, 0.79, -0.79, 0.62, 378.59, -416.53)"/><rect class="cls-7" x="616.8" y="159.5" width="3.71" height="13" transform="translate(328.55 -395.33) rotate(48)"/><rect class="cls-7" x="609.08" y="151.43" width="3.71" height="13" transform="translate(281.67 -370.57) rotate(44)"/><rect class="cls-7" x="600.81" y="143.91" width="3.71" height="13" transform="translate(238.18 -342.7) rotate(40)"/><rect class="cls-7" x="592.05" y="137" width="3.71" height="13" transform="translate(198.27 -312.18) rotate(36)"/><rect class="cls-7" x="582.82" y="130.71" width="3.71" height="13" transform="translate(162.05 -279.48) rotate(32)"/><rect class="cls-7" x="573.17" y="125.08" width="3.71" height="13" transform="translate(129.58 -245.06) rotate(28)"/><rect class="cls-7" x="563.16" y="120.14" width="3.71" height="13" transform="translate(100.86 -209.36) rotate(24)"/><rect class="cls-7" x="552.82" y="115.91" width="3.71" height="13" transform="translate(75.82 -172.83) rotate(20)"/><rect class="cls-7" x="542.22" y="112.4" width="3.71" height="13" transform="translate(54.35 -135.86) rotate(16)"/><rect class="cls-7" x="531.39" y="109.65" width="3.71" height="13" transform="translate(36.3 -98.83) rotate(12)"/><rect class="cls-7" x="520.4" y="107.66" width="3.71" height="13" transform="translate(21.47 -62.07) rotate(8)"/><rect class="cls-7" x="509.3" y="106.44" width="3.71" height="13" transform="translate(9.62 -25.88) rotate(4)"/><rect class="cls-8" x="486.73" y="99.38" width="3.71" height="20" transform="translate(-5.94 43.85) rotate(-4)"/><rect class="cls-8" x="376.43" y="152.96" width="3.71" height="20" transform="translate(4.56 344.54) rotate(-48)"/><rect class="cls-8" x="334.31" y="268.13" width="3.71" height="20" transform="translate(70.44 633.3) rotate(-92)"/><rect class="cls-8" x="384.01" y="380.23" width="3.71" height="20" transform="translate(392.86 948.48) rotate(-136)"/><rect class="cls-8" x="497.63" y="426.34" width="3.71" height="20" transform="translate(999.48 882.18) rotate(-180)"/><rect class="cls-8" x="611.4" y="380.58" width="3.71" height="20" transform="translate(1326.22 255.04) rotate(136)"/><rect class="cls-8" x="661.45" y="268.64" width="3.71" height="20" transform="translate(965.42 -365.04) rotate(92)"/><rect class="cls-8" x="619.69" y="153.34" width="3.71" height="20" transform="translate(327.54 -398.35) rotate(48)"/><polygon class="cls-9" points="519.5 48.5 489.5 48.5 486.82 28.5 523.5 28.5 519.5 48.5"/><polygon class="cls-9" points="470.52 49.5 441.18 55.73 434.4 36.73 470.27 29.1 470.52 49.5"/><polygon class="cls-9" points="422.82 60.65 395.41 72.86 384.83 55.67 418.34 40.76 422.82 60.65"/><polygon class="cls-9" points="378.48 81.49 354.21 99.12 340.29 84.51 369.96 62.95 378.48 81.49"/><polygon class="cls-9" points="339.44 111.08 319.37 133.38 302.71 121.98 327.25 94.73 339.44 111.08"/><polygon class="cls-9" points="307.41 148.15 292.41 174.13 273.75 166.44 292.09 134.68 307.41 148.15"/><polygon class="cls-9" points="283.78 191.06 274.51 219.59 254.66 215.96 266 181.08 283.78 191.06"/><polygon class="cls-9" points="269.59 237.95 266.46 267.79 246.29 268.36 250.12 231.88 269.59 237.95"/><polygon class="cls-9" points="265.46 286.77 268.6 316.6 248.99 321.35 245.16 284.88 265.46 286.77"/><polygon class="cls-9" points="271.57 335.37 280.85 363.9 262.65 372.63 251.32 337.75 271.57 335.37"/><polygon class="cls-9" points="287.66 381.65 302.66 407.63 286.68 419.94 268.34 388.18 287.66 381.65"/><polygon class="cls-9" points="313.01 423.56 333.08 445.86 320.01 461.23 295.47 433.98 313.01 423.56"/><polygon class="cls-9" points="346.52 459.3 370.8 476.93 361.2 494.68 331.53 473.13 346.52 459.3"/><polygon class="cls-9" points="386.73 487.28 414.14 499.48 408.45 518.84 374.95 503.92 386.73 487.28"/><polygon class="cls-9" points="431.88 506.29 461.23 512.53 459.69 532.65 423.81 525.02 431.88 506.29"/><polygon class="cls-9" points="480 515.5 510 515.5 512.68 535.5 476 535.5 480 515.5"/><polygon class="cls-9" points="528.98 514.5 558.32 508.27 565.1 527.27 529.23 534.9 528.98 514.5"/><polygon class="cls-9" points="576.68 503.35 604.09 491.14 614.67 508.33 581.16 523.24 576.68 503.35"/><polygon class="cls-9" points="621.02 482.51 645.29 464.88 659.21 479.49 629.54 501.05 621.02 482.51"/><polygon class="cls-9" points="660.06 452.92 680.13 430.63 696.79 442.02 672.25 469.27 660.06 452.92"/><polygon class="cls-9" points="692.09 415.85 707.09 389.87 725.75 397.56 707.41 429.32 692.09 415.85"/><polygon class="cls-9" points="715.72 372.94 724.99 344.41 744.84 348.04 733.5 382.92 715.72 372.94"/><polygon class="cls-9" points="729.91 326.05 733.04 296.21 753.21 295.64 749.38 332.12 729.91 326.05"/><polygon class="cls-9" points="734.03 277.23 730.9 247.4 750.51 242.65 754.34 279.12 734.03 277.23"/><polygon class="cls-9" points="727.92 228.63 718.65 200.1 736.85 191.37 748.18 226.25 727.92 228.63"/><polygon class="cls-9" points="711.84 182.35 696.84 156.37 712.82 144.06 731.16 175.82 711.84 182.35"/><polygon class="cls-9" points="686.49 140.44 666.42 118.14 679.49 102.77 704.03 130.03 686.49 140.44"/><polygon class="cls-9" points="652.98 104.7 628.71 87.07 638.3 69.32 667.97 90.87 652.98 104.7"/><polygon class="cls-9" points="612.77 76.72 585.36 64.52 591.05 45.16 624.55 60.08 612.77 76.72"/><polygon class="cls-9" points="567.62 57.71 538.27 51.47 539.81 31.35 575.69 38.98 567.62 57.71"/><path class="cls-10" d="M686.92,271.34C686.63,348,634.34,418.46,562.71,444c-72.32,25.82-155.16,3.7-205.11-54.53a187.51,187.51,0,0,1-43.92-101C309.41,250,321,209.85,341.63,177.39,382.82,112.58,461.5,79,536.81,94.12c73.93,14.85,133.23,75,147,149.15a172.6,172.6,0,0,1,3.1,30.73c0,.65.07,3.48.06,3.49.53-1.61,0-4.49,0-6.15-.14-38.92-10.37-76.53-32.39-108.89a188.57,188.57,0,0,0-89.41-70.24c-75.5-28.18-162.78-3.55-212.6,59.67A187.78,187.78,0,0,0,312.7,259.43c-1.7,38.48,4.78,76.23,23.86,110.07C376,439.47,458,477,536.81,461.22,614.6,445.6,675.6,380,685.49,301.26A224.69,224.69,0,0,0,687,274a43.45,43.45,0,0,0,0-6.15C687,268.07,686.92,270.57,686.92,271.34Z" transform="translate(0.5 9.5)"/><rect x="1044.5" y="0.5" width="960" height="560"/><line class="cls-1" x1="2004.5" y1="560.5" x2="2004.5" y2="560.5"/><line class="cls-2" x1="1970.21" y1="560.5" x2="1061.64" y2="560.5"/><line class="cls-1" x1="1044.5" y1="560.5" x2="1044.5" y2="560.5"/><line class="cls-3" x1="1044.5" y1="525.5" x2="1044.5" y2="18"/><line class="cls-1" x1="1044.5" y1="0.5" x2="1044.5" y2="0.5"/><line class="cls-2" x1="1078.79" y1="0.5" x2="1987.36" y2="0.5"/><line class="cls-1" x1="2004.5" y1="0.5" x2="2004.5" y2="0.5"/><line class="cls-3" x1="2004.5" y1="35.5" x2="2004.5" y2="543"/><circle cx="1544.25" cy="273.17" r="160"/><circle cx="1544.25" cy="273.17" r="108.5"/><path class="cls-4" d="M1543.75,155.17h-.06a1,1,0,0,0,0,2h.05a1,1,0,0,1,.64,0h.06a1,1,0,0,0,0-2h-.06a1,1,0,0,1-.65,0Zm-33.2,5.22a1,1,0,0,0-.31,0h-.06a1,1,0,0,0,.62,1.9l.05,0a1,1,0,0,0-.31-2Zm-29.94,15.26a1,1,0,0,0-.58.19l0,0h0a1,1,0,0,0,1.18,1.62l0,0a1,1,0,0,0-.59-1.81Zm-23.78,23.74a1,1,0,0,0-.81.41h0l0,0a1,1,0,0,0,1.62,1.17l0,0a1,1,0,0,0-.81-1.59Zm-15.31,29.91a1,1,0,0,0-1,.69l0,.06a1,1,0,0,0,1.9.61l0-.05a1,1,0,0,0-1-1.31Zm-5.28,33.19a1,1,0,0,0-1,1v0h0a1,1,0,0,0,1,1h0a1,1,0,0,0,1-1v-.05a1,1,0,0,0-1-1Zm5.17,33.2a1,1,0,0,0-1,1.31l0,.05h0a1,1,0,0,0,1.9-.62l0-.05a1,1,0,0,0-1-.69Zm15.21,30a1,1,0,0,0-.81,1.58v0l0,0a1,1,0,0,0,1.62-1.17l0,0a1,1,0,0,0-.81-.41Zm23.71,23.82a1,1,0,0,0-.59,1.8l0,0h0a1,1,0,0,0,1.18-1.62l0,0a1,1,0,0,0-.59-.19Zm29.89,15.36a1,1,0,0,0-.32,1.95l.06,0a1,1,0,0,0,.62-1.9l-.05,0a1,1,0,0,0-.31-.05Zm33.18,5.33a1,1,0,0,0,0,2h.06a1,1,0,0,0,0-2h-.06Zm33.27-5.13a1,1,0,0,0-.31,0l-.05,0a1,1,0,1,0,.61,1.9l.06,0a1,1,0,0,0-.31-2Zm30-15.18a1,1,0,0,0-.58.19l0,0a1,1,0,1,0,1.17,1.62l0,0a1,1,0,0,0-.59-1.81Zm23.85-23.68a1,1,0,0,0-.81.41l0,0a1,1,0,1,0,1.61,1.18l0,0,0,0a1,1,0,0,0-.81-1.59Zm15.39-29.87a1,1,0,0,0-.95.69l0,.05a1,1,0,1,0,1.9.63v-.06a1,1,0,0,0-1-1.31Zm5.37-33.17a1,1,0,0,0-1,1v.05a1,1,0,0,0,1,1h0a1,1,0,0,0,1-1v-.06a1,1,0,0,0-1-1Zm-5.08-33.22a1,1,0,0,0-1,1.3l0,.05a1,1,0,0,0,1.91-.6v-.06a1,1,0,0,0-1-.69Zm-15.13-30a1,1,0,0,0-.81,1.58l0,0a1,1,0,1,0,1.62-1.17v0h0a1,1,0,0,0-.81-.42ZM1607.4,176a1,1,0,0,0-.59,1.81l0,0a1,1,0,0,0,1.19-1.61h0l0,0a1,1,0,0,0-.59-.19Zm-29.85-15.44a1,1,0,0,0-.31,1.95l.05,0a1,1,0,1,0,.63-1.9h-.06a1,1,0,0,0-.31,0Z" transform="translate(0.5 9.5)"/><path class="cls-5" d="M1544,130a134,134,0,1,1-94.75,39.25A133.12,133.12,0,0,1,1544,130m0-6a140,140,0,1,0,140,140,140,140,0,0,0-140-140Z" transform="translate(0.5 9.5)"/><circle class="cls-11" cx="1543.75" cy="273" r="17.5"/><polygon class="cls-7" points="1553.87 144.56 1529.75 144.56 1533.63 132.5 1557.75 132.5 1553.87 144.56"/><path class="cls-4" d="M1557.25,123h-.05a1,1,0,0,0-.54,1.84l.59-1.84ZM1531,131.76a1,1,0,0,0-1,.69l0,.06a1,1,0,0,0,1.9.61l0-.05a1,1,0,0,0-1-1.31Zm23.6-4.91a1,1,0,0,0-1,.69l0,.05a1,1,0,1,0,1.9.61l0-.05a1,1,0,0,0-1-1.31Z" transform="translate(0.5 9.5)"/><polygon class="cls-7" points="1526.92 145.37 1503.33 150.39 1504.61 137.78 1528.21 132.77 1526.92 145.37"/><path class="cls-4" d="M1527.71,123.27h-.05a1,1,0,0,0-.14,1.91l.2-1.93Zm-23.61,14a1,1,0,0,0-1,.9v.06a1,1,0,0,0,.89,1.1h.1a1,1,0,0,0,1-.9v-.05a1,1,0,0,0-.89-1.1Zm22.06-9.71a1,1,0,0,0-1,.9v.05a1,1,0,0,0,.89,1.1h.1a1,1,0,0,0,1-.9v-.06a1,1,0,0,0-.89-1.09Z" transform="translate(0.5 9.5)"/><polygon class="cls-7" points="1500.73 151.76 1478.69 161.58 1477.33 148.98 1499.37 139.17 1500.73 151.76"/><path class="cls-4" d="M1498.87,129.67h0l-.05,0a1,1,0,0,0,.26,1.9l-.21-1.93Zm-20,18.58h-.11a1,1,0,0,0-.89,1.1v.06a1,1,0,0,0,1,.89h.11a1,1,0,0,0,.89-1.1v-.05a1,1,0,0,0-1-.89Zm19.56-14.08h-.11a1,1,0,0,0-.89,1.1v.05a1,1,0,0,0,1,.89h.11a1,1,0,0,0,.89-1.1v0h0v0a1,1,0,0,0-1-.89Z" transform="translate(0.5 9.5)"/><polygon class="cls-7" points="1476.44 163.47 1456.92 177.64 1452.97 165.61 1472.49 151.43 1476.44 163.47"/><path class="cls-4" d="M1472,141.93h0l0,0a1,1,0,0,0,.59,1.81h.06l-.6-1.84Zm-15.47,22.3a1,1,0,0,0-1,1.31v.06a1,1,0,0,0,1.9-.62l0-.05a1,1,0,0,0-.95-.69Zm16.21-17.84a1,1,0,0,0-1,1.31l0,.05a1,1,0,0,0,1.9-.62l0-.05a1,1,0,0,0-.95-.69Z" transform="translate(0.5 9.5)"/><polygon class="cls-7" points="1455.11 179.96 1438.97 197.89 1432.6 186.94 1448.74 169.01 1455.11 179.96"/><path class="cls-4" d="M1448.24,159.51h0l0,0a1,1,0,0,0,1,1.63l-1-1.67Zm-10.28,25a1,1,0,0,0-.86,1.5l0,.05a1,1,0,0,0,1.73-1l0,0a1,1,0,0,0-.87-.5Zm12.14-20.82a1,1,0,0,0-.86,1.5l0,0a1,1,0,0,0,1.73-1v-.05a1,1,0,0,0-.87-.5Z" transform="translate(0.5 9.5)"/><polygon class="cls-7" points="1437.68 200.53 1425.62 221.42 1417.11 212.03 1429.17 191.14 1437.68 200.53"/><path class="cls-4" d="M1428.67,181.64h0l0,0a1,1,0,0,0,1.33,1.39l-1.3-1.43ZM1424,208.22a1,1,0,0,0-.74,1.67h0l0,0a1,1,0,0,0,1.48-1.34l0,0a1,1,0,0,0-.74-.33Zm7.55-22.89a1,1,0,0,0-.74,1.67l0,0a1,1,0,1,0,1.48-1.34v0l0,0a1,1,0,0,0-.74-.33Z" transform="translate(0.5 9.5)"/><polygon class="cls-7" points="1424.91 224.27 1417.45 247.22 1407.18 239.8 1414.63 216.86 1424.91 224.27"/><path class="cls-4" d="M1414.13,207.36h0l0,.05a1,1,0,0,0,1.59,1.08l-1.57-1.13Zm1.19,26.94a1,1,0,0,0-.59,1.81l0,0a1,1,0,0,0,1.17-1.62l0,0a1,1,0,0,0-.58-.19Zm2.63-24a1,1,0,0,0-.59,1.81l0,0a1,1,0,1,0,1.17-1.62l0,0a1,1,0,0,0-.58-.19Z" transform="translate(0.5 9.5)"/><polygon class="cls-7" points="1417.35 250.15 1414.83 274.14 1403.23 269.03 1405.76 245.04 1417.35 250.15"/><path class="cls-4" d="M1405.26,235.54h0v0a1,1,0,0,0,.89,1.1h.11a1,1,0,0,0,.78-.38l-1.77-.78Zm7,26.09a1,1,0,0,0-.4,1.92h.05a1,1,0,0,0,.8-1.83l-.05,0a1,1,0,0,0-.4-.09Zm-2.41-24a1,1,0,0,0-.4,1.92l.05,0a1,1,0,1,0,.81-1.83l0,0h0a1,1,0,0,0-.4-.08Z" transform="translate(0.5 9.5)"/><polygon class="cls-7" points="1415.33 277.04 1417.86 301.03 1405.45 298.44 1402.93 274.44 1415.33 277.04"/><path class="cls-4" d="M1402.43,264.94V265a1,1,0,0,0,1,.9h.11a1,1,0,0,0,.79-.55l-1.9-.4Zm12.45,24a1,1,0,0,0-.2,2h.06l.2,0a1,1,0,0,0,.2-2h-.05l-.21,0Zm-7.35-23a1,1,0,0,0-.2,2h.05l.21,0a1,1,0,0,0,.21-2h-.06l-.21,0Z" transform="translate(0.5 9.5)"/><polygon class="cls-7" points="1418.96 303.76 1426.41 326.7 1413.74 326.74 1406.29 303.8 1418.96 303.76"/><path class="cls-4" d="M1418.46,294.26h-.06a1,1,0,0,0,0,2h.06a1,1,0,0,0,.58-.19l-.59-1.81Zm-5.11,19.07a1,1,0,0,0-1,1.31l0,.06a1,1,0,0,0,1.9-.62l0-.05a1,1,0,0,0-1-.69Zm5.83-14.61a1,1,0,0,0-1,1.31l0,.05a1,1,0,1,0,1.9-.62v0h0a1,1,0,0,0-1-.69Z" transform="translate(0.5 9.5)"/><polygon class="cls-7" points="1428.05 329.14 1440.11 350.03 1427.73 352.7 1415.67 331.81 1428.05 329.14"/><path class="cls-4" d="M1427.55,319.64h-.05a1,1,0,0,0,.21,2l.21,0h.05a1,1,0,0,0,.53-.31l-1-1.65Zm-.83,19.69a1,1,0,0,0-.87,1.5l0,.05a1,1,0,0,0,1.73-1l0,0a1,1,0,0,0-.87-.5Zm2.67-15.5a1,1,0,0,0-.87,1.5l0,0a1,1,0,0,0,1.73-1l0-.05a1,1,0,0,0-.87-.5Z" transform="translate(0.5 9.5)"/><polygon class="cls-7" points="1442.23 352.07 1458.37 370 1446.81 375.19 1430.67 357.26 1442.23 352.07"/><path class="cls-4" d="M1441.73,342.57l-.05,0a1,1,0,1,0,.82,1.82l.05,0a1,1,0,0,0,.45-.41l-1.27-1.42Zm3.49,19.41a1,1,0,0,0-.74,1.67h0l0,0a1,1,0,0,0,1.48-1.34l0,0a1,1,0,0,0-.74-.33Zm-.61-15.72a1,1,0,0,0-.74,1.67l0,0a1,1,0,0,0,1.49-1.34l0,0h0a1,1,0,0,0-.74-.33Z" transform="translate(0.5 9.5)"/><polygon class="cls-7" points="1460.86 371.56 1480.38 385.74 1470.15 393.22 1450.64 379.04 1460.86 371.56"/><path class="cls-4" d="M1460.36,362.06l0,0a1,1,0,1,0,1.18,1.61l0,0a1,1,0,0,0,.36-.5l-1.54-1.12ZM1468,380.3a1,1,0,0,0-.59,1.81l0,0h0a1,1,0,0,0,1.18-1.62l0,0a1,1,0,0,0-.59-.19Zm-3.87-15.25a1,1,0,0,0-.59,1.81l0,0a1,1,0,0,0,1.18-1.62h0l0,0a1,1,0,0,0-.59-.19Z" transform="translate(0.5 9.5)"/><polygon class="cls-7" points="1483.14 386.75 1505.18 396.56 1496.73 406 1474.69 396.19 1483.14 386.75"/><path class="cls-4" d="M1482.64,377.25l0,0a1,1,0,1,0,1.49,1.33l0,0a1,1,0,0,0,.25-.56l-1.74-.77Zm11.5,16.23a1,1,0,0,0-.41,1.91l.06,0a1,1,0,0,0,.81-1.83l-.05,0a1,1,0,0,0-.41-.09Zm-7-14.11a1,1,0,0,0-.41,1.91l.05,0a1,1,0,0,0,.81-1.83l-.05,0a1,1,0,0,0-.41-.09Z" transform="translate(0.5 9.5)"/><polygon class="cls-7" points="1508.09 396.97 1531.68 401.98 1525.38 412.98 1501.79 407.96 1508.09 396.97"/><path class="cls-4" d="M1507.59,387.47l0,0a1,1,0,1,0,1.74,1l0,0a1,1,0,0,0,.13-.6l-1.86-.4Zm14.83,13.46a1,1,0,0,0-.21,2h.06l.21,0a1,1,0,0,0,.21-2h-.05l-.21,0Zm-9.73-12.36a1,1,0,0,0-.21,2h.05l.21,0a1,1,0,0,0,.21-2h-.06l-.21,0Z" transform="translate(0.5 9.5)"/><polygon class="cls-7" points="1534.62 401.78 1558.74 401.78 1554.86 413.84 1530.74 413.84 1534.62 401.78"/><path class="cls-4" d="M1558.24,392.28h-.05a1,1,0,0,0-.54,1.84l.59-1.84ZM1532,401a1,1,0,0,0-1,.69l0,.05a1,1,0,1,0,1.9.61l0-.05a1,1,0,0,0-1-1.31Zm23.6-4.91a1,1,0,0,0-1,.69l0,.05a1,1,0,1,0,1.9.61l0-.05a1,1,0,0,0-1-1.31Z" transform="translate(0.5 9.5)"/><polygon class="cls-7" points="1561.57 400.97 1585.16 395.96 1583.88 408.56 1560.28 413.58 1561.57 400.97"/><path class="cls-4" d="M1584.66,386.46h-.05a1,1,0,0,0-.14,1.91l.2-1.93Zm-23.61,14a1,1,0,0,0-1,.9v.05h0a1,1,0,0,0,.89,1.1h.1a1,1,0,0,0,1-.9v-.05a1,1,0,0,0-.89-1.1Zm22.06-9.71a1,1,0,0,0-1,.9v.05a1,1,0,0,0,.89,1.1h.1a1,1,0,0,0,1-.9v-.06a1,1,0,0,0-.89-1.1Z" transform="translate(0.5 9.5)"/><polygon class="cls-7" points="1587.76 394.58 1609.8 384.77 1611.16 397.36 1589.13 407.17 1587.76 394.58"/><path class="cls-4" d="M1609.3,375.27h0l-.05,0a1,1,0,0,0,.26,1.9l-.21-1.93Zm-20,18.58h-.11a1,1,0,0,0-.89,1.1v0h0v0a1,1,0,0,0,1,.89h.11a1,1,0,0,0,.89-1.1v-.05a1,1,0,0,0-1-.89Zm19.56-14.08h-.11a1,1,0,0,0-.89,1.1v.05a1,1,0,0,0,1,.89h.11a1,1,0,0,0,.89-1.1v-.05a1,1,0,0,0-1-.89Z" transform="translate(0.5 9.5)"/><polygon class="cls-7" points="1612.05 382.88 1631.57 368.7 1635.52 380.74 1616.01 394.91 1612.05 382.88"/><path class="cls-4" d="M1631.07,359.2h0l0,0a1,1,0,0,0,.59,1.81h.06l-.6-1.84Zm-15.47,22.3a1,1,0,0,0-1,1.31l0,.05a1,1,0,0,0,1.9-.62l0-.05a1,1,0,0,0-.95-.69Zm16.21-17.84a1,1,0,0,0-1,1.31l0,.05a1,1,0,1,0,1.9-.62l0-.05a1,1,0,0,0-.95-.69Z" transform="translate(0.5 9.5)"/><polygon class="cls-7" points="1633.46 366.63 1649.21 348.35 1655.81 359.16 1640.06 377.44 1633.46 366.63"/><path class="cls-4" d="M1648.71,338.85h0l0,0a1,1,0,0,0,1,1.61l-1-1.65ZM1639,364.08a1,1,0,0,0-.85,1.52l0,0h0a1,1,0,0,0,1.71-1l0,0a1,1,0,0,0-.85-.48ZM1650.68,343a1,1,0,0,0-.85,1.52l0,0a1,1,0,0,0,1.71-1h0l0,0a1,1,0,0,0-.85-.48Z" transform="translate(0.5 9.5)"/><polygon class="cls-7" points="1650.81 345.81 1662.87 324.92 1671.38 334.31 1659.32 355.2 1650.81 345.81"/><path class="cls-4" d="M1662.37,315.42h0l0,0a1,1,0,0,0,1.33,1.39l-1.3-1.43ZM1657.72,342a1,1,0,0,0-.74,1.67h0l0,0a1,1,0,0,0,1.48-1.34l0,0a1,1,0,0,0-.74-.33Zm7.55-22.89a1,1,0,0,0-.74,1.67l0,0a1,1,0,1,0,1.48-1.34l0,0h0a1,1,0,0,0-.74-.33Z" transform="translate(0.5 9.5)"/><polygon class="cls-7" points="1663.59 322.07 1671.04 299.13 1681.31 306.54 1673.86 329.48 1663.59 322.07"/><path class="cls-4" d="M1670.54,289.63h0l0,.05a1,1,0,0,0,1.59,1.08l-1.57-1.13Zm1.19,26.94a1,1,0,0,0-.59,1.81l0,0a1,1,0,0,0,1.17-1.62l0,0a1,1,0,0,0-.58-.19Zm2.63-24a1,1,0,0,0-.59,1.81l0,0a1,1,0,0,0,1.17-1.62l0,0a1,1,0,0,0-.58-.19Z" transform="translate(0.5 9.5)"/><polygon class="cls-7" points="1671.14 296.19 1673.67 272.2 1685.26 277.31 1682.73 301.31 1671.14 296.19"/><path class="cls-4" d="M1673.17,262.7h0v0a1,1,0,0,0,.89,1.1h.11a1,1,0,0,0,.78-.38l-1.77-.78Zm7,26.09a1,1,0,0,0-.4,1.92h0l0,0a1,1,0,0,0,.81-1.83l-.05,0a1,1,0,0,0-.4-.09Zm-2.41-24a1,1,0,0,0-.4,1.92l.05,0a1,1,0,0,0,.81-1.83l-.05,0a1,1,0,0,0-.4-.08Z" transform="translate(0.5 9.5)"/><polygon class="cls-7" points="1673.16 269.3 1670.63 245.31 1683.04 247.91 1685.56 271.9 1673.16 269.3"/><path class="cls-4" d="M1670.14,235.81v.05a1,1,0,0,0,1,.9h.11a1,1,0,0,0,.79-.55l-1.9-.4Zm12.45,24a1,1,0,0,0-.21,2h.06l.21,0a1,1,0,0,0,.2-2h-.05l-.21,0Zm-7.35-23a1,1,0,0,0-.2,2h.05l.21,0a1,1,0,0,0,.2-2h-.06l-.2,0Z" transform="translate(0.5 9.5)"/><polygon class="cls-7" points="1669.54 242.59 1662.08 219.64 1674.75 219.6 1682.2 242.54 1669.54 242.59"/><path class="cls-4" d="M1674.25,210.1h-.06a1,1,0,0,0,0,2h.06a1,1,0,0,0,.58-.19l-.59-1.81Zm-5.11,19.07a1,1,0,0,0-1,1.31l0,.06a1,1,0,0,0,1.9-.62l0-.05a1,1,0,0,0-1-.69Zm5.83-14.61a1,1,0,0,0-1,1.31l0,.05a1,1,0,0,0,1.9-.62v-.05a1,1,0,0,0-1-.69Z" transform="translate(0.5 9.5)"/><polygon class="cls-7" points="1660.44 217.2 1648.38 196.31 1660.76 193.64 1672.82 214.53 1660.44 217.2"/><path class="cls-4" d="M1660.26,184.14h-.05a1,1,0,0,0,.21,2l.21,0h.05a1,1,0,0,0,.53-.31l-1-1.65Zm-.83,19.69a1,1,0,0,0-.87,1.5l0,.05a1,1,0,0,0,1.73-1l0,0a1,1,0,0,0-.87-.5Zm2.67-15.5a1,1,0,0,0-.87,1.5l0,0a1,1,0,0,0,1.73-1h0l0,0a1,1,0,0,0-.87-.5Z" transform="translate(0.5 9.5)"/><polygon class="cls-7" points="1646.26 194.27 1630.12 176.34 1641.68 171.15 1657.82 189.08 1646.26 194.27"/><path class="cls-4" d="M1641.18,161.65l-.05,0a1,1,0,1,0,.82,1.82l.05,0a1,1,0,0,0,.45-.41l-1.27-1.42Zm3.5,19.41a1,1,0,0,0-.74,1.67l0,0,0,0a1,1,0,0,0,1.48-1.34l0,0a1,1,0,0,0-.74-.33Zm-.61-15.72a1,1,0,0,0-.74,1.67l0,0a1,1,0,0,0,1.49-1.34l0,0a1,1,0,0,0-.74-.33Z" transform="translate(0.5 9.5)"/><polygon class="cls-7" points="1627.63 174.78 1608.11 160.6 1618.34 153.12 1637.86 167.3 1627.63 174.78"/><path class="cls-4" d="M1617.84,143.62l0,0a1,1,0,1,0,1.18,1.61l0,0a1,1,0,0,0,.36-.5l-1.54-1.12Zm7.66,18.24a1,1,0,0,0-.59,1.81h0l0,0a1,1,0,0,0,1.17-1.62l0,0a1,1,0,0,0-.59-.19Zm-3.87-15.25a1,1,0,0,0-.59,1.81l0,0a1,1,0,0,0,1.18-1.62l0,0a1,1,0,0,0-.59-.19Z" transform="translate(0.5 9.5)"/><polygon class="cls-7" points="1605.35 159.6 1583.31 149.78 1591.76 140.34 1613.8 150.15 1605.35 159.6"/><path class="cls-4" d="M1591.26,130.84l0,0a1,1,0,1,0,1.49,1.33l0,0a1,1,0,0,0,.25-.56l-1.74-.77Zm11.5,16.23a1,1,0,0,0-.41,1.91h0l0,0a1,1,0,0,0,.81-1.83l-.05,0a1,1,0,0,0-.41-.09Zm-7-14.11a1,1,0,0,0-.41,1.91l.05,0a1,1,0,0,0,.82-1.83l-.05,0a1,1,0,0,0-.4-.09Z" transform="translate(0.5 9.5)"/><polygon class="cls-7" points="1580.4 149.37 1556.81 144.36 1563.11 133.37 1586.7 138.38 1580.4 149.37"/><path class="cls-4" d="M1562.61,123.87l0,0a1,1,0,1,0,1.74,1l0,0a1,1,0,0,0,.13-.6l-1.86-.4Zm14.83,13.46a1,1,0,0,0-.21,2h.05l.21,0a1,1,0,0,0,.21-2h-.05l-.21,0ZM1567.7,125a1,1,0,0,0-.21,2h.05l.21,0a1,1,0,0,0,.21-2h-.05l-.21,0Z" transform="translate(0.5 9.5)"/><rect class="cls-7" x="1542.64" y="106.5" width="3.71" height="13"/><rect class="cls-7" x="1530.98" y="97.34" width="3.71" height="13" transform="translate(-3.01 116.68) rotate(-4)"/><rect class="cls-7" x="1519.87" y="98.45" width="3.71" height="13" transform="translate(0.7 222.3) rotate(-8)"/><rect class="cls-7" x="1508.86" y="100.34" width="3.71" height="13" transform="translate(11.3 325.93) rotate(-12)"/><rect class="cls-7" x="1498.01" y="102.99" width="3.71" height="13" transform="translate(28.42 427.16) rotate(-16)"/><rect class="cls-7" x="1487.37" y="106.39" width="3.71" height="13" transform="translate(51.7 525.66) rotate(-20)"/><rect class="cls-7" x="1477" y="110.53" width="3.71" height="13" transform="translate(80.75 621.12) rotate(-24)"/><rect class="cls-7" x="1466.94" y="115.38" width="3.71" height="13" transform="translate(115.21 713.32) rotate(-28)"/><rect class="cls-7" x="1457.24" y="120.91" width="3.71" height="13" transform="translate(154.69 802.07) rotate(-32)"/><rect class="cls-7" x="1447.95" y="127.12" width="3.71" height="13" transform="translate(198.85 887.2) rotate(-36)"/><rect class="cls-7" x="1439.12" y="133.95" width="3.71" height="13" transform="translate(247.34 968.6) rotate(-40)"/><rect class="cls-7" x="1430.79" y="141.38" width="3.71" height="13" transform="translate(299.86 1046.2) rotate(-44)"/><rect class="cls-7" x="1415.77" y="157.9" width="3.71" height="13" transform="translate(415.8 1189.79) rotate(-52)"/><rect class="cls-7" x="1409.17" y="166.91" width="3.71" height="13" transform="matrix(0.56, -0.83, 0.83, 0.56, 478.73, 1255.73)"/><rect class="cls-7" x="1403.2" y="176.35" width="3.71" height="13" transform="translate(544.68 1317.74) rotate(-60)"/><rect class="cls-7" x="1397.91" y="186.19" width="3.71" height="13" transform="translate(613.47 1375.82) rotate(-64)"/><rect class="cls-7" x="1393.32" y="196.37" width="3.71" height="13" transform="translate(684.94 1429.96) rotate(-68)"/><rect class="cls-7" x="1389.46" y="206.84" width="3.71" height="13" transform="translate(758.97 1480.13) rotate(-72)"/><rect class="cls-7" x="1386.33" y="217.56" width="3.71" height="13" transform="translate(835.44 1526.31) rotate(-76)"/><rect class="cls-7" x="1383.95" y="228.48" width="3.71" height="13" transform="translate(914.26 1568.43) rotate(-80)"/><rect class="cls-7" x="1382.35" y="239.53" width="3.71" height="13" transform="translate(995.33 1606.43) rotate(-84)"/><rect class="cls-7" x="1381.52" y="250.67" width="3.71" height="13" transform="translate(1078.58 1640.22) rotate(-88)"/><rect class="cls-7" x="1382.19" y="272.98" width="3.71" height="13" transform="translate(1251.27 1694.66) rotate(-96)"/><rect class="cls-7" x="1383.69" y="284.05" width="3.71" height="13" transform="translate(1340.52 1715) rotate(-100)"/><rect class="cls-7" x="1385.96" y="294.98" width="3.71" height="13" transform="translate(1431.54 1730.51) rotate(-104)"/><rect class="cls-7" x="1388.99" y="305.73" width="3.71" height="13" transform="translate(1524.2 1740.99) rotate(-108)"/><rect class="cls-7" x="1392.76" y="316.24" width="3.71" height="13" transform="translate(1618.31 1746.21) rotate(-112)"/><rect class="cls-7" x="1397.26" y="326.47" width="3.71" height="13" transform="translate(1713.68 1745.94) rotate(-116)"/><rect class="cls-7" x="1402.45" y="336.35" width="3.71" height="13" transform="translate(1810.05 1739.94) rotate(-120)"/><rect class="cls-7" x="1408.33" y="345.85" width="3.71" height="13" transform="translate(1907.14 1727.98) rotate(-124)"/><rect class="cls-7" x="1414.85" y="354.91" width="3.71" height="13" transform="translate(2004.62 1709.8) rotate(-128)"/><rect class="cls-7" x="1421.99" y="363.5" width="3.71" height="13" transform="translate(2102.12 1685.21) rotate(-132)"/><rect class="cls-7" x="1437.97" y="379.09" width="3.71" height="13" transform="translate(2295.45 1615.96) rotate(-140)"/><rect class="cls-7" x="1446.74" y="386" width="3.71" height="13" transform="translate(2390.33 1571.01) rotate(-144)"/><rect class="cls-7" x="1455.97" y="392.29" width="3.71" height="13" transform="translate(2483.31 1519.01) rotate(-148)"/><rect class="cls-7" x="1465.62" y="397.92" width="3.71" height="13" transform="translate(2573.81 1459.94) rotate(-152)"/><rect class="cls-7" x="1475.63" y="402.86" width="3.71" height="13" transform="translate(2661.24 1393.78) rotate(-156)"/><rect class="cls-7" x="1485.96" y="407.09" width="3.71" height="13" transform="translate(2744.96 1320.61) rotate(-160)"/><rect class="cls-7" x="1496.57" y="410.6" width="3.71" height="13" transform="translate(2824.34 1240.56) rotate(-164)"/><rect class="cls-7" x="1507.39" y="413.35" width="3.71" height="13" transform="translate(2898.73 1153.81) rotate(-168)"/><rect class="cls-7" x="1518.38" y="415.34" width="3.71" height="13" transform="translate(2967.48 1060.65) rotate(-172)"/><rect class="cls-7" x="1529.48" y="416.56" width="3.71" height="13" transform="translate(3029.94 961.41) rotate(-176)"/><rect class="cls-7" x="1551.81" y="416.66" width="3.71" height="13" transform="translate(3133.56 746.42) rotate(176)"/><rect class="cls-7" x="1562.92" y="415.55" width="3.71" height="13" transform="translate(3173.56 631.71) rotate(172)"/><rect class="cls-7" x="1573.93" y="413.66" width="3.71" height="13" transform="translate(3204.99 513.01) rotate(168)"/><rect class="cls-7" x="1584.77" y="411.01" width="3.71" height="13" transform="translate(3227.38 391.01) rotate(164)"/><rect class="cls-7" x="1595.41" y="407.61" width="3.71" height="13" transform="translate(3240.34 266.44) rotate(160)"/><rect class="cls-7" x="1605.79" y="403.47" width="3.71" height="13" transform="translate(3243.55 140.11) rotate(156)"/><rect class="cls-7" x="1615.85" y="398.62" width="3.71" height="13" transform="translate(3236.74 12.86) rotate(152)"/><rect class="cls-7" x="1625.54" y="393.09" width="3.71" height="13" transform="translate(3219.76 -114.44) rotate(148)"/><rect class="cls-7" x="1634.83" y="386.88" width="3.71" height="13" transform="translate(3192.52 -240.88) rotate(144)"/><rect class="cls-7" x="1643.66" y="380.05" width="3.71" height="13" transform="translate(3155.03 -365.56) rotate(140)"/><rect class="cls-7" x="1659.79" y="364.62" width="3.71" height="13" transform="translate(3049.81 -605.9) rotate(132)"/><rect class="cls-7" x="1667.01" y="356.1" width="3.71" height="13" transform="translate(2982.56 -719.75) rotate(128)"/><rect class="cls-7" x="1673.62" y="347.09" width="3.71" height="13" transform="translate(2906.03 -828.21) rotate(124)"/><rect class="cls-7" x="1679.58" y="337.65" width="3.71" height="13" transform="translate(2820.7 -930.44) rotate(120)"/><rect class="cls-7" x="1684.87" y="327.81" width="3.71" height="13" transform="translate(2727.12 -1025.65) rotate(116)"/><rect class="cls-7" x="1689.46" y="317.63" width="3.71" height="13" transform="translate(2625.93 -1113.11) rotate(112)"/><rect class="cls-7" x="1693.33" y="307.16" width="3.71" height="13" transform="translate(2517.83 -1192.14) rotate(108)"/><rect class="cls-7" x="1696.46" y="296.44" width="3.71" height="13" transform="translate(2403.61 -1262.15) rotate(104)"/><rect class="cls-7" x="1698.83" y="285.52" width="3.71" height="13" transform="translate(2284.1 -1322.62) rotate(100)"/><rect class="cls-7" x="1700.44" y="274.47" width="3.71" height="13" transform="translate(2160.16 -1373.13) rotate(96)"/><rect class="cls-7" x="1701.32" y="252.17" width="3.71" height="13" transform="translate(1902.75 -1443) rotate(88)"/><rect class="cls-7" x="1700.59" y="241.02" width="3.71" height="13" transform="translate(1771.16 -1461.98) rotate(84)"/><rect class="cls-7" x="1699.09" y="229.95" width="3.71" height="13" transform="matrix(0.17, 0.98, -0.98, 0.17, 1638.95, -1470.21)"/><rect class="cls-7" x="1696.82" y="219.02" width="3.71" height="13" transform="translate(1507.05 -1467.76) rotate(76)"/><rect class="cls-7" x="1693.79" y="208.27" width="3.71" height="13" transform="translate(1376.42 -1454.76) rotate(72)"/><rect class="cls-7" x="1690.02" y="197.76" width="3.71" height="13" transform="translate(1247.98 -1431.44) rotate(68)"/><rect class="cls-7" x="1685.53" y="187.53" width="3.71" height="13" transform="translate(1122.58 -1398.14) rotate(64)"/><rect class="cls-7" x="1680.33" y="177.65" width="3.71" height="13" transform="translate(1001.07 -1355.24) rotate(60)"/><rect class="cls-7" x="1674.46" y="168.15" width="3.71" height="13" transform="translate(884.22 -1303.24) rotate(56)"/><rect class="cls-7" x="1667.94" y="159.09" width="3.71" height="13" transform="matrix(0.62, 0.79, -0.79, 0.62, 772.75, -1242.67)"/><rect class="cls-7" x="1660.8" y="150.5" width="3.71" height="13" transform="translate(667.29 -1174.15) rotate(48)"/><rect class="cls-7" x="1653.08" y="142.43" width="3.71" height="13" transform="translate(568.43 -1098.32) rotate(44)"/><rect class="cls-7" x="1644.81" y="134.91" width="3.71" height="13" transform="translate(476.65 -1015.87) rotate(40)"/><rect class="cls-7" x="1636.05" y="128" width="3.71" height="13" transform="translate(392.37 -927.55) rotate(36)"/><rect class="cls-7" x="1626.82" y="121.71" width="3.71" height="13" transform="translate(315.92 -834.08) rotate(32)"/><rect class="cls-7" x="1617.17" y="116.08" width="3.71" height="13" transform="translate(247.56 -736.24) rotate(28)"/><rect class="cls-7" x="1607.16" y="111.14" width="3.71" height="13" transform="translate(187.45 -634.77) rotate(24)"/><rect class="cls-7" x="1596.82" y="106.91" width="3.71" height="13" transform="translate(135.7 -530.44) rotate(20)"/><rect class="cls-7" x="1586.22" y="103.4" width="3.71" height="13" transform="translate(92.31 -423.97) rotate(16)"/><rect class="cls-7" x="1575.39" y="100.65" width="3.71" height="13" transform="translate(57.24 -316.09) rotate(12)"/><rect class="cls-7" x="1564.4" y="98.66" width="3.71" height="13" transform="translate(30.38 -207.46) rotate(8)"/><rect class="cls-7" x="1553.3" y="97.44" width="3.71" height="13" transform="translate(11.54 -98.73) rotate(4)"/><rect class="cls-8" x="1530.73" y="90.38" width="3.71" height="20" transform="translate(-2.77 116.65) rotate(-4)"/><rect class="cls-8" x="1420.43" y="143.96" width="3.71" height="20" transform="translate(356.67 1117.41) rotate(-48)"/><rect class="cls-8" x="1378.31" y="259.13" width="3.71" height="20" transform="translate(1159.87 1667.35) rotate(-92)"/><rect class="cls-8" x="1428.01" y="371.23" width="3.71" height="20" transform="translate(2194.1 1658.23) rotate(-136)"/><rect class="cls-8" x="1541.63" y="417.34" width="3.71" height="20" transform="translate(3087.48 864.18) rotate(-180)"/><rect class="cls-8" x="1655.4" y="371.58" width="3.71" height="20" transform="translate(3114.96 -485.66) rotate(136)"/><rect class="cls-8" x="1705.45" y="259.64" width="3.71" height="20" transform="translate(2036.87 -1417.72) rotate(92)"/><rect class="cls-8" x="1663.69" y="144.34" width="3.71" height="20" transform="translate(666.28 -1177.18) rotate(48)"/><path class="cls-10" d="M1730.92,262.34c-.28,76.7-52.58,147.12-124.21,172.7-72.32,25.82-155.16,3.7-205.11-54.53a187.51,187.51,0,0,1-43.92-101c-4.27-38.51,7.32-78.68,27.95-111.14,41.19-64.81,119.88-98.39,195.19-83.26,73.93,14.85,133.23,75,147,149.15a172.6,172.6,0,0,1,3.1,30.73c0,.65.07,3.48.06,3.49.53-1.61,0-4.49,0-6.15-.14-38.92-10.37-76.53-32.39-108.89a188.57,188.57,0,0,0-89.41-70.24c-75.5-28.18-162.78-3.55-212.6,59.67a187.78,187.78,0,0,0-39.91,107.54c-1.7,38.48,4.78,76.23,23.86,110.07C1420,430.47,1502,468,1580.81,452.22c77.79-15.62,138.78-81.24,148.68-160A224.69,224.69,0,0,0,1731,265a43.45,43.45,0,0,0,0-6.15C1731,259.07,1730.92,261.57,1730.92,262.34Z" transform="translate(0.5 9.5)"/></svg>